<svg width="500" height="500" viewBox="0 0 500 500" fill="none" xmlns="http://www.w3.org/2000/svg">
<path d="M500 382.4H0V382.65H500V382.4Z" fill="#EBEBEB"/>
<path d="M449.9 398.49H416.78V398.74H449.9V398.49Z" fill="#EBEBEB"/>
<path d="M331.22 401.21H322.53V401.46H331.22V401.21Z" fill="#EBEBEB"/>
<path d="M415.78 389.21H396.59V389.46H415.78V389.21Z" fill="#EBEBEB"/>
<path d="M95.65 390.89H52.46V391.14H95.65V390.89Z" fill="#EBEBEB"/>
<path d="M110.89 390.89H104.56V391.14H110.89V390.89Z" fill="#EBEBEB"/>
<path d="M225.15 395.11H131.47V395.36H225.15V395.11Z" fill="#EBEBEB"/>
<path d="M237 337.8H43.91C42.3973 337.797 40.9475 337.195 39.8789 336.124C38.8102 335.053 38.21 333.603 38.21 332.09V60.66C38.2232 59.156 38.8292 57.718 39.8964 56.6582C40.9637 55.5985 42.406 55.0026 43.91 55H237C238.514 55 239.967 55.6016 241.038 56.6724C242.108 57.7433 242.71 59.1956 242.71 60.71V332.09C242.71 333.604 242.108 335.057 241.038 336.128C239.967 337.198 238.514 337.8 237 337.8ZM43.91 55.2C42.4636 55.2026 41.0774 55.7791 40.0557 56.8027C39.0339 57.8264 38.46 59.2136 38.46 60.66V332.09C38.46 333.536 39.0339 334.924 40.0557 335.947C41.0774 336.971 42.4636 337.547 43.91 337.55H237C238.447 337.547 239.835 336.971 240.858 335.948C241.881 334.924 242.457 333.537 242.46 332.09V60.66C242.457 59.2127 241.881 57.8255 240.858 56.8021C239.835 55.7787 238.447 55.2026 237 55.2H43.91Z" fill="#EBEBEB"/>
<path d="M453.31 337.8H260.21C258.696 337.797 257.246 337.195 256.175 336.125C255.105 335.054 254.503 333.604 254.5 332.09V60.66C254.516 59.1551 255.124 57.7171 256.193 56.6576C257.262 55.5981 258.705 55.0025 260.21 55H453.31C454.812 55.0052 456.252 55.6022 457.317 56.6617C458.382 57.7212 458.987 59.1578 459 60.66V332.09C459 333.601 458.401 335.05 457.335 336.121C456.268 337.191 454.821 337.795 453.31 337.8ZM260.21 55.2C258.763 55.2026 257.375 55.7787 256.352 56.8021C255.329 57.8255 254.753 59.2127 254.75 60.66V332.09C254.753 333.537 255.329 334.924 256.352 335.948C257.375 336.971 258.763 337.547 260.21 337.55H453.31C454.757 337.547 456.145 336.971 457.168 335.948C458.191 334.924 458.767 333.537 458.77 332.09V60.66C458.767 59.2127 458.191 57.8255 457.168 56.8021C456.145 55.7787 454.757 55.2026 453.31 55.2H260.21Z" fill="#EBEBEB"/>
<path d="M445.42 117.18H203.14V350.72H445.42V117.18Z" fill="#E0E0E0"/>
<path d="M445.42 121.42H207.03V346.64H445.42V121.42Z" fill="#F5F5F5"/>
<path d="M208.79 292.1V224.35H215.82V215.4L231.66 208V198.84H234.3V224.35H236.94V292.1H240.46V256.9H248.38V238.43H251.02V292.1H257.17V271.86H261.57V266.58H271.25V248.11H276.53V235.79H282.69V217.31H285.33V235.79H291.49V248.11H296.76V266.58H306.44V271.86H310.84V292.1H316.12V266.58H325.8V210.28H328.44V204.12H349.55V210.28H353.95V250.75H371.55V255.14H377.7V257.78H371.55V273.62H390.02V220.83H393.54V210.28H402.34V169.81H404.98V210.28H411.14V220.83H445.42V346.64H207.03V292.1H208.79Z" fill="#E6E6E6"/>
<path d="M427.1 223.59H424.61V226.08H427.1V223.59Z" fill="#F0F0F0"/>
<path d="M427.1 227.77H424.61V230.26H427.1V227.77Z" fill="#F0F0F0"/>
<path d="M427.1 244.49H424.61V246.98H427.1V244.49Z" fill="#F0F0F0"/>
<path d="M427.1 248.66H424.61V251.15H427.1V248.66Z" fill="#F0F0F0"/>
<path d="M427.1 252.84H424.61V255.33H427.1V252.84Z" fill="#F0F0F0"/>
<path d="M427.1 265.38H424.61V267.87H427.1V265.38Z" fill="#F0F0F0"/>
<path d="M427.1 269.56H424.61V272.05H427.1V269.56Z" fill="#F0F0F0"/>
<path d="M423.14 240.31H420.65V242.8H423.14V240.31Z" fill="#F0F0F0"/>
<path d="M423.14 244.49H420.65V246.98H423.14V244.49Z" fill="#F0F0F0"/>
<path d="M423.14 248.66H420.65V251.15H423.14V248.66Z" fill="#F0F0F0"/>
<path d="M423.14 252.84H420.65V255.33H423.14V252.84Z" fill="#F0F0F0"/>
<path d="M423.14 257.02H420.65V259.51H423.14V257.02Z" fill="#F0F0F0"/>
<path d="M423.14 265.38H420.65V267.87H423.14V265.38Z" fill="#F0F0F0"/>
<path d="M423.14 269.56H420.65V272.05H423.14V269.56Z" fill="#F0F0F0"/>
<path d="M419.18 223.59H416.69V226.08H419.18V223.59Z" fill="#F0F0F0"/>
<path d="M419.18 227.77H416.69V230.26H419.18V227.77Z" fill="#F0F0F0"/>
<path d="M419.18 231.95H416.69V234.44H419.18V231.95Z" fill="#F0F0F0"/>
<path d="M419.18 236.13H416.69V238.62H419.18V236.13Z" fill="#F0F0F0"/>
<path d="M419.18 240.31H416.69V242.8H419.18V240.31Z" fill="#F0F0F0"/>
<path d="M419.18 244.49H416.69V246.98H419.18V244.49Z" fill="#F0F0F0"/>
<path d="M419.18 248.66H416.69V251.15H419.18V248.66Z" fill="#F0F0F0"/>
<path d="M419.18 252.84H416.69V255.33H419.18V252.84Z" fill="#F0F0F0"/>
<path d="M419.18 257.02H416.69V259.51H419.18V257.02Z" fill="#F0F0F0"/>
<path d="M419.18 261.2H416.69V263.69H419.18V261.2Z" fill="#F0F0F0"/>
<path d="M419.18 269.56H416.69V272.05H419.18V269.56Z" fill="#F0F0F0"/>
<path d="M415.22 223.59H412.73V226.08H415.22V223.59Z" fill="#F0F0F0"/>
<path d="M415.22 227.77H412.73V230.26H415.22V227.77Z" fill="#F0F0F0"/>
<path d="M415.22 231.95H412.73V234.44H415.22V231.95Z" fill="#F0F0F0"/>
<path d="M415.22 236.13H412.73V238.62H415.22V236.13Z" fill="#F0F0F0"/>
<path d="M415.22 240.31H412.73V242.8H415.22V240.31Z" fill="#F0F0F0"/>
<path d="M415.22 244.49H412.73V246.98H415.22V244.49Z" fill="#F0F0F0"/>
<path d="M415.22 248.66H412.73V251.15H415.22V248.66Z" fill="#F0F0F0"/>
<path d="M415.22 286.28H412.73V288.77H415.22V286.28Z" fill="#F0F0F0"/>
<path d="M411.26 223.59H408.77V226.08H411.26V223.59Z" fill="#F0F0F0"/>
<path d="M411.26 227.77H408.77V230.26H411.26V227.77Z" fill="#F0F0F0"/>
<path d="M411.26 231.95H408.77V234.44H411.26V231.95Z" fill="#F0F0F0"/>
<path d="M411.26 236.13H408.77V238.62H411.26V236.13Z" fill="#F0F0F0"/>
<path d="M411.26 240.31H408.77V242.8H411.26V240.31Z" fill="#F0F0F0"/>
<path d="M411.26 244.49H408.77V246.98H411.26V244.49Z" fill="#F0F0F0"/>
<path d="M411.26 248.66H408.77V251.15H411.26V248.66Z" fill="#F0F0F0"/>
<path d="M411.26 252.84H408.77V255.33H411.26V252.84Z" fill="#F0F0F0"/>
<path d="M411.26 277.92H408.77V280.41H411.26V277.92Z" fill="#F0F0F0"/>
<path d="M411.26 282.1H408.77V284.59H411.26V282.1Z" fill="#F0F0F0"/>
<path d="M411.26 286.28H408.77V288.77H411.26V286.28Z" fill="#F0F0F0"/>
<path d="M411.26 290.45H408.77V292.94H411.26V290.45Z" fill="#F0F0F0"/>
<path d="M411.26 307.17H408.77V309.66H411.26V307.17Z" fill="#F0F0F0"/>
<path d="M407.3 223.59H404.81V226.08H407.3V223.59Z" fill="#F0F0F0"/>
<path d="M407.3 227.77H404.81V230.26H407.3V227.77Z" fill="#F0F0F0"/>
<path d="M407.3 231.95H404.81V234.44H407.3V231.95Z" fill="#F0F0F0"/>
<path d="M407.3 236.13H404.81V238.62H407.3V236.13Z" fill="#F0F0F0"/>
<path d="M407.3 240.31H404.81V242.8H407.3V240.31Z" fill="#F0F0F0"/>
<path d="M407.3 244.49H404.81V246.98H407.3V244.49Z" fill="#F0F0F0"/>
<path d="M407.3 248.66H404.81V251.15H407.3V248.66Z" fill="#F0F0F0"/>
<path d="M407.3 252.84H404.81V255.33H407.3V252.84Z" fill="#F0F0F0"/>
<path d="M407.3 257.02H404.81V259.51H407.3V257.02Z" fill="#F0F0F0"/>
<path d="M407.3 261.2H404.81V263.69H407.3V261.2Z" fill="#F0F0F0"/>
<path d="M407.3 273.74H404.81V276.23H407.3V273.74Z" fill="#F0F0F0"/>
<path d="M407.3 277.92H404.81V280.41H407.3V277.92Z" fill="#F0F0F0"/>
<path d="M407.3 282.1H404.81V284.59H407.3V282.1Z" fill="#F0F0F0"/>
<path d="M407.3 286.28H404.81V288.77H407.3V286.28Z" fill="#F0F0F0"/>
<path d="M407.3 290.45H404.81V292.94H407.3V290.45Z" fill="#F0F0F0"/>
<path d="M407.3 307.17H404.81V309.66H407.3V307.17Z" fill="#F0F0F0"/>
<path d="M403.34 223.59H400.85V226.08H403.34V223.59Z" fill="#F0F0F0"/>
<path d="M403.34 227.77H400.85V230.26H403.34V227.77Z" fill="#F0F0F0"/>
<path d="M403.34 231.95H400.85V234.44H403.34V231.95Z" fill="#F0F0F0"/>
<path d="M403.34 236.13H400.85V238.62H403.34V236.13Z" fill="#F0F0F0"/>
<path d="M403.34 240.31H400.85V242.8H403.34V240.31Z" fill="#F0F0F0"/>
<path d="M403.34 244.49H400.85V246.98H403.34V244.49Z" fill="#F0F0F0"/>
<path d="M403.34 248.66H400.85V251.15H403.34V248.66Z" fill="#F0F0F0"/>
<path d="M403.34 252.84H400.85V255.33H403.34V252.84Z" fill="#F0F0F0"/>
<path d="M403.34 257.02H400.85V259.51H403.34V257.02Z" fill="#F0F0F0"/>
<path d="M403.34 261.2H400.85V263.69H403.34V261.2Z" fill="#F0F0F0"/>
<path d="M403.34 265.38H400.85V267.87H403.34V265.38Z" fill="#F0F0F0"/>
<path d="M403.34 269.56H400.85V272.05H403.34V269.56Z" fill="#F0F0F0"/>
<path d="M403.34 273.74H400.85V276.23H403.34V273.74Z" fill="#F0F0F0"/>
<path d="M403.34 277.92H400.85V280.41H403.34V277.92Z" fill="#F0F0F0"/>
<path d="M403.34 282.1H400.85V284.59H403.34V282.1Z" fill="#F0F0F0"/>
<path d="M403.34 286.28H400.85V288.77H403.34V286.28Z" fill="#F0F0F0"/>
<path d="M403.34 290.45H400.85V292.94H403.34V290.45Z" fill="#F0F0F0"/>
<path d="M403.34 294.63H400.85V297.12H403.34V294.63Z" fill="#F0F0F0"/>
<path d="M399.38 223.59H396.89V226.08H399.38V223.59Z" fill="#F0F0F0"/>
<path d="M399.38 227.77H396.89V230.26H399.38V227.77Z" fill="#F0F0F0"/>
<path d="M399.38 231.95H396.89V234.44H399.38V231.95Z" fill="#F0F0F0"/>
<path d="M399.38 236.13H396.89V238.62H399.38V236.13Z" fill="#F0F0F0"/>
<path d="M399.38 240.31H396.89V242.8H399.38V240.31Z" fill="#F0F0F0"/>
<path d="M399.38 244.49H396.89V246.98H399.38V244.49Z" fill="#F0F0F0"/>
<path d="M399.38 248.66H396.89V251.15H399.38V248.66Z" fill="#F0F0F0"/>
<path d="M399.38 252.84H396.89V255.33H399.38V252.84Z" fill="#F0F0F0"/>
<path d="M399.38 257.02H396.89V259.51H399.38V257.02Z" fill="#F0F0F0"/>
<path d="M399.38 261.2H396.89V263.69H399.38V261.2Z" fill="#F0F0F0"/>
<path d="M399.38 273.74H396.89V276.23H399.38V273.74Z" fill="#F0F0F0"/>
<path d="M399.38 277.92H396.89V280.41H399.38V277.92Z" fill="#F0F0F0"/>
<path d="M399.38 282.1H396.89V284.59H399.38V282.1Z" fill="#F0F0F0"/>
<path d="M399.38 286.28H396.89V288.77H399.38V286.28Z" fill="#F0F0F0"/>
<path d="M395.43 223.59H392.94V226.08H395.43V223.59Z" fill="#F0F0F0"/>
<path d="M395.43 227.77H392.94V230.26H395.43V227.77Z" fill="#F0F0F0"/>
<path d="M395.43 231.95H392.94V234.44H395.43V231.95Z" fill="#F0F0F0"/>
<path d="M395.43 236.13H392.94V238.62H395.43V236.13Z" fill="#F0F0F0"/>
<path d="M395.43 240.31H392.94V242.8H395.43V240.31Z" fill="#F0F0F0"/>
<path d="M395.43 244.49H392.94V246.98H395.43V244.49Z" fill="#F0F0F0"/>
<path d="M395.43 248.66H392.94V251.15H395.43V248.66Z" fill="#F0F0F0"/>
<path d="M395.43 252.84H392.94V255.33H395.43V252.84Z" fill="#F0F0F0"/>
<path d="M395.43 257.02H392.94V259.51H395.43V257.02Z" fill="#F0F0F0"/>
<path d="M395.43 261.2H392.94V263.69H395.43V261.2Z" fill="#F0F0F0"/>
<path d="M395.43 273.74H392.94V276.23H395.43V273.74Z" fill="#F0F0F0"/>
<path d="M395.43 277.92H392.94V280.41H395.43V277.92Z" fill="#F0F0F0"/>
<path d="M395.43 282.1H392.94V284.59H395.43V282.1Z" fill="#F0F0F0"/>
<path d="M350.85 212.74H348.36V215.23H350.85V212.74Z" fill="#F0F0F0"/>
<path d="M350.85 216.92H348.36V219.41H350.85V216.92Z" fill="#F0F0F0"/>
<path d="M350.85 221.1H348.36V223.59H350.85V221.1Z" fill="#F0F0F0"/>
<path d="M350.85 225.28H348.36V227.77H350.85V225.28Z" fill="#F0F0F0"/>
<path d="M350.85 229.46H348.36V231.95H350.85V229.46Z" fill="#F0F0F0"/>
<path d="M350.85 233.64H348.36V236.13H350.85V233.64Z" fill="#F0F0F0"/>
<path d="M350.85 237.81H348.36V240.3H350.85V237.81Z" fill="#F0F0F0"/>
<path d="M350.85 241.99H348.36V244.48H350.85V241.99Z" fill="#F0F0F0"/>
<path d="M350.85 254.53H348.36V257.02H350.85V254.53Z" fill="#F0F0F0"/>
<path d="M350.85 258.71H348.36V261.2H350.85V258.71Z" fill="#F0F0F0"/>
<path d="M346.89 212.74H344.4V215.23H346.89V212.74Z" fill="#F0F0F0"/>
<path d="M346.89 216.92H344.4V219.41H346.89V216.92Z" fill="#F0F0F0"/>
<path d="M346.89 221.1H344.4V223.59H346.89V221.1Z" fill="#F0F0F0"/>
<path d="M346.89 225.28H344.4V227.77H346.89V225.28Z" fill="#F0F0F0"/>
<path d="M346.89 229.46H344.4V231.95H346.89V229.46Z" fill="#F0F0F0"/>
<path d="M346.89 233.64H344.4V236.13H346.89V233.64Z" fill="#F0F0F0"/>
<path d="M346.89 237.81H344.4V240.3H346.89V237.81Z" fill="#F0F0F0"/>
<path d="M346.89 241.99H344.4V244.48H346.89V241.99Z" fill="#F0F0F0"/>
<path d="M346.89 258.71H344.4V261.2H346.89V258.71Z" fill="#F0F0F0"/>
<path d="M342.93 212.74H340.44V215.23H342.93V212.74Z" fill="#F0F0F0"/>
<path d="M342.93 216.92H340.44V219.41H342.93V216.92Z" fill="#F0F0F0"/>
<path d="M342.93 221.1H340.44V223.59H342.93V221.1Z" fill="#F0F0F0"/>
<path d="M342.93 225.28H340.44V227.77H342.93V225.28Z" fill="#F0F0F0"/>
<path d="M342.93 229.46H340.44V231.95H342.93V229.46Z" fill="#F0F0F0"/>
<path d="M342.93 233.64H340.44V236.13H342.93V233.64Z" fill="#F0F0F0"/>
<path d="M342.93 237.81H340.44V240.3H342.93V237.81Z" fill="#F0F0F0"/>
<path d="M342.93 241.99H340.44V244.48H342.93V241.99Z" fill="#F0F0F0"/>
<path d="M338.97 212.74H336.48V215.23H338.97V212.74Z" fill="#F0F0F0"/>
<path d="M338.97 216.92H336.48V219.41H338.97V216.92Z" fill="#F0F0F0"/>
<path d="M338.97 221.1H336.48V223.59H338.97V221.1Z" fill="#F0F0F0"/>
<path d="M338.97 225.28H336.48V227.77H338.97V225.28Z" fill="#F0F0F0"/>
<path d="M338.97 229.46H336.48V231.95H338.97V229.46Z" fill="#F0F0F0"/>
<path d="M338.97 233.64H336.48V236.13H338.97V233.64Z" fill="#F0F0F0"/>
<path d="M338.97 241.99H336.48V244.48H338.97V241.99Z" fill="#F0F0F0"/>
<path d="M338.97 246.17H336.48V248.66H338.97V246.17Z" fill="#F0F0F0"/>
<path d="M338.97 258.71H336.48V261.2H338.97V258.71Z" fill="#F0F0F0"/>
<path d="M338.97 262.89H336.48V265.38H338.97V262.89Z" fill="#F0F0F0"/>
<path d="M338.97 267.07H336.48V269.56H338.97V267.07Z" fill="#F0F0F0"/>
<path d="M338.97 271.25H336.48V273.74H338.97V271.25Z" fill="#F0F0F0"/>
<path d="M338.97 275.43H336.48V277.92H338.97V275.43Z" fill="#F0F0F0"/>
<path d="M338.97 279.6H336.48V282.09H338.97V279.6Z" fill="#F0F0F0"/>
<path d="M338.97 283.78H336.48V286.27H338.97V283.78Z" fill="#F0F0F0"/>
<path d="M335.01 212.74H332.52V215.23H335.01V212.74Z" fill="#F0F0F0"/>
<path d="M335.01 216.92H332.52V219.41H335.01V216.92Z" fill="#F0F0F0"/>
<path d="M335.01 221.1H332.52V223.59H335.01V221.1Z" fill="#F0F0F0"/>
<path d="M335.01 225.28H332.52V227.77H335.01V225.28Z" fill="#F0F0F0"/>
<path d="M335.01 229.46H332.52V231.95H335.01V229.46Z" fill="#F0F0F0"/>
<path d="M335.01 233.64H332.52V236.13H335.01V233.64Z" fill="#F0F0F0"/>
<path d="M335.01 246.17H332.52V248.66H335.01V246.17Z" fill="#F0F0F0"/>
<path d="M335.01 250.35H332.52V252.84H335.01V250.35Z" fill="#F0F0F0"/>
<path d="M335.01 254.53H332.52V257.02H335.01V254.53Z" fill="#F0F0F0"/>
<path d="M335.01 258.71H332.52V261.2H335.01V258.71Z" fill="#F0F0F0"/>
<path d="M335.01 262.89H332.52V265.38H335.01V262.89Z" fill="#F0F0F0"/>
<path d="M335.01 267.07H332.52V269.56H335.01V267.07Z" fill="#F0F0F0"/>
<path d="M335.01 271.25H332.52V273.74H335.01V271.25Z" fill="#F0F0F0"/>
<path d="M335.01 275.43H332.52V277.92H335.01V275.43Z" fill="#F0F0F0"/>
<path d="M335.01 279.6H332.52V282.09H335.01V279.6Z" fill="#F0F0F0"/>
<path d="M335.01 283.78H332.52V286.27H335.01V283.78Z" fill="#F0F0F0"/>
<path d="M335.01 287.96H332.52V290.45H335.01V287.96Z" fill="#F0F0F0"/>
<path d="M335.01 296.32H332.52V298.81H335.01V296.32Z" fill="#F0F0F0"/>
<path d="M331.05 212.74H328.56V215.23H331.05V212.74Z" fill="#F0F0F0"/>
<path d="M331.05 216.92H328.56V219.41H331.05V216.92Z" fill="#F0F0F0"/>
<path d="M331.05 221.1H328.56V223.59H331.05V221.1Z" fill="#F0F0F0"/>
<path d="M331.05 225.28H328.56V227.77H331.05V225.28Z" fill="#F0F0F0"/>
<path d="M331.05 229.46H328.56V231.95H331.05V229.46Z" fill="#F0F0F0"/>
<path d="M331.05 233.64H328.56V236.13H331.05V233.64Z" fill="#F0F0F0"/>
<path d="M331.05 246.17H328.56V248.66H331.05V246.17Z" fill="#F0F0F0"/>
<path d="M331.05 250.35H328.56V252.84H331.05V250.35Z" fill="#F0F0F0"/>
<path d="M331.05 254.53H328.56V257.02H331.05V254.53Z" fill="#F0F0F0"/>
<path d="M331.05 258.71H328.56V261.2H331.05V258.71Z" fill="#F0F0F0"/>
<path d="M331.05 271.25H328.56V273.74H331.05V271.25Z" fill="#F0F0F0"/>
<path d="M331.05 275.43H328.56V277.92H331.05V275.43Z" fill="#F0F0F0"/>
<path d="M331.05 279.6H328.56V282.09H331.05V279.6Z" fill="#F0F0F0"/>
<path d="M331.05 283.78H328.56V286.27H331.05V283.78Z" fill="#F0F0F0"/>
<path d="M331.05 287.96H328.56V290.45H331.05V287.96Z" fill="#F0F0F0"/>
<path d="M331.05 296.32H328.56V298.81H331.05V296.32Z" fill="#F0F0F0"/>
<path d="M331.05 300.5H328.56V302.99H331.05V300.5Z" fill="#F0F0F0"/>
<path d="M295.13 251.6H292.64V254.09H295.13V251.6Z" fill="#F0F0F0"/>
<path d="M295.13 255.78H292.64V258.27H295.13V255.78Z" fill="#F0F0F0"/>
<path d="M295.13 259.96H292.64V262.45H295.13V259.96Z" fill="#F0F0F0"/>
<path d="M295.13 264.13H292.64V266.62H295.13V264.13Z" fill="#F0F0F0"/>
<path d="M295.13 268.31H292.64V270.8H295.13V268.31Z" fill="#F0F0F0"/>
<path d="M295.13 272.49H292.64V274.98H295.13V272.49Z" fill="#F0F0F0"/>
<path d="M295.13 276.67H292.64V279.16H295.13V276.67Z" fill="#F0F0F0"/>
<path d="M295.13 289.21H292.64V291.7H295.13V289.21Z" fill="#F0F0F0"/>
<path d="M295.13 293.39H292.64V295.88H295.13V293.39Z" fill="#F0F0F0"/>
<path d="M295.13 297.57H292.64V300.06H295.13V297.57Z" fill="#F0F0F0"/>
<path d="M291.17 251.6H288.68V254.09H291.17V251.6Z" fill="#F0F0F0"/>
<path d="M291.17 255.78H288.68V258.27H291.17V255.78Z" fill="#F0F0F0"/>
<path d="M291.17 259.96H288.68V262.45H291.17V259.96Z" fill="#F0F0F0"/>
<path d="M291.17 264.13H288.68V266.62H291.17V264.13Z" fill="#F0F0F0"/>
<path d="M291.17 268.31H288.68V270.8H291.17V268.31Z" fill="#F0F0F0"/>
<path d="M291.17 272.49H288.68V274.98H291.17V272.49Z" fill="#F0F0F0"/>
<path d="M291.17 276.67H288.68V279.16H291.17V276.67Z" fill="#F0F0F0"/>
<path d="M287.21 251.6H284.72V254.09H287.21V251.6Z" fill="#F0F0F0"/>
<path d="M287.21 255.78H284.72V258.27H287.21V255.78Z" fill="#F0F0F0"/>
<path d="M287.21 259.96H284.72V262.45H287.21V259.96Z" fill="#F0F0F0"/>
<path d="M287.21 264.13H284.72V266.62H287.21V264.13Z" fill="#F0F0F0"/>
<path d="M287.21 268.31H284.72V270.8H287.21V268.31Z" fill="#F0F0F0"/>
<path d="M287.21 272.49H284.72V274.98H287.21V272.49Z" fill="#F0F0F0"/>
<path d="M287.21 276.67H284.72V279.16H287.21V276.67Z" fill="#F0F0F0"/>
<path d="M283.25 251.6H280.76V254.09H283.25V251.6Z" fill="#F0F0F0"/>
<path d="M283.25 255.78H280.76V258.27H283.25V255.78Z" fill="#F0F0F0"/>
<path d="M283.25 259.96H280.76V262.45H283.25V259.96Z" fill="#F0F0F0"/>
<path d="M283.25 264.13H280.76V266.62H283.25V264.13Z" fill="#F0F0F0"/>
<path d="M283.25 268.31H280.76V270.8H283.25V268.31Z" fill="#F0F0F0"/>
<path d="M283.25 272.49H280.76V274.98H283.25V272.49Z" fill="#F0F0F0"/>
<path d="M283.25 276.67H280.76V279.16H283.25V276.67Z" fill="#F0F0F0"/>
<path d="M283.25 280.85H280.76V283.34H283.25V280.85Z" fill="#F0F0F0"/>
<path d="M283.25 285.03H280.76V287.52H283.25V285.03Z" fill="#F0F0F0"/>
<path d="M283.25 289.21H280.76V291.7H283.25V289.21Z" fill="#F0F0F0"/>
<path d="M283.25 293.39H280.76V295.88H283.25V293.39Z" fill="#F0F0F0"/>
<path d="M279.29 251.6H276.8V254.09H279.29V251.6Z" fill="#F0F0F0"/>
<path d="M279.29 255.78H276.8V258.27H279.29V255.78Z" fill="#F0F0F0"/>
<path d="M279.29 259.96H276.8V262.45H279.29V259.96Z" fill="#F0F0F0"/>
<path d="M279.29 264.13H276.8V266.62H279.29V264.13Z" fill="#F0F0F0"/>
<path d="M279.29 268.31H276.8V270.8H279.29V268.31Z" fill="#F0F0F0"/>
<path d="M279.29 272.49H276.8V274.98H279.29V272.49Z" fill="#F0F0F0"/>
<path d="M279.29 276.67H276.8V279.16H279.29V276.67Z" fill="#F0F0F0"/>
<path d="M279.29 280.85H276.8V283.34H279.29V280.85Z" fill="#F0F0F0"/>
<path d="M279.29 285.03H276.8V287.52H279.29V285.03Z" fill="#F0F0F0"/>
<path d="M279.29 289.21H276.8V291.7H279.29V289.21Z" fill="#F0F0F0"/>
<path d="M279.29 293.39H276.8V295.88H279.29V293.39Z" fill="#F0F0F0"/>
<path d="M279.29 297.57H276.8V300.06H279.29V297.57Z" fill="#F0F0F0"/>
<path d="M279.29 310.1H276.8V312.59H279.29V310.1Z" fill="#F0F0F0"/>
<path d="M279.29 314.28H276.8V316.77H279.29V314.28Z" fill="#F0F0F0"/>
<path d="M275.33 251.6H272.84V254.09H275.33V251.6Z" fill="#F0F0F0"/>
<path d="M275.33 255.78H272.84V258.27H275.33V255.78Z" fill="#F0F0F0"/>
<path d="M275.33 259.96H272.84V262.45H275.33V259.96Z" fill="#F0F0F0"/>
<path d="M275.33 272.49H272.84V274.98H275.33V272.49Z" fill="#F0F0F0"/>
<path d="M275.33 276.67H272.84V279.16H275.33V276.67Z" fill="#F0F0F0"/>
<path d="M275.33 280.85H272.84V283.34H275.33V280.85Z" fill="#F0F0F0"/>
<path d="M275.33 285.03H272.84V287.52H275.33V285.03Z" fill="#F0F0F0"/>
<path d="M275.33 289.21H272.84V291.7H275.33V289.21Z" fill="#F0F0F0"/>
<path d="M275.33 293.39H272.84V295.88H275.33V293.39Z" fill="#F0F0F0"/>
<path d="M275.33 297.57H272.84V300.06H275.33V297.57Z" fill="#F0F0F0"/>
<path d="M275.33 310.1H272.84V312.59H275.33V310.1Z" fill="#F0F0F0"/>
<path d="M275.33 314.28H272.84V316.77H275.33V314.28Z" fill="#F0F0F0"/>
<path d="M275.33 318.46H272.84V320.95H275.33V318.46Z" fill="#F0F0F0"/>
<path d="M233.84 226.52H231.35V229.01H233.84V226.52Z" fill="#F0F0F0"/>
<path d="M233.84 230.7H231.35V233.19H233.84V230.7Z" fill="#F0F0F0"/>
<path d="M233.84 234.88H231.35V237.37H233.84V234.88Z" fill="#F0F0F0"/>
<path d="M233.84 239.06H231.35V241.55H233.84V239.06Z" fill="#F0F0F0"/>
<path d="M233.84 243.24H231.35V245.73H233.84V243.24Z" fill="#F0F0F0"/>
<path d="M233.84 247.42H231.35V249.91H233.84V247.42Z" fill="#F0F0F0"/>
<path d="M233.84 251.6H231.35V254.09H233.84V251.6Z" fill="#F0F0F0"/>
<path d="M233.84 255.78H231.35V258.27H233.84V255.78Z" fill="#F0F0F0"/>
<path d="M233.84 259.96H231.35V262.45H233.84V259.96Z" fill="#F0F0F0"/>
<path d="M233.84 264.13H231.35V266.62H233.84V264.13Z" fill="#F0F0F0"/>
<path d="M233.84 268.31H231.35V270.8H233.84V268.31Z" fill="#F0F0F0"/>
<path d="M233.84 272.49H231.35V274.98H233.84V272.49Z" fill="#F0F0F0"/>
<path d="M233.84 276.67H231.35V279.16H233.84V276.67Z" fill="#F0F0F0"/>
<path d="M233.84 280.85H231.35V283.34H233.84V280.85Z" fill="#F0F0F0"/>
<path d="M233.84 285.03H231.35V287.52H233.84V285.03Z" fill="#F0F0F0"/>
<path d="M233.84 289.21H231.35V291.7H233.84V289.21Z" fill="#F0F0F0"/>
<path d="M233.84 293.39H231.35V295.88H233.84V293.39Z" fill="#F0F0F0"/>
<path d="M233.84 297.57H231.35V300.06H233.84V297.57Z" fill="#F0F0F0"/>
<path d="M233.84 301.75H231.35V304.24H233.84V301.75Z" fill="#F0F0F0"/>
<path d="M233.84 305.92H231.35V308.41H233.84V305.92Z" fill="#F0F0F0"/>
<path d="M233.84 310.1H231.35V312.59H233.84V310.1Z" fill="#F0F0F0"/>
<path d="M233.84 314.28H231.35V316.77H233.84V314.28Z" fill="#F0F0F0"/>
<path d="M233.84 318.46H231.35V320.95H233.84V318.46Z" fill="#F0F0F0"/>
<path d="M229.88 226.52H227.39V229.01H229.88V226.52Z" fill="#F0F0F0"/>
<path d="M229.88 230.7H227.39V233.19H229.88V230.7Z" fill="#F0F0F0"/>
<path d="M229.88 234.88H227.39V237.37H229.88V234.88Z" fill="#F0F0F0"/>
<path d="M229.88 239.06H227.39V241.55H229.88V239.06Z" fill="#F0F0F0"/>
<path d="M229.88 243.24H227.39V245.73H229.88V243.24Z" fill="#F0F0F0"/>
<path d="M229.88 247.42H227.39V249.91H229.88V247.42Z" fill="#F0F0F0"/>
<path d="M229.88 251.6H227.39V254.09H229.88V251.6Z" fill="#F0F0F0"/>
<path d="M229.88 255.78H227.39V258.27H229.88V255.78Z" fill="#F0F0F0"/>
<path d="M229.88 259.96H227.39V262.45H229.88V259.96Z" fill="#F0F0F0"/>
<path d="M229.88 264.13H227.39V266.62H229.88V264.13Z" fill="#F0F0F0"/>
<path d="M229.88 268.31H227.39V270.8H229.88V268.31Z" fill="#F0F0F0"/>
<path d="M229.88 272.49H227.39V274.98H229.88V272.49Z" fill="#F0F0F0"/>
<path d="M229.88 276.67H227.39V279.16H229.88V276.67Z" fill="#F0F0F0"/>
<path d="M229.88 280.85H227.39V283.34H229.88V280.85Z" fill="#F0F0F0"/>
<path d="M229.88 285.03H227.39V287.52H229.88V285.03Z" fill="#F0F0F0"/>
<path d="M229.88 289.21H227.39V291.7H229.88V289.21Z" fill="#F0F0F0"/>
<path d="M229.88 293.39H227.39V295.88H229.88V293.39Z" fill="#F0F0F0"/>
<path d="M229.88 297.57H227.39V300.06H229.88V297.57Z" fill="#F0F0F0"/>
<path d="M229.88 301.75H227.39V304.24H229.88V301.75Z" fill="#F0F0F0"/>
<path d="M225.92 226.52H223.43V229.01H225.92V226.52Z" fill="#F0F0F0"/>
<path d="M225.92 230.7H223.43V233.19H225.92V230.7Z" fill="#F0F0F0"/>
<path d="M225.92 234.88H223.43V237.37H225.92V234.88Z" fill="#F0F0F0"/>
<path d="M225.92 239.06H223.43V241.55H225.92V239.06Z" fill="#F0F0F0"/>
<path d="M225.92 243.24H223.43V245.73H225.92V243.24Z" fill="#F0F0F0"/>
<path d="M225.92 247.42H223.43V249.91H225.92V247.42Z" fill="#F0F0F0"/>
<path d="M225.92 251.6H223.43V254.09H225.92V251.6Z" fill="#F0F0F0"/>
<path d="M225.92 255.78H223.43V258.27H225.92V255.78Z" fill="#F0F0F0"/>
<path d="M225.92 259.96H223.43V262.45H225.92V259.96Z" fill="#F0F0F0"/>
<path d="M225.92 264.13H223.43V266.62H225.92V264.13Z" fill="#F0F0F0"/>
<path d="M225.92 268.31H223.43V270.8H225.92V268.31Z" fill="#F0F0F0"/>
<path d="M225.92 272.49H223.43V274.98H225.92V272.49Z" fill="#F0F0F0"/>
<path d="M225.92 276.67H223.43V279.16H225.92V276.67Z" fill="#F0F0F0"/>
<path d="M225.92 280.85H223.43V283.34H225.92V280.85Z" fill="#F0F0F0"/>
<path d="M225.92 285.03H223.43V287.52H225.92V285.03Z" fill="#F0F0F0"/>
<path d="M225.92 289.21H223.43V291.7H225.92V289.21Z" fill="#F0F0F0"/>
<path d="M225.92 293.39H223.43V295.88H225.92V293.39Z" fill="#F0F0F0"/>
<path d="M225.92 297.57H223.43V300.06H225.92V297.57Z" fill="#F0F0F0"/>
<path d="M225.92 301.75H223.43V304.24H225.92V301.75Z" fill="#F0F0F0"/>
<path d="M221.96 226.52H219.47V229.01H221.96V226.52Z" fill="#F0F0F0"/>
<path d="M221.96 230.7H219.47V233.19H221.96V230.7Z" fill="#F0F0F0"/>
<path d="M221.96 234.88H219.47V237.37H221.96V234.88Z" fill="#F0F0F0"/>
<path d="M221.96 239.06H219.47V241.55H221.96V239.06Z" fill="#F0F0F0"/>
<path d="M221.96 243.24H219.47V245.73H221.96V243.24Z" fill="#F0F0F0"/>
<path d="M221.96 247.42H219.47V249.91H221.96V247.42Z" fill="#F0F0F0"/>
<path d="M221.96 251.6H219.47V254.09H221.96V251.6Z" fill="#F0F0F0"/>
<path d="M221.96 255.78H219.47V258.27H221.96V255.78Z" fill="#F0F0F0"/>
<path d="M221.96 259.96H219.47V262.45H221.96V259.96Z" fill="#F0F0F0"/>
<path d="M221.96 264.13H219.47V266.62H221.96V264.13Z" fill="#F0F0F0"/>
<path d="M221.96 268.31H219.47V270.8H221.96V268.31Z" fill="#F0F0F0"/>
<path d="M221.96 272.49H219.47V274.98H221.96V272.49Z" fill="#F0F0F0"/>
<path d="M221.96 276.67H219.47V279.16H221.96V276.67Z" fill="#F0F0F0"/>
<path d="M221.96 280.85H219.47V283.34H221.96V280.85Z" fill="#F0F0F0"/>
<path d="M221.96 285.03H219.47V287.52H221.96V285.03Z" fill="#F0F0F0"/>
<path d="M218 226.52H215.51V229.01H218V226.52Z" fill="#F0F0F0"/>
<path d="M218 230.7H215.51V233.19H218V230.7Z" fill="#F0F0F0"/>
<path d="M218 234.88H215.51V237.37H218V234.88Z" fill="#F0F0F0"/>
<path d="M218 239.06H215.51V241.55H218V239.06Z" fill="#F0F0F0"/>
<path d="M218 243.24H215.51V245.73H218V243.24Z" fill="#F0F0F0"/>
<path d="M218 247.42H215.51V249.91H218V247.42Z" fill="#F0F0F0"/>
<path d="M218 251.6H215.51V254.09H218V251.6Z" fill="#F0F0F0"/>
<path d="M218 255.78H215.51V258.27H218V255.78Z" fill="#F0F0F0"/>
<path d="M218 259.96H215.51V262.45H218V259.96Z" fill="#F0F0F0"/>
<path d="M218 264.13H215.51V266.62H218V264.13Z" fill="#F0F0F0"/>
<path d="M218 268.31H215.51V270.8H218V268.31Z" fill="#F0F0F0"/>
<path d="M218 272.49H215.51V274.98H218V272.49Z" fill="#F0F0F0"/>
<path d="M218 276.67H215.51V279.16H218V276.67Z" fill="#F0F0F0"/>
<path d="M214.04 226.52H211.55V229.01H214.04V226.52Z" fill="#F0F0F0"/>
<path d="M214.04 230.7H211.55V233.19H214.04V230.7Z" fill="#F0F0F0"/>
<path d="M214.04 234.88H211.55V237.37H214.04V234.88Z" fill="#F0F0F0"/>
<path d="M214.04 239.06H211.55V241.55H214.04V239.06Z" fill="#F0F0F0"/>
<path d="M214.04 243.24H211.55V245.73H214.04V243.24Z" fill="#F0F0F0"/>
<path d="M214.04 247.42H211.55V249.91H214.04V247.42Z" fill="#F0F0F0"/>
<path d="M214.04 251.6H211.55V254.09H214.04V251.6Z" fill="#F0F0F0"/>
<path d="M214.04 255.78H211.55V258.27H214.04V255.78Z" fill="#F0F0F0"/>
<path d="M214.04 259.96H211.55V262.45H214.04V259.96Z" fill="#F0F0F0"/>
<path d="M214.04 264.13H211.55V266.62H214.04V264.13Z" fill="#F0F0F0"/>
<path d="M214.04 268.31H211.55V270.8H214.04V268.31Z" fill="#F0F0F0"/>
<path d="M214.04 272.49H211.55V274.98H214.04V272.49Z" fill="#F0F0F0"/>
<path d="M445.13 225.28H442.64V227.77H445.13V225.28Z" fill="#F0F0F0"/>
<path d="M445.13 229.46H442.64V231.95H445.13V229.46Z" fill="#F0F0F0"/>
<path d="M445.13 233.64H442.64V236.13H445.13V233.64Z" fill="#F0F0F0"/>
<path d="M445.13 237.81H442.64V240.3H445.13V237.81Z" fill="#F0F0F0"/>
<path d="M445.13 241.99H442.64V244.48H445.13V241.99Z" fill="#F0F0F0"/>
<path d="M445.13 246.17H442.64V248.66H445.13V246.17Z" fill="#F0F0F0"/>
<path d="M445.13 250.35H442.64V252.84H445.13V250.35Z" fill="#F0F0F0"/>
<path d="M445.13 254.53H442.64V257.02H445.13V254.53Z" fill="#F0F0F0"/>
<path d="M445.13 258.71H442.64V261.2H445.13V258.71Z" fill="#F0F0F0"/>
<path d="M445.13 262.89H442.64V265.38H445.13V262.89Z" fill="#F0F0F0"/>
<path d="M445.13 267.07H442.64V269.56H445.13V267.07Z" fill="#F0F0F0"/>
<path d="M445.13 271.25H442.64V273.74H445.13V271.25Z" fill="#F0F0F0"/>
<path d="M445.13 275.43H442.64V277.92H445.13V275.43Z" fill="#F0F0F0"/>
<path d="M445.13 279.6H442.64V282.09H445.13V279.6Z" fill="#F0F0F0"/>
<path d="M445.13 283.78H442.64V286.27H445.13V283.78Z" fill="#F0F0F0"/>
<path d="M445.13 287.96H442.64V290.45H445.13V287.96Z" fill="#F0F0F0"/>
<path d="M445.13 292.14H442.64V294.63H445.13V292.14Z" fill="#F0F0F0"/>
<path d="M445.13 300.5H442.64V302.99H445.13V300.5Z" fill="#F0F0F0"/>
<path d="M445.13 304.68H442.64V307.17H445.13V304.68Z" fill="#F0F0F0"/>
<path d="M445.13 308.86H442.64V311.35H445.13V308.86Z" fill="#F0F0F0"/>
<path d="M445.13 313.04H442.64V315.53H445.13V313.04Z" fill="#F0F0F0"/>
<path d="M445.13 317.21H442.64V319.7H445.13V317.21Z" fill="#F0F0F0"/>
<path d="M441.17 225.28H438.68V227.77H441.17V225.28Z" fill="#F0F0F0"/>
<path d="M441.17 229.46H438.68V231.95H441.17V229.46Z" fill="#F0F0F0"/>
<path d="M441.17 233.64H438.68V236.13H441.17V233.64Z" fill="#F0F0F0"/>
<path d="M441.17 237.81H438.68V240.3H441.17V237.81Z" fill="#F0F0F0"/>
<path d="M441.17 241.99H438.68V244.48H441.17V241.99Z" fill="#F0F0F0"/>
<path d="M441.17 246.17H438.68V248.66H441.17V246.17Z" fill="#F0F0F0"/>
<path d="M441.17 250.35H438.68V252.84H441.17V250.35Z" fill="#F0F0F0"/>
<path d="M441.17 254.53H438.68V257.02H441.17V254.53Z" fill="#F0F0F0"/>
<path d="M441.17 258.71H438.68V261.2H441.17V258.71Z" fill="#F0F0F0"/>
<path d="M441.17 262.89H438.68V265.38H441.17V262.89Z" fill="#F0F0F0"/>
<path d="M441.17 267.07H438.68V269.56H441.17V267.07Z" fill="#F0F0F0"/>
<path d="M441.17 271.25H438.68V273.74H441.17V271.25Z" fill="#F0F0F0"/>
<path d="M441.17 275.43H438.68V277.92H441.17V275.43Z" fill="#F0F0F0"/>
<path d="M441.17 279.6H438.68V282.09H441.17V279.6Z" fill="#F0F0F0"/>
<path d="M441.17 283.78H438.68V286.27H441.17V283.78Z" fill="#F0F0F0"/>
<path d="M441.17 287.96H438.68V290.45H441.17V287.96Z" fill="#F0F0F0"/>
<path d="M441.17 313.04H438.68V315.53H441.17V313.04Z" fill="#F0F0F0"/>
<path d="M441.17 317.21H438.68V319.7H441.17V317.21Z" fill="#F0F0F0"/>
<path d="M437.22 225.28H434.73V227.77H437.22V225.28Z" fill="#F0F0F0"/>
<path d="M437.22 229.46H434.73V231.95H437.22V229.46Z" fill="#F0F0F0"/>
<path d="M437.22 233.64H434.73V236.13H437.22V233.64Z" fill="#F0F0F0"/>
<path d="M437.22 237.81H434.73V240.3H437.22V237.81Z" fill="#F0F0F0"/>
<path d="M437.22 241.99H434.73V244.48H437.22V241.99Z" fill="#F0F0F0"/>
<path d="M437.22 246.17H434.73V248.66H437.22V246.17Z" fill="#F0F0F0"/>
<path d="M437.22 250.35H434.73V252.84H437.22V250.35Z" fill="#F0F0F0"/>
<path d="M437.22 254.53H434.73V257.02H437.22V254.53Z" fill="#F0F0F0"/>
<path d="M437.22 258.71H434.73V261.2H437.22V258.71Z" fill="#F0F0F0"/>
<path d="M437.22 262.89H434.73V265.38H437.22V262.89Z" fill="#F0F0F0"/>
<path d="M437.22 267.07H434.73V269.56H437.22V267.07Z" fill="#F0F0F0"/>
<path d="M437.22 271.25H434.73V273.74H437.22V271.25Z" fill="#F0F0F0"/>
<path d="M437.22 275.43H434.73V277.92H437.22V275.43Z" fill="#F0F0F0"/>
<path d="M437.22 279.6H434.73V282.09H437.22V279.6Z" fill="#F0F0F0"/>
<path d="M437.22 283.78H434.73V286.27H437.22V283.78Z" fill="#F0F0F0"/>
<path d="M437.22 287.96H434.73V290.45H437.22V287.96Z" fill="#F0F0F0"/>
<path d="M437.22 296.32H434.73V298.81H437.22V296.32Z" fill="#F0F0F0"/>
<path d="M437.22 300.5H434.73V302.99H437.22V300.5Z" fill="#F0F0F0"/>
<path d="M437.22 304.68H434.73V307.17H437.22V304.68Z" fill="#F0F0F0"/>
<path d="M437.22 308.86H434.73V311.35H437.22V308.86Z" fill="#F0F0F0"/>
<path d="M437.22 317.21H434.73V319.7H437.22V317.21Z" fill="#F0F0F0"/>
<path d="M368.15 254.53H365.66V257.02H368.15V254.53Z" fill="#F0F0F0"/>
<path d="M368.15 258.71H365.66V261.2H368.15V258.71Z" fill="#F0F0F0"/>
<path d="M368.15 262.89H365.66V265.38H368.15V262.89Z" fill="#F0F0F0"/>
<path d="M368.15 267.07H365.66V269.56H368.15V267.07Z" fill="#F0F0F0"/>
<path d="M368.15 271.25H365.66V273.74H368.15V271.25Z" fill="#F0F0F0"/>
<path d="M368.15 275.43H365.66V277.92H368.15V275.43Z" fill="#F0F0F0"/>
<path d="M368.15 279.6H365.66V282.09H368.15V279.6Z" fill="#F0F0F0"/>
<path d="M368.15 283.78H365.66V286.27H368.15V283.78Z" fill="#F0F0F0"/>
<path d="M368.15 287.96H365.66V290.45H368.15V287.96Z" fill="#F0F0F0"/>
<path d="M368.15 292.14H365.66V294.63H368.15V292.14Z" fill="#F0F0F0"/>
<path d="M368.15 296.32H365.66V298.81H368.15V296.32Z" fill="#F0F0F0"/>
<path d="M368.15 300.5H365.66V302.99H368.15V300.5Z" fill="#F0F0F0"/>
<path d="M368.15 304.68H365.66V307.17H368.15V304.68Z" fill="#F0F0F0"/>
<path d="M368.15 313.04H365.66V315.53H368.15V313.04Z" fill="#F0F0F0"/>
<path d="M368.15 317.21H365.66V319.7H368.15V317.21Z" fill="#F0F0F0"/>
<path d="M368.15 321.39H365.66V323.88H368.15V321.39Z" fill="#F0F0F0"/>
<path d="M368.15 325.57H365.66V328.06H368.15V325.57Z" fill="#F0F0F0"/>
<path d="M368.15 333.93H365.66V336.42H368.15V333.93Z" fill="#F0F0F0"/>
<path d="M368.15 338.11H365.66V340.6H368.15V338.11Z" fill="#F0F0F0"/>
<path d="M368.15 342.29H365.66V344.78H368.15V342.29Z" fill="#F0F0F0"/>
<path d="M364.19 254.53H361.7V257.02H364.19V254.53Z" fill="#F0F0F0"/>
<path d="M364.19 258.71H361.7V261.2H364.19V258.71Z" fill="#F0F0F0"/>
<path d="M364.19 262.89H361.7V265.38H364.19V262.89Z" fill="#F0F0F0"/>
<path d="M364.19 267.07H361.7V269.56H364.19V267.07Z" fill="#F0F0F0"/>
<path d="M364.19 271.25H361.7V273.74H364.19V271.25Z" fill="#F0F0F0"/>
<path d="M364.19 275.43H361.7V277.92H364.19V275.43Z" fill="#F0F0F0"/>
<path d="M364.19 279.6H361.7V282.09H364.19V279.6Z" fill="#F0F0F0"/>
<path d="M364.19 283.78H361.7V286.27H364.19V283.78Z" fill="#F0F0F0"/>
<path d="M364.19 287.96H361.7V290.45H364.19V287.96Z" fill="#F0F0F0"/>
<path d="M364.19 292.14H361.7V294.63H364.19V292.14Z" fill="#F0F0F0"/>
<path d="M364.19 296.32H361.7V298.81H364.19V296.32Z" fill="#F0F0F0"/>
<path d="M364.19 300.5H361.7V302.99H364.19V300.5Z" fill="#F0F0F0"/>
<path d="M364.19 304.68H361.7V307.17H364.19V304.68Z" fill="#F0F0F0"/>
<path d="M364.19 317.21H361.7V319.7H364.19V317.21Z" fill="#F0F0F0"/>
<path d="M364.19 321.39H361.7V323.88H364.19V321.39Z" fill="#F0F0F0"/>
<path d="M364.19 329.75H361.7V332.24H364.19V329.75Z" fill="#F0F0F0"/>
<path d="M364.19 333.93H361.7V336.42H364.19V333.93Z" fill="#F0F0F0"/>
<path d="M364.19 338.11H361.7V340.6H364.19V338.11Z" fill="#F0F0F0"/>
<path d="M364.19 342.29H361.7V344.78H364.19V342.29Z" fill="#F0F0F0"/>
<path d="M360.23 254.53H357.74V257.02H360.23V254.53Z" fill="#F0F0F0"/>
<path d="M360.23 258.71H357.74V261.2H360.23V258.71Z" fill="#F0F0F0"/>
<path d="M360.23 262.89H357.74V265.38H360.23V262.89Z" fill="#F0F0F0"/>
<path d="M360.23 267.07H357.74V269.56H360.23V267.07Z" fill="#F0F0F0"/>
<path d="M360.23 271.25H357.74V273.74H360.23V271.25Z" fill="#F0F0F0"/>
<path d="M360.23 275.43H357.74V277.92H360.23V275.43Z" fill="#F0F0F0"/>
<path d="M360.23 279.6H357.74V282.09H360.23V279.6Z" fill="#F0F0F0"/>
<path d="M360.23 283.78H357.74V286.27H360.23V283.78Z" fill="#F0F0F0"/>
<path d="M360.23 287.96H357.74V290.45H360.23V287.96Z" fill="#F0F0F0"/>
<path d="M360.23 292.14H357.74V294.63H360.23V292.14Z" fill="#F0F0F0"/>
<path d="M360.23 296.32H357.74V298.81H360.23V296.32Z" fill="#F0F0F0"/>
<path d="M360.23 300.5H357.74V302.99H360.23V300.5Z" fill="#F0F0F0"/>
<path d="M360.23 304.68H357.74V307.17H360.23V304.68Z" fill="#F0F0F0"/>
<path d="M360.23 308.86H357.74V311.35H360.23V308.86Z" fill="#F0F0F0"/>
<path d="M360.23 317.21H357.74V319.7H360.23V317.21Z" fill="#F0F0F0"/>
<path d="M360.23 325.57H357.74V328.06H360.23V325.57Z" fill="#F0F0F0"/>
<path d="M360.23 329.75H357.74V332.24H360.23V329.75Z" fill="#F0F0F0"/>
<path d="M360.23 333.93H357.74V336.42H360.23V333.93Z" fill="#F0F0F0"/>
<path d="M360.23 338.11H357.74V340.6H360.23V338.11Z" fill="#F0F0F0"/>
<path d="M360.23 342.29H357.74V344.78H360.23V342.29Z" fill="#F0F0F0"/>
<path d="M384.28 278.36H381.79V280.85H384.28V278.36Z" fill="#F0F0F0"/>
<path d="M384.28 282.54H381.79V285.03H384.28V282.54Z" fill="#F0F0F0"/>
<path d="M384.28 286.72H381.79V289.21H384.28V286.72Z" fill="#F0F0F0"/>
<path d="M384.28 290.89H381.79V293.38H384.28V290.89Z" fill="#F0F0F0"/>
<path d="M384.28 295.07H381.79V297.56H384.28V295.07Z" fill="#F0F0F0"/>
<path d="M384.28 299.25H381.79V301.74H384.28V299.25Z" fill="#F0F0F0"/>
<path d="M384.28 311.79H381.79V314.28H384.28V311.79Z" fill="#F0F0F0"/>
<path d="M384.28 315.97H381.79V318.46H384.28V315.97Z" fill="#F0F0F0"/>
<path d="M384.28 320.15H381.79V322.64H384.28V320.15Z" fill="#F0F0F0"/>
<path d="M384.28 324.33H381.79V326.82H384.28V324.33Z" fill="#F0F0F0"/>
<path d="M384.28 328.51H381.79V331H384.28V328.51Z" fill="#F0F0F0"/>
<path d="M384.28 332.68H381.79V335.17H384.28V332.68Z" fill="#F0F0F0"/>
<path d="M384.28 336.86H381.79V339.35H384.28V336.86Z" fill="#F0F0F0"/>
<path d="M380.32 278.36H377.83V280.85H380.32V278.36Z" fill="#F0F0F0"/>
<path d="M380.32 282.54H377.83V285.03H380.32V282.54Z" fill="#F0F0F0"/>
<path d="M380.32 286.72H377.83V289.21H380.32V286.72Z" fill="#F0F0F0"/>
<path d="M380.32 290.89H377.83V293.38H380.32V290.89Z" fill="#F0F0F0"/>
<path d="M380.32 295.07H377.83V297.56H380.32V295.07Z" fill="#F0F0F0"/>
<path d="M380.32 299.25H377.83V301.74H380.32V299.25Z" fill="#F0F0F0"/>
<path d="M380.32 311.79H377.83V314.28H380.32V311.79Z" fill="#F0F0F0"/>
<path d="M380.32 315.97H377.83V318.46H380.32V315.97Z" fill="#F0F0F0"/>
<path d="M380.32 320.15H377.83V322.64H380.32V320.15Z" fill="#F0F0F0"/>
<path d="M380.32 324.33H377.83V326.82H380.32V324.33Z" fill="#F0F0F0"/>
<path d="M380.32 328.51H377.83V331H380.32V328.51Z" fill="#F0F0F0"/>
<path d="M380.32 332.68H377.83V335.17H380.32V332.68Z" fill="#F0F0F0"/>
<path d="M380.32 341.04H377.83V343.53H380.32V341.04Z" fill="#F0F0F0"/>
<path d="M248.79 259.96H246.3V262.45H248.79V259.96Z" fill="#F0F0F0"/>
<path d="M248.79 264.13H246.3V266.62H248.79V264.13Z" fill="#F0F0F0"/>
<path d="M248.79 268.31H246.3V270.8H248.79V268.31Z" fill="#F0F0F0"/>
<path d="M248.79 272.49H246.3V274.98H248.79V272.49Z" fill="#F0F0F0"/>
<path d="M248.79 276.67H246.3V279.16H248.79V276.67Z" fill="#F0F0F0"/>
<path d="M248.79 280.85H246.3V283.34H248.79V280.85Z" fill="#F0F0F0"/>
<path d="M248.79 285.03H246.3V287.52H248.79V285.03Z" fill="#F0F0F0"/>
<path d="M248.79 289.21H246.3V291.7H248.79V289.21Z" fill="#F0F0F0"/>
<path d="M248.79 293.39H246.3V295.88H248.79V293.39Z" fill="#F0F0F0"/>
<path d="M248.79 297.57H246.3V300.06H248.79V297.57Z" fill="#F0F0F0"/>
<path d="M248.79 301.75H246.3V304.24H248.79V301.75Z" fill="#F0F0F0"/>
<path d="M248.79 310.1H246.3V312.59H248.79V310.1Z" fill="#F0F0F0"/>
<path d="M248.79 314.28H246.3V316.77H248.79V314.28Z" fill="#F0F0F0"/>
<path d="M248.79 318.46H246.3V320.95H248.79V318.46Z" fill="#F0F0F0"/>
<path d="M248.79 322.64H246.3V325.13H248.79V322.64Z" fill="#F0F0F0"/>
<path d="M248.79 326.82H246.3V329.31H248.79V326.82Z" fill="#F0F0F0"/>
<path d="M248.79 331H246.3V333.49H248.79V331Z" fill="#F0F0F0"/>
<path d="M248.79 335.18H246.3V337.67H248.79V335.18Z" fill="#F0F0F0"/>
<path d="M248.79 339.36H246.3V341.85H248.79V339.36Z" fill="#F0F0F0"/>
<path d="M244.84 259.96H242.35V262.45H244.84V259.96Z" fill="#F0F0F0"/>
<path d="M244.84 264.13H242.35V266.62H244.84V264.13Z" fill="#F0F0F0"/>
<path d="M244.84 268.31H242.35V270.8H244.84V268.31Z" fill="#F0F0F0"/>
<path d="M244.84 272.49H242.35V274.98H244.84V272.49Z" fill="#F0F0F0"/>
<path d="M244.84 276.67H242.35V279.16H244.84V276.67Z" fill="#F0F0F0"/>
<path d="M244.84 280.85H242.35V283.34H244.84V280.85Z" fill="#F0F0F0"/>
<path d="M244.84 285.03H242.35V287.52H244.84V285.03Z" fill="#F0F0F0"/>
<path d="M244.84 289.21H242.35V291.7H244.84V289.21Z" fill="#F0F0F0"/>
<path d="M244.84 293.39H242.35V295.88H244.84V293.39Z" fill="#F0F0F0"/>
<path d="M244.84 297.57H242.35V300.06H244.84V297.57Z" fill="#F0F0F0"/>
<path d="M244.84 301.75H242.35V304.24H244.84V301.75Z" fill="#F0F0F0"/>
<path d="M244.84 305.92H242.35V308.41H244.84V305.92Z" fill="#F0F0F0"/>
<path d="M244.84 310.1H242.35V312.59H244.84V310.1Z" fill="#F0F0F0"/>
<path d="M244.84 314.28H242.35V316.77H244.84V314.28Z" fill="#F0F0F0"/>
<path d="M244.84 318.46H242.35V320.95H244.84V318.46Z" fill="#F0F0F0"/>
<path d="M244.84 322.64H242.35V325.13H244.84V322.64Z" fill="#F0F0F0"/>
<path d="M244.84 326.82H242.35V329.31H244.84V326.82Z" fill="#F0F0F0"/>
<path d="M244.84 331H242.35V333.49H244.84V331Z" fill="#F0F0F0"/>
<path d="M244.84 335.18H242.35V337.67H244.84V335.18Z" fill="#F0F0F0"/>
<path d="M244.84 339.36H242.35V341.85H244.84V339.36Z" fill="#F0F0F0"/>
<path d="M268.3 276.23H265.81V278.72H268.3V276.23Z" fill="#F0F0F0"/>
<path d="M268.3 280.41H265.81V282.9H268.3V280.41Z" fill="#F0F0F0"/>
<path d="M268.3 284.59H265.81V287.08H268.3V284.59Z" fill="#F0F0F0"/>
<path d="M268.3 288.77H265.81V291.26H268.3V288.77Z" fill="#F0F0F0"/>
<path d="M268.3 292.95H265.81V295.44H268.3V292.95Z" fill="#F0F0F0"/>
<path d="M268.3 297.13H265.81V299.62H268.3V297.13Z" fill="#F0F0F0"/>
<path d="M268.3 301.31H265.81V303.8H268.3V301.31Z" fill="#F0F0F0"/>
<path d="M268.3 305.48H265.81V307.97H268.3V305.48Z" fill="#F0F0F0"/>
<path d="M268.3 309.66H265.81V312.15H268.3V309.66Z" fill="#F0F0F0"/>
<path d="M268.3 313.84H265.81V316.33H268.3V313.84Z" fill="#F0F0F0"/>
<path d="M264.34 276.23H261.85V278.72H264.34V276.23Z" fill="#F0F0F0"/>
<path d="M264.34 280.41H261.85V282.9H264.34V280.41Z" fill="#F0F0F0"/>
<path d="M264.34 284.59H261.85V287.08H264.34V284.59Z" fill="#F0F0F0"/>
<path d="M264.34 288.77H261.85V291.26H264.34V288.77Z" fill="#F0F0F0"/>
<path d="M264.34 292.95H261.85V295.44H264.34V292.95Z" fill="#F0F0F0"/>
<path d="M264.34 297.13H261.85V299.62H264.34V297.13Z" fill="#F0F0F0"/>
<path d="M264.34 301.31H261.85V303.8H264.34V301.31Z" fill="#F0F0F0"/>
<path d="M264.34 305.48H261.85V307.97H264.34V305.48Z" fill="#F0F0F0"/>
<path d="M264.34 309.66H261.85V312.15H264.34V309.66Z" fill="#F0F0F0"/>
<path d="M287.89 117.64H283.71V350.72H287.89V117.64Z" fill="#E0E0E0"/>
<path d="M366.6 117.64H362.42V350.72H366.6V117.64Z" fill="#E0E0E0"/>
<path d="M445.3 117.64H441.12V350.72H445.3V117.64Z" fill="#E0E0E0"/>
<path d="M147.82 328H173.6C174.77 328 175.891 328.465 176.718 329.292C177.545 330.119 178.01 331.24 178.01 332.41V382.24H143.42V332.45C143.415 331.868 143.525 331.291 143.743 330.752C143.962 330.213 144.285 329.723 144.694 329.309C145.103 328.896 145.59 328.567 146.126 328.342C146.663 328.118 147.238 328.001 147.82 328Z" fill="#F0F0F0"/>
<path d="M178.01 335.38H143.42V339.27H178.01V335.38Z" fill="#E6E6E6"/>
<path d="M163.09 375.71H171.71C172.339 375.71 172.941 375.96 173.386 376.404C173.83 376.849 174.08 377.451 174.08 378.08V382.28H160.71V378.08C160.71 377.768 160.772 377.459 160.891 377.171C161.011 376.883 161.187 376.621 161.408 376.401C161.629 376.18 161.891 376.006 162.18 375.888C162.469 375.769 162.778 375.709 163.09 375.71Z" fill="#E0E0E0"/>
<path d="M174.12 382.28H164.54C164.132 382.28 163.74 382.118 163.451 381.829C163.162 381.54 163 381.148 163 380.74C163.003 380.333 163.166 379.944 163.455 379.657C163.743 379.371 164.133 379.21 164.54 379.21H174.12C174.527 379.21 174.917 379.371 175.205 379.657C175.494 379.944 175.657 380.333 175.66 380.74C175.66 381.148 175.498 381.54 175.209 381.829C174.92 382.118 174.528 382.28 174.12 382.28Z" fill="#E6E6E6"/>
<path d="M327.714 106.705C340.372 103.717 348.212 91.0332 345.224 78.3747C342.237 65.7162 329.553 57.8765 316.895 60.8641C304.236 63.8518 296.396 76.5355 299.384 89.1941C302.372 101.853 315.055 109.692 327.714 106.705Z" fill="#E0E0E0"/>
<path d="M325.507 103.528C336.427 101.756 343.842 91.467 342.069 80.5476C340.297 69.6283 330.008 62.2133 319.089 63.9857C308.169 65.7582 300.754 76.0469 302.527 86.9663C304.299 97.8856 314.588 105.301 325.507 103.528Z" fill="#F0F0F0"/>
<path d="M323.25 70.03V84.03L332.52 78.78" fill="#F0F0F0"/>
<path d="M323.25 85C323.071 84.9999 322.894 84.9516 322.74 84.86C322.591 84.7715 322.467 84.6457 322.381 84.4949C322.295 84.3441 322.25 84.1735 322.25 84V70C322.25 69.7348 322.355 69.4804 322.543 69.2929C322.73 69.1054 322.985 69 323.25 69C323.515 69 323.77 69.1054 323.957 69.2929C324.145 69.4804 324.25 69.7348 324.25 70V82.31L332.03 77.91C332.261 77.7805 332.534 77.7477 332.789 77.8189C333.043 77.8902 333.26 78.0596 333.39 78.29C333.52 78.5196 333.555 78.7915 333.485 79.0463C333.416 79.3011 333.249 79.5181 333.02 79.65L323.74 84.9C323.587 84.9709 323.419 85.0051 323.25 85Z" fill="#E0E0E0"/>
<path d="M96.93 313.64C95.13 310.64 92.17 313.25 92.17 313.25C92.59 307.57 87.37 303.69 87.37 303.69C87.37 303.69 93.44 303.69 94.28 297.9C95.12 292.11 92.17 294.8 89.39 294.76C86.61 294.72 83.7 302.84 87.39 307.41C91.08 311.98 90.07 319.78 81.6 327.28C79.5745 329.176 78.0551 331.548 77.18 334.18C77.82 327.29 78.18 317.58 76.18 311.1C72.74 300.1 79.3 297.1 81.18 291.62C83.06 286.14 76.18 281.46 76.18 281.46C76.18 281.46 82.69 278.46 79.51 275.11C76.33 271.76 69.77 272.18 69.77 276.61C69.77 281.04 74.22 282.73 74.22 282.73C74.22 282.73 79.3 288.02 79.3 290.73C79.3 293.44 74.22 299.41 74.22 299.41C74.22 299.41 76.55 294.34 71.89 294.13C67.23 293.92 65.75 300.05 67.66 302.8C69.57 305.55 72.74 303.23 72.74 303.23C72.9388 306.44 73.4241 309.626 74.19 312.75C74.67 314.34 74.45 320.55 74.05 327.01C73.1657 324.678 71.7519 322.583 69.92 320.89C61.45 313.39 60.47 305.59 64.14 301.02C67.81 296.45 64.9 288.33 62.14 288.37C59.38 288.41 56.39 285.71 57.24 291.5C58.09 297.29 64.16 297.3 64.16 297.3C64.16 297.3 58.93 301.18 59.35 306.86C59.35 306.86 56.35 304.28 54.59 307.25C51.38 312.54 58.83 315.82 60.08 313.25C60.08 313.25 75.87 324.43 72.08 340.52L72.96 341.83C72.85 343.13 72.78 343.91 72.78 343.91L74.01 343.38L75.42 345.45C75.3707 347.789 75.491 350.128 75.78 352.45L79.55 346.87C75.74 330.78 91.55 319.6 91.55 319.6C92.7 322.22 100.14 318.93 96.93 313.64Z" fill="#E0E0E0"/>
<path opacity="0.2" d="M96.93 313.64C95.13 310.64 92.17 313.25 92.17 313.25C92.59 307.57 87.37 303.69 87.37 303.69C87.37 303.69 93.44 303.69 94.28 297.9C95.12 292.11 92.17 294.8 89.39 294.76C86.61 294.72 83.7 302.84 87.39 307.41C91.08 311.98 90.07 319.78 81.6 327.28C79.5745 329.176 78.0551 331.548 77.18 334.18C77.82 327.29 78.18 317.58 76.18 311.1C72.74 300.1 79.3 297.1 81.18 291.62C83.06 286.14 76.18 281.46 76.18 281.46C76.18 281.46 82.69 278.46 79.51 275.11C76.33 271.76 69.77 272.18 69.77 276.61C69.77 281.04 74.22 282.73 74.22 282.73C74.22 282.73 79.3 288.02 79.3 290.73C79.3 293.44 74.22 299.41 74.22 299.41C74.22 299.41 76.55 294.34 71.89 294.13C67.23 293.92 65.75 300.05 67.66 302.8C69.57 305.55 72.74 303.23 72.74 303.23C72.9388 306.44 73.4241 309.626 74.19 312.75C74.67 314.34 74.45 320.55 74.05 327.01C73.1657 324.678 71.7519 322.583 69.92 320.89C61.45 313.39 60.47 305.59 64.14 301.02C67.81 296.45 64.9 288.33 62.14 288.37C59.38 288.41 56.39 285.71 57.24 291.5C58.09 297.29 64.16 297.3 64.16 297.3C64.16 297.3 58.93 301.18 59.35 306.86C59.35 306.86 56.35 304.28 54.59 307.25C51.38 312.54 58.83 315.82 60.08 313.25C60.08 313.25 75.87 324.43 72.08 340.52L72.96 341.83C72.85 343.13 72.78 343.91 72.78 343.91L74.01 343.38L75.42 345.45C75.3707 347.789 75.491 350.128 75.78 352.45L79.55 346.87C75.74 330.78 91.55 319.6 91.55 319.6C92.7 322.22 100.14 318.93 96.93 313.64Z" fill="#E0E0E0"/>
<path d="M93.84 382.28H57.67L53.77 342.68H97.75L93.84 382.28Z" fill="#E6E6E6"/>
<path d="M99.67 338.31H51.83V347.05H99.67V338.31Z" fill="#F0F0F0"/>
<path d="M250 427.56C357.082 427.56 443.89 422.492 443.89 416.24C443.89 409.988 357.082 404.92 250 404.92C142.917 404.92 56.11 409.988 56.11 416.24C56.11 422.492 142.917 427.56 250 427.56Z" fill="#F5F5F5"/>
<path d="M410.45 384.72C410.6 383.72 414.1 359.55 407.09 351.21C406.392 350.331 405.509 349.618 404.502 349.122C403.496 348.625 402.392 348.358 401.27 348.34C387.11 348.01 385.18 359.34 385.16 359.49L386.83 359.75C386.89 359.34 388.57 349.75 401.23 350.03C402.112 350.042 402.98 350.252 403.771 350.643C404.561 351.034 405.255 351.597 405.8 352.29C412.32 360.06 408.8 384.22 408.8 384.47L410.45 384.72Z" fill="#00A000"/>
<path d="M411.3 383.62L412.99 383.56C412.99 383.34 412.43 361.31 423.28 356.76C433.92 352.31 438.71 361.47 438.9 361.86L440.41 361.1C440.36 360.99 434.74 350.1 422.63 355.21C410.71 360.2 411.27 382.66 411.3 383.62Z" fill="#00A000"/>
<path d="M411.25 385.35C411.25 385 411.36 350.16 418.15 339.97C424.67 330.18 435.15 334.79 435.64 334.97L436.33 333.43C436.21 333.38 424.07 328.02 416.74 339.01C409.67 349.62 409.57 383.87 409.57 385.33L411.25 385.35Z" fill="#00A000"/>
<path d="M399.24 349.18C399.24 349.18 405.42 351.46 403.58 356.83C401.74 362.2 382.21 371.06 382.21 371.06C382.21 371.06 374.02 363.56 381.54 351.36C389.06 339.16 399.07 345.33 399.24 349.18Z" fill="#00A000"/>
<path d="M418.45 338.13C418.45 338.13 414.07 337.66 414.45 334.99C414.83 332.32 431.51 325.44 441.36 336.56C441.36 336.56 435.05 347.4 425.93 347.56C416.81 347.72 418.45 338.13 418.45 338.13Z" fill="#00A000"/>
<path d="M423 356C423 356 420 353.56 423.24 352.37C426.48 351.18 442.54 351.51 442.7 367.37C442.7 367.37 424.03 370.48 421.7 364.43C419.37 358.38 423 356 423 356Z" fill="#00A000"/>
<path opacity="0.2" d="M399.24 349.18C399.24 349.18 405.42 351.46 403.58 356.83C401.74 362.2 382.21 371.06 382.21 371.06C382.21 371.06 374.02 363.56 381.54 351.36C389.06 339.16 399.07 345.33 399.24 349.18Z" fill="black"/>
<path opacity="0.2" d="M418.45 338.13C418.45 338.13 414.07 337.66 414.45 334.99C414.83 332.32 431.51 325.44 441.36 336.56C441.36 336.56 435.05 347.4 425.93 347.56C416.81 347.72 418.45 338.13 418.45 338.13Z" fill="black"/>
<path opacity="0.2" d="M423 356C423 356 420 353.56 423.24 352.37C426.48 351.18 442.54 351.51 442.7 367.37C442.7 367.37 424.03 370.48 421.7 364.43C419.37 358.38 423 356 423 356Z" fill="black"/>
<path d="M395.92 417.07H424.9L428.02 385.35H392.8L395.92 417.07Z" fill="#00A000"/>
<path opacity="0.5" d="M395.92 417.07H424.9L428.02 385.35H392.8L395.92 417.07Z" fill="white"/>
<path d="M391.25 388.84H429.57V381.84H391.25V388.84Z" fill="#00A000"/>
<path opacity="0.2" d="M391.25 388.84H429.57V381.84H391.25V388.84Z" fill="white"/>
<path d="M363.12 394.33L334.31 391.5V351H322.89V391.48L294 394.33C292.615 394.466 291.329 395.113 290.394 396.144C289.459 397.176 288.941 398.518 288.94 399.91V404.24H368.22V399.91C368.221 398.511 367.697 397.162 366.754 396.13C365.81 395.097 364.513 394.455 363.12 394.33Z" fill="#263238"/>
<path opacity="0.2" d="M363.12 394.33L334.31 391.5V351H322.89V391.48L294 394.33C292.615 394.466 291.329 395.113 290.394 396.144C289.459 397.176 288.941 398.518 288.94 399.91V404.24H368.22V399.91C368.221 398.511 367.697 397.162 366.754 396.13C365.81 395.097 364.513 394.455 363.12 394.33Z" fill="white"/>
<path d="M291.95 417.08C296.076 417.08 299.42 413.736 299.42 409.61C299.42 405.484 296.076 402.14 291.95 402.14C287.824 402.14 284.48 405.484 284.48 409.61C284.48 413.736 287.824 417.08 291.95 417.08Z" fill="#263238"/>
<path d="M365.14 417.08C369.266 417.08 372.61 413.736 372.61 409.61C372.61 405.484 369.266 402.14 365.14 402.14C361.014 402.14 357.67 405.484 357.67 409.61C357.67 413.736 361.014 417.08 365.14 417.08Z" fill="#263238"/>
<path d="M320.93 323.64H336.28V355.57C336.28 356.665 335.845 357.716 335.07 358.49C334.296 359.265 333.245 359.7 332.15 359.7H325.06C323.965 359.7 322.914 359.265 322.14 358.49C321.365 357.716 320.93 356.665 320.93 355.57V323.64Z" fill="#263238"/>
<path opacity="0.3" d="M320.93 323.64H336.28V355.57C336.28 356.665 335.845 357.716 335.07 358.49C334.296 359.265 333.245 359.7 332.15 359.7H325.06C323.965 359.7 322.914 359.265 322.14 358.49C321.365 357.716 320.93 356.665 320.93 355.57V323.64Z" fill="white"/>
<path d="M355.9 260.35C355.9 260.35 358.08 314.35 343.04 323.64H360.21C360.21 323.64 373.51 305.25 369.75 260.35H355.9Z" fill="#263238"/>
<path opacity="0.3" d="M355.9 260.35C355.9 260.35 358.08 314.35 343.04 323.64H360.21C360.21 323.64 373.51 305.25 369.75 260.35H355.9Z" fill="white"/>
<path d="M366.05 327.78H289.13V321.09C289.13 319.764 289.657 318.492 290.594 317.555C291.532 316.617 292.804 316.09 294.13 316.09H361.05C362.376 316.09 363.648 316.617 364.586 317.555C365.523 318.492 366.05 319.764 366.05 321.09V327.78Z" fill="#263238"/>
<path d="M287.93 327.78H367.24C368.35 327.78 369.25 326.88 369.25 325.77V323.95C369.25 322.84 368.35 321.94 367.24 321.94H287.93C286.82 321.94 285.92 322.84 285.92 323.95V325.77C285.92 326.88 286.82 327.78 287.93 327.78Z" fill="#263238"/>
<path opacity="0.6" d="M287.93 327.78H367.24C368.35 327.78 369.25 326.88 369.25 325.77V323.95C369.25 322.84 368.35 321.94 367.24 321.94H287.93C286.82 321.94 285.92 322.84 285.92 323.95V325.77C285.92 326.88 286.82 327.78 287.93 327.78Z" fill="white"/>
<path d="M373.96 231.4H346.46C338.408 231.4 331.88 237.928 331.88 245.98V256.74C331.88 264.792 338.408 271.32 346.46 271.32H373.96C382.012 271.32 388.54 264.792 388.54 256.74V245.98C388.54 237.928 382.012 231.4 373.96 231.4Z" fill="#263238"/>
<path d="M263.05 187.28L257.56 172.81C257.56 172.81 259.92 170.63 258.3 168.42C256.68 166.21 246.56 160 244.72 161.09C242.88 162.18 238.77 166.3 240.99 168.59C243.21 170.88 252.99 174.69 252.99 174.69L257.85 193.69L263.05 187.28Z" fill="#E4897B"/>
<path d="M301.38 214.79C301.38 214.79 276.38 209.66 273.71 208.43C271.04 207.2 261 177.77 261 177.77L253.29 181.37C253.29 181.37 259.49 210.91 265.83 217.93C272.17 224.95 299.23 230.93 299.23 230.93L301.38 214.79Z" fill="#00A000"/>
<path opacity="0.2" d="M299.17 230.9L298.71 230.79C297.35 230.48 293.08 229.48 288.01 227.99C279.78 225.6 269.4 221.99 265.78 217.94C259.45 210.94 253.24 181.37 253.24 181.37L260.94 177.77C260.94 177.77 270.99 207.21 273.71 208.43C276.43 209.65 301.38 214.79 301.38 214.79L299.17 230.9Z" fill="black"/>
<path d="M261.07 177.19L262.66 180.26L252.76 183.67L253.14 179.92L261.07 177.19Z" fill="#00A000"/>
<path opacity="0.2" d="M299.36 230.49C297.98 230.29 293.65 229.62 288.47 228.49C291.42 223.39 300.06 220.77 300.06 220.77L299.36 230.49Z" fill="black"/>
<path d="M336.58 194.41C336.58 194.41 338.05 208.24 332.93 211.64C327.81 215.04 302.6 211.06 299.74 205.49C296.88 199.92 307.64 184.82 307.64 184.82L336.58 194.41Z" fill="#263238"/>
<path d="M234.59 376.39L241.17 377.98L244.5 368.9L247.52 360.64L240.03 357.45L237.15 367.47L234.59 376.39Z" fill="#E4897B"/>
<path opacity="0.2" d="M237.15 367.47L244.5 368.9L247.52 360.64L240.03 357.45L237.15 367.47Z" fill="black"/>
<path d="M237.81 362.68L246.93 366.07C246.93 366.07 271.26 305.24 276.26 305.07C281.26 304.9 332.17 328.26 344.93 315.28C357.69 302.3 339.24 271 339.24 271C339.24 271 308.55 266.62 306.24 273.55C305.671 275.593 305.237 277.67 304.94 279.77C304.59 281.89 304.35 283.67 304.35 283.67C303.4 283.43 272.59 275.48 260.45 283.67C248.1 292 237.81 362.68 237.81 362.68Z" fill="#00A000"/>
<path opacity="0.6" d="M237.81 362.68L246.93 366.07C246.93 366.07 271.26 305.24 276.26 305.07C281.26 304.9 332.17 328.26 344.93 315.28C357.69 302.3 339.24 271 339.24 271C339.24 271 308.55 266.62 306.24 273.55C305.671 275.593 305.237 277.67 304.94 279.77C304.59 281.89 304.35 283.67 304.35 283.67C303.4 283.43 272.59 275.48 260.45 283.67C248.1 292 237.81 362.68 237.81 362.68Z" fill="white"/>
<path d="M290.27 402.34L296.82 400.67L295.56 391.26L294.39 382.64L286.29 383.37L288.39 393.42L290.27 402.34Z" fill="#E4897B"/>
<path opacity="0.2" d="M288.44 393.62L295.6 391.44L294.41 382.73L286.3 383.42L288.44 393.62Z" fill="black"/>
<path d="M250.7 362.69L237.41 358.18L236.84 363.62L246.92 367.18L250.7 362.69Z" fill="#00A000"/>
<path d="M322.89 318.36C322.89 318.36 320.81 318.41 288.62 316.91C288.62 316.91 293.43 357.15 296.06 387.28L286.43 388.92C286.43 388.92 263.43 324.41 263.68 314.16C263.93 303.91 275.68 300.91 275.68 300.91C275.68 300.91 298.61 314.16 322.89 318.36Z" fill="#00A000"/>
<path opacity="0.6" d="M322.89 318.36C322.89 318.36 320.81 318.41 288.62 316.91C288.62 316.91 293.43 357.15 296.06 387.28L286.43 388.92C286.43 388.92 263.43 324.41 263.68 314.16C263.93 303.91 275.68 300.91 275.68 300.91C275.68 300.91 298.61 314.16 322.89 318.36Z" fill="white"/>
<path opacity="0.1" d="M322.89 318.36C322.89 318.36 320.81 318.41 288.62 316.91C288.62 316.91 293.43 357.15 296.06 387.28L286.43 388.92C286.43 388.92 263.43 324.41 263.68 314.16C263.93 303.91 275.68 300.91 275.68 300.91C275.68 300.91 298.61 314.16 322.89 318.36Z" fill="black"/>
<path d="M297.46 384.36L284.23 385.87L286.79 391.05L297.5 389.68L297.46 384.36Z" fill="#00A000"/>
<path opacity="0.1" d="M304.35 283.67L322.3 287.41C322.3 287.41 312.38 281.93 304.94 279.77C304.59 281.89 304.35 283.67 304.35 283.67Z" fill="black"/>
<path d="M338.5 266.23L339.24 271L306.24 273.55L305.37 267.9L338.5 266.23Z" fill="#263238"/>
<path opacity="0.2" d="M338.5 266.23L339.24 271L306.24 273.55L305.37 267.9L338.5 266.23Z" fill="black"/>
<path d="M328.092 274.222L329.723 274.054L328.869 265.748L327.238 265.916L328.092 274.222Z" fill="#00A000"/>
<path d="M313.431 273.392L320.656 272.927L320.304 267.449L313.079 267.914L313.431 273.392Z" fill="white"/>
<path d="M307.845 275.094L309.476 274.927L308.622 266.621L306.991 266.788L307.845 275.094Z" fill="#00A000"/>
<path opacity="0.6" d="M328.092 274.222L329.723 274.054L328.869 265.748L327.238 265.916L328.092 274.222Z" fill="white"/>
<path opacity="0.6" d="M307.845 275.094L309.476 274.927L308.622 266.621L306.991 266.788L307.845 275.094Z" fill="white"/>
<path d="M300.78 214.34C306.961 216.047 313.376 216.753 319.78 216.43C330.38 215.89 343 221 343 221L338.46 266.2L305.32 267.87C305.32 267.87 294.23 230.16 300.78 214.34Z" fill="#00A000"/>
<path d="M306.11 188.81C306.11 188.81 307.97 166.87 326.31 174.81C349.31 184.81 331.03 211.55 319.78 206.07C308.53 200.59 306.11 188.81 306.11 188.81Z" fill="#263238"/>
<path opacity="0.2" d="M311.25 217.66L311.78 230.06L315.89 224.23C315.89 224.23 314.42 237.94 315.28 245.41C315.28 245.41 316.07 232.02 317.93 224.23L322.3 230.06L328.57 217.74C328.57 217.74 318.42 214.09 311.25 217.66Z" fill="black"/>
<path d="M316.93 220L326.42 217.32C320.57 213.32 323.52 204.32 323.52 204.32L314.12 207.62C314.552 208.927 314.887 210.264 315.12 211.62C316.12 217.48 313.46 217.95 313.46 217.95L316.93 220Z" fill="#E4897B"/>
<path opacity="0.2" d="M314.12 207.57C314.552 208.877 314.887 210.214 315.12 211.57C319.62 209.76 323.51 204.25 323.51 204.25L314.12 207.57Z" fill="black"/>
<path d="M320.26 179.45C311.93 177.61 308.26 181.45 305.76 189.91C302.63 200.46 303.32 208.6 314.23 208.62C329.05 208.64 334.08 182.51 320.26 179.45Z" fill="#E4897B"/>
<path d="M311.24 190.64C310.302 191.736 309.234 192.713 308.06 193.55C308.228 193.95 308.504 194.296 308.857 194.549C309.21 194.801 309.627 194.951 310.06 194.98L311.24 190.64Z" fill="#DE5753"/>
<path d="M316.49 191.08C316.32 191.76 316.55 192.41 317.01 192.52C317.47 192.63 317.96 192.17 318.13 191.52C318.3 190.87 318.07 190.2 317.61 190.08C317.15 189.96 316.66 190.4 316.49 191.08Z" fill="#263238"/>
<path d="M317.79 190.13L316.46 189.19C316.46 189.19 316.89 190.62 317.79 190.13Z" fill="#263238"/>
<path d="M308.07 188.86C307.9 189.54 308.13 190.19 308.59 190.3C309.05 190.41 309.59 189.95 309.71 189.3C309.83 188.65 309.65 187.98 309.19 187.86C308.73 187.74 308.24 188.18 308.07 188.86Z" fill="#263238"/>
<path d="M309.37 187.91L308 187C308 187 308.47 188.39 309.37 187.91Z" fill="#263238"/>
<path d="M321.18 187.77C321.113 187.771 321.047 187.754 320.989 187.721C320.931 187.687 320.883 187.639 320.85 187.58C320.521 187.066 320.08 186.632 319.561 186.31C319.042 185.988 318.457 185.786 317.85 185.72C317.755 185.708 317.667 185.659 317.606 185.585C317.545 185.511 317.514 185.416 317.52 185.32C317.53 185.224 317.578 185.135 317.653 185.073C317.727 185.012 317.823 184.982 317.92 184.99C318.657 185.061 319.368 185.302 319.996 185.695C320.624 186.087 321.152 186.619 321.54 187.25C321.562 187.293 321.576 187.339 321.58 187.387C321.584 187.435 321.578 187.483 321.563 187.529C321.548 187.574 321.524 187.617 321.493 187.653C321.462 187.689 321.423 187.719 321.38 187.74C321.316 187.765 321.248 187.775 321.18 187.77Z" fill="#263238"/>
<path d="M311.87 184C311.802 183.999 311.736 183.978 311.68 183.94C311.188 183.704 310.65 183.582 310.105 183.582C309.56 183.582 309.022 183.704 308.53 183.94C308.487 183.958 308.44 183.967 308.394 183.966C308.347 183.966 308.301 183.956 308.258 183.937C308.215 183.918 308.176 183.891 308.144 183.858C308.112 183.824 308.087 183.784 308.07 183.74C308.052 183.696 308.043 183.649 308.043 183.601C308.044 183.554 308.054 183.507 308.072 183.463C308.091 183.42 308.118 183.38 308.152 183.347C308.186 183.314 308.226 183.288 308.27 183.27C308.867 182.992 309.521 182.855 310.179 182.869C310.838 182.882 311.485 183.047 312.07 183.35C312.11 183.375 312.145 183.409 312.172 183.448C312.2 183.487 312.219 183.531 312.229 183.577C312.24 183.624 312.241 183.672 312.232 183.718C312.224 183.765 312.206 183.81 312.18 183.85C312.144 183.898 312.098 183.937 312.044 183.963C311.99 183.989 311.93 184.002 311.87 184Z" fill="#263238"/>
<path d="M326.25 195.49C326.25 195.49 323.87 187.79 325.63 182.64C325.63 182.64 310.63 172.25 306.11 188.81C306.11 188.81 307.78 173.59 322.17 176.43C336.56 179.27 331.85 200.18 323.08 204.78C323.08 204.78 327.71 200.3 326.25 195.49Z" fill="#263238"/>
<path d="M324.5 197C324.793 196.054 325.449 195.262 326.324 194.799C327.2 194.336 328.223 194.239 329.17 194.53C331.69 195.38 331.74 200.95 325.05 200.8C324.08 200.73 323.76 199.72 324.5 197Z" fill="#E4897B"/>
<path d="M308.55 198.14C308.773 199.161 308.92 200.197 308.99 201.24H309.53C312.02 201.45 313.24 200.72 313.84 199.86C314.127 199.433 314.305 198.942 314.36 198.43C314.402 198.142 314.402 197.848 314.36 197.56C312.755 198.113 311.05 198.314 309.36 198.15C308.88 198.18 308.55 198.14 308.55 198.14Z" fill="#263238"/>
<path d="M309.4 198.2L309.55 199.11C311.89 199.3 313.55 199.11 314.36 198.48C314.402 198.192 314.402 197.898 314.36 197.61C312.767 198.157 311.076 198.358 309.4 198.2Z" fill="white"/>
<path d="M309.53 201.29C312.02 201.5 313.24 200.77 313.84 199.91C312.896 199.848 311.948 199.953 311.04 200.22C310.436 200.409 309.908 200.783 309.53 201.29Z" fill="#DE5753"/>
<path d="M320.29 180.12C320.29 180.12 320.61 194.55 329.29 196.29C337.97 198.03 328.49 177.73 328.49 177.73C328.49 177.73 315.59 169.31 306.99 175.25C298.39 181.19 306.13 188.81 306.13 188.81C306.13 188.81 307.92 178.09 320.29 180.12Z" fill="#263238"/>
<path d="M323.6 193.33C323.541 193.329 323.485 193.308 323.44 193.27C317.28 188.43 320.32 179.17 320.35 179.08C320.373 179.017 320.419 178.966 320.478 178.936C320.538 178.906 320.606 178.901 320.67 178.92C320.732 178.943 320.783 178.989 320.811 179.049C320.839 179.109 320.843 179.178 320.82 179.24C320.82 179.33 317.87 188.24 323.75 192.88C323.774 192.902 323.793 192.93 323.806 192.96C323.819 192.99 323.826 193.022 323.826 193.055C323.826 193.088 323.819 193.12 323.806 193.15C323.793 193.18 323.774 193.208 323.75 193.23C323.733 193.256 323.712 193.279 323.686 193.296C323.66 193.313 323.631 193.325 323.6 193.33Z" fill="#263238"/>
<path d="M331.8 199.25C330.7 202.19 327.87 203.84 325.48 202.95C323.09 202.06 322.05 198.95 323.15 196.01C324.25 193.07 327.08 191.42 329.47 192.32C331.86 193.22 332.9 196.32 331.8 199.25Z" fill="#00A000"/>
<path opacity="0.4" d="M331.8 199.25C330.7 202.19 327.87 203.84 325.48 202.95C323.09 202.06 322.05 198.95 323.15 196.01C324.25 193.07 327.08 191.42 329.47 192.32C331.86 193.22 332.9 196.32 331.8 199.25Z" fill="black"/>
<path d="M329 194.44C329 194.44 332.59 178.37 324.54 174.16C325.457 174.28 326.365 174.457 327.26 174.69C328.26 174.99 334.73 181.51 331.48 195.95L329 194.44Z" fill="#00A000"/>
<path opacity="0.2" d="M329 194.44C329 194.44 332.59 178.37 324.54 174.16C325.457 174.28 326.365 174.457 327.26 174.69C328.26 174.99 334.73 181.51 331.48 195.95L329 194.44Z" fill="black"/>
<path d="M314 203.64L313.4 203.55L313.56 202.55C317.976 203.229 322.489 202.273 326.25 199.86L326.84 200.66C323.058 203.166 318.499 204.224 314 203.64Z" fill="#00A000"/>
<g opacity="0.2">
<path opacity="0.2" d="M314 203.64L313.4 203.55L313.56 202.55C317.976 203.229 322.489 202.273 326.25 199.86L326.84 200.66C323.058 203.166 318.499 204.224 314 203.64Z" fill="black"/>
</g>
<path d="M331.46 198.85C330.74 200.79 328.86 201.85 327.29 201.29C325.72 200.73 325.02 198.65 325.75 196.71C326.48 194.77 328.35 193.71 329.92 194.27C331.49 194.83 332.19 196.91 331.46 198.85Z" fill="#00A000"/>
<path d="M313.06 204L312.25 203.89C312.109 203.872 311.972 203.825 311.849 203.754C311.725 203.682 311.617 203.587 311.531 203.474C311.444 203.36 311.381 203.231 311.345 203.093C311.309 202.955 311.3 202.811 311.32 202.67C311.337 202.528 311.383 202.39 311.454 202.266C311.524 202.141 311.619 202.032 311.733 201.944C311.847 201.857 311.976 201.793 312.115 201.756C312.254 201.719 312.398 201.71 312.54 201.73L313.34 201.84C313.625 201.88 313.883 202.03 314.059 202.258C314.235 202.486 314.314 202.774 314.28 203.06C314.24 203.345 314.09 203.603 313.862 203.779C313.634 203.955 313.346 204.034 313.06 204Z" fill="#00A000"/>
<path opacity="0.4" d="M313.06 204L312.25 203.89C312.109 203.872 311.972 203.825 311.849 203.754C311.725 203.682 311.617 203.587 311.531 203.474C311.444 203.36 311.381 203.231 311.345 203.093C311.309 202.955 311.3 202.811 311.32 202.67C311.337 202.528 311.383 202.39 311.454 202.266C311.524 202.141 311.619 202.032 311.733 201.944C311.847 201.857 311.976 201.793 312.115 201.756C312.254 201.719 312.398 201.71 312.54 201.73L313.34 201.84C313.625 201.88 313.883 202.03 314.059 202.258C314.235 202.486 314.314 202.774 314.28 203.06C314.24 203.345 314.09 203.603 313.862 203.779C313.634 203.955 313.346 204.034 313.06 204Z" fill="black"/>
<path d="M323.87 213.85L317.93 219.68L320.31 226.84L328.57 217.74L323.87 213.85Z" fill="#00A000"/>
<path d="M315.28 215.07L316.24 219.56L313.17 225.91L311.25 217.66L315.28 215.07Z" fill="#00A000"/>
<path d="M322.6 218.91L326.05 206.28C326.05 206.28 324.38 203.14 324.74 202.48C325.1 201.82 326.9 193.34 328.18 192.42C329.46 191.5 334.73 193.07 335.26 193.93C335.79 194.79 330.21 206.28 330.21 206.28L328.21 219.97L322.6 218.91Z" fill="#E4897B"/>
<path d="M343 221C352.5 230.72 333.47 252.74 322.56 251.8C311.65 250.86 322.84 210.94 322.84 210.94L329.84 212.09C329.84 212.09 327.39 229.37 328.16 230.72C328.93 232.07 339.85 217.77 343 221Z" fill="#00A000"/>
<path opacity="0.2" d="M343 221C352.5 230.72 333.47 252.74 322.56 251.8C311.65 250.86 322.84 210.94 322.84 210.94L329.84 212.09C329.84 212.09 327.39 229.37 328.16 230.72C328.93 232.07 339.85 217.77 343 221Z" fill="black"/>
<path d="M322.3 209.69L321.27 212.99L331 213.85V210.97L322.3 209.69Z" fill="#00A000"/>
<path opacity="0.6" d="M307.55 235.8H303.61C303.174 235.8 302.82 236.154 302.82 236.59V244.03C302.82 244.466 303.174 244.82 303.61 244.82H307.55C307.986 244.82 308.34 244.466 308.34 244.03V236.59C308.34 236.154 307.986 235.8 307.55 235.8Z" fill="white"/>
<path opacity="0.2" d="M307.63 236.4H303.15V242.53H307.63V236.4Z" fill="black"/>
<path d="M305.99 233.63H305V237.24H305.99V233.63Z" fill="#263238"/>
<path d="M223.71 389.17C224.707 388.706 225.782 388.431 226.88 388.36C226.88 388.36 230.68 386.13 234.44 377.44H238.67C239.387 377.445 240.085 377.672 240.669 378.089C241.253 378.506 241.693 379.093 241.93 379.77C242.001 379.956 242.041 380.152 242.05 380.35C242 381.372 241.89 382.391 241.72 383.4C241.101 386.781 240.276 390.12 239.25 393.4L238.53 393.22L239.83 386.9C240.27 384.76 238.01 386.83 236.97 388.99C235.93 391.15 234.32 393.34 229.64 392.27C224.19 390.93 222 390.15 223.71 389.17Z" fill="#00A000"/>
<path d="M235.21 375.17C235.21 375.17 229.92 386.23 226.88 388.36C226.88 388.36 230.96 390.79 235.21 385.36C240.7 378.36 242.05 380.31 242.05 380.31C241.935 379.102 241.711 377.907 241.38 376.74C240.56 374.5 235.21 375.17 235.21 375.17Z" fill="#E4897B"/>
<path d="M281.93 415.52C282.794 414.839 283.773 414.317 284.82 413.98C284.82 413.98 287.98 410.91 289.57 401.58L293.68 400.58C294.378 400.419 295.108 400.477 295.771 400.745C296.435 401.014 297 401.48 297.39 402.08C297.502 402.246 297.59 402.428 297.65 402.62C297.85 403.61 297.987 404.612 298.06 405.62C298.252 409.038 298.235 412.464 298.01 415.88H297.27L297.04 409.44C296.95 407.25 295.26 409.8 294.75 412.15C294.24 414.5 293.21 416.99 288.41 417.06C282.82 417.12 280.5 416.88 281.93 415.52Z" fill="#00A000"/>
<path d="M289.78 399.19C289.78 399.19 287.27 411.19 284.78 413.98C284.78 413.98 289.32 415.38 292.16 409.11C295.84 401.01 297.61 402.59 297.61 402.59C297.215 401.444 296.716 400.336 296.12 399.28C294.82 397.28 289.78 399.19 289.78 399.19Z" fill="#E4897B"/>
<path d="M382.76 157.15H347.85C345.05 157.15 342.78 159.42 342.78 162.22V177.15C342.78 179.95 345.05 182.22 347.85 182.22H382.76C385.56 182.22 387.83 179.95 387.83 177.15V162.22C387.83 159.42 385.56 157.15 382.76 157.15Z" fill="#00A000"/>
<path d="M354.85 179.36L344.33 193.66L361.3 180.32L354.85 179.36Z" fill="#00A000"/>
<path d="M355.24 169.68C355.242 169.974 355.157 170.261 354.995 170.506C354.833 170.751 354.602 170.942 354.331 171.055C354.06 171.169 353.762 171.199 353.474 171.142C353.186 171.085 352.921 170.944 352.714 170.736C352.506 170.529 352.365 170.264 352.308 169.976C352.251 169.688 352.281 169.39 352.395 169.119C352.508 168.848 352.699 168.617 352.944 168.455C353.189 168.293 353.476 168.208 353.77 168.21C354.16 168.21 354.534 168.365 354.809 168.641C355.085 168.916 355.24 169.29 355.24 169.68Z" fill="white"/>
<path d="M362.93 169.68C362.932 169.974 362.847 170.261 362.685 170.506C362.523 170.751 362.292 170.942 362.021 171.055C361.75 171.169 361.452 171.199 361.164 171.142C360.876 171.085 360.611 170.944 360.404 170.736C360.196 170.529 360.055 170.264 359.998 169.976C359.941 169.688 359.971 169.39 360.085 169.119C360.198 168.848 360.389 168.617 360.634 168.455C360.879 168.293 361.166 168.208 361.46 168.21C361.85 168.21 362.224 168.365 362.499 168.641C362.775 168.916 362.93 169.29 362.93 169.68Z" fill="white"/>
<path d="M370.62 169.68C370.622 169.974 370.537 170.261 370.375 170.506C370.213 170.751 369.982 170.942 369.711 171.055C369.44 171.169 369.142 171.199 368.854 171.142C368.566 171.085 368.301 170.944 368.094 170.736C367.886 170.529 367.745 170.264 367.688 169.976C367.631 169.688 367.661 169.39 367.775 169.119C367.888 168.848 368.079 168.617 368.324 168.455C368.569 168.293 368.856 168.208 369.15 168.21C369.54 168.21 369.914 168.365 370.189 168.641C370.465 168.916 370.62 169.29 370.62 169.68Z" fill="white"/>
<path d="M378.31 169.68C378.312 169.974 378.227 170.261 378.065 170.506C377.903 170.751 377.672 170.942 377.401 171.055C377.13 171.169 376.832 171.199 376.544 171.142C376.256 171.085 375.991 170.944 375.784 170.736C375.576 170.529 375.435 170.264 375.378 169.976C375.321 169.688 375.351 169.39 375.465 169.119C375.578 168.848 375.769 168.617 376.014 168.455C376.259 168.293 376.546 168.208 376.84 168.21C377.23 168.21 377.604 168.365 377.879 168.641C378.155 168.916 378.31 169.29 378.31 169.68Z" fill="white"/>
<path d="M251.674 145.328L226.767 131.912C226.096 131.55 225.259 131.801 224.898 132.472L216.95 147.227C216.588 147.898 216.839 148.735 217.51 149.097L242.416 162.513C243.087 162.875 243.924 162.624 244.286 161.953L252.234 147.197C252.596 146.526 252.345 145.689 251.674 145.328Z" fill="#00A000"/>
<path opacity="0.7" d="M251.674 145.328L226.767 131.912C226.096 131.55 225.259 131.801 224.898 132.472L216.95 147.227C216.588 147.898 216.839 148.735 217.51 149.097L242.416 162.513C243.087 162.875 243.924 162.624 244.286 161.953L252.234 147.197C252.596 146.526 252.345 145.689 251.674 145.328Z" fill="white"/>
<path opacity="0.2" d="M224.25 133.69L232 148.24C232.298 148.794 232.753 149.248 233.308 149.543C233.864 149.839 234.494 149.963 235.12 149.9L251.33 148.3L234.83 150.73C234.109 150.837 233.373 150.707 232.731 150.361C232.09 150.015 231.577 149.471 231.27 148.81L224.25 133.69Z" fill="black"/>
<path d="M205.34 131C205.61 125.44 209.73 114.23 214.74 110.8C219.75 107.37 216.45 112.12 216.45 112.12C216.45 112.12 221.2 107.5 223.7 107.64C226.2 107.78 223.7 110.64 223.7 110.64C223.7 110.64 228.85 107.47 231.22 107.64C233.59 107.81 231.22 110.55 231.22 110.55C231.22 110.55 235.44 107.55 237.15 108.96C238.86 110.37 215.26 125.96 212.63 132.3C210 138.64 205.07 136.61 205.34 131Z" fill="#00A000"/>
<path opacity="0.4" d="M205.34 131C205.61 125.44 209.73 114.23 214.74 110.8C219.75 107.37 216.45 112.12 216.45 112.12C216.45 112.12 221.2 107.5 223.7 107.64C226.2 107.78 223.7 110.64 223.7 110.64C223.7 110.64 228.85 107.47 231.22 107.64C233.59 107.81 231.22 110.55 231.22 110.55C231.22 110.55 235.44 107.55 237.15 108.96C238.86 110.37 215.26 125.96 212.63 132.3C210 138.64 205.07 136.61 205.34 131Z" fill="white"/>
<path d="M225.62 130.16L228.77 132.16C228.82 132.191 228.858 132.238 228.878 132.293C228.897 132.348 228.898 132.408 228.88 132.463C228.861 132.519 228.825 132.566 228.776 132.598C228.727 132.631 228.668 132.645 228.61 132.64L225.3 132.38L225.58 134.92C225.588 134.98 225.577 135.041 225.547 135.094C225.518 135.146 225.472 135.188 225.417 135.213C225.362 135.238 225.3 135.244 225.241 135.231C225.182 135.218 225.129 135.186 225.09 135.14L223.18 133L225.62 130.16Z" fill="#00A000"/>
<path opacity="0.3" d="M225.62 130.16L228.77 132.16C228.82 132.191 228.858 132.238 228.878 132.293C228.897 132.348 228.898 132.408 228.88 132.463C228.861 132.519 228.825 132.566 228.776 132.598C228.727 132.631 228.668 132.645 228.61 132.64L225.3 132.38L225.58 134.92C225.588 134.98 225.577 135.041 225.547 135.094C225.518 135.146 225.472 135.188 225.417 135.213C225.362 135.238 225.3 135.244 225.241 135.231C225.182 135.218 225.129 135.186 225.09 135.14L223.18 133L225.62 130.16Z" fill="white"/>
<path d="M181.37 117.64C181.37 117.64 185.73 114.64 192.32 116.58C192.32 116.58 194.21 125.29 199.4 128.19C202.25 129.78 209.22 129.64 214.74 127.86C221.29 125.74 224.49 125.74 225.68 128.19C226.87 130.64 225.55 133.19 220.54 134.38C215.53 135.57 211.54 144.27 202.47 144.38C193.4 144.49 188.58 135.38 190.87 127.38C188.702 123.29 185.404 119.91 181.37 117.64Z" fill="#00A000"/>
<path opacity="0.5" d="M181.37 117.64C181.37 117.64 185.73 114.64 192.32 116.58C192.32 116.58 194.21 125.29 199.4 128.19C202.25 129.78 209.22 129.64 214.74 127.86C221.29 125.74 224.49 125.74 225.68 128.19C226.87 130.64 225.55 133.19 220.54 134.38C215.53 135.57 211.54 144.27 202.47 144.38C193.4 144.49 188.58 135.38 190.87 127.38C188.702 123.29 185.404 119.91 181.37 117.64Z" fill="white"/>
<path d="M223.18 129.84C223.18 129.929 223.154 130.016 223.104 130.09C223.055 130.164 222.984 130.222 222.902 130.256C222.82 130.29 222.729 130.299 222.642 130.281C222.555 130.264 222.475 130.221 222.412 130.158C222.349 130.095 222.306 130.015 222.289 129.928C222.271 129.84 222.28 129.75 222.314 129.668C222.348 129.586 222.406 129.515 222.48 129.466C222.554 129.416 222.641 129.39 222.73 129.39C222.849 129.39 222.964 129.437 223.048 129.522C223.133 129.606 223.18 129.721 223.18 129.84Z" fill="#263238"/>
<path d="M200.36 137.16C194.99 138.62 183.05 138.16 178.25 134.46C173.45 130.76 178.97 132.46 178.97 132.46C178.97 132.46 173.12 129.37 172.47 126.95C171.82 124.53 175.35 126.01 175.35 126.01C175.35 126.01 170.75 122.1 170.15 119.8C169.55 117.5 172.91 118.9 172.91 118.9C172.91 118.9 168.72 115.82 169.57 113.75C170.42 111.68 192.51 129.32 199.34 129.87C206.17 130.42 205.8 135.68 200.36 137.16Z" fill="#00A000"/>
<path opacity="0.4" d="M200.36 137.16C194.99 138.62 183.05 138.16 178.25 134.46C173.45 130.76 178.97 132.46 178.97 132.46C178.97 132.46 173.12 129.37 172.47 126.95C171.82 124.53 175.35 126.01 175.35 126.01C175.35 126.01 170.75 122.1 170.15 119.8C169.55 117.5 172.91 118.9 172.91 118.9C172.91 118.9 168.72 115.82 169.57 113.75C170.42 111.68 192.51 129.32 199.34 129.87C206.17 130.42 205.8 135.68 200.36 137.16Z" fill="white"/>
<path d="M165.16 112.83C165.121 112.84 165.079 112.84 165.04 112.83C164.11 112.5 163.16 112.19 162.2 111.9C162.105 111.87 162.026 111.804 161.979 111.716C161.932 111.628 161.922 111.525 161.95 111.43C161.98 111.335 162.046 111.256 162.134 111.209C162.222 111.162 162.325 111.152 162.42 111.18C163.42 111.47 164.35 111.79 165.29 112.18C165.374 112.209 165.444 112.266 165.489 112.343C165.534 112.419 165.55 112.509 165.535 112.596C165.519 112.683 165.472 112.762 165.404 112.817C165.335 112.873 165.248 112.902 165.16 112.9V112.83Z" fill="#00A000"/>
<path d="M104.72 194C104.621 194 104.526 193.961 104.455 193.892C104.384 193.823 104.343 193.729 104.34 193.63C104.34 193.531 104.379 193.436 104.448 193.365C104.517 193.294 104.611 193.253 104.71 193.25C106.699 193.222 108.683 193.028 110.64 192.67C110.738 192.652 110.839 192.674 110.921 192.73C111.004 192.786 111.061 192.872 111.08 192.97C111.09 193.019 111.09 193.069 111.081 193.118C111.071 193.166 111.051 193.213 111.023 193.254C110.995 193.295 110.959 193.33 110.918 193.357C110.876 193.383 110.829 193.402 110.78 193.41C108.78 193.776 106.753 193.973 104.72 194ZM98.72 193.68C96.7021 193.465 94.6986 193.131 92.72 192.68C92.6221 192.658 92.5366 192.599 92.4823 192.515C92.428 192.43 92.4092 192.328 92.43 192.23C92.4538 192.134 92.5141 192.051 92.5981 191.999C92.6822 191.946 92.7833 191.929 92.88 191.95C94.8273 192.389 96.7968 192.722 98.78 192.95C98.8689 192.965 98.9498 193.01 99.0082 193.079C99.0665 193.148 99.0985 193.235 99.0985 193.325C99.0985 193.415 99.0665 193.502 99.0082 193.571C98.9498 193.64 98.8689 193.685 98.78 193.7L98.72 193.68ZM116.49 191.68C116.418 191.68 116.348 191.66 116.287 191.621C116.227 191.582 116.179 191.526 116.15 191.46C116.128 191.415 116.116 191.366 116.114 191.316C116.112 191.266 116.12 191.216 116.138 191.169C116.156 191.123 116.183 191.08 116.218 191.044C116.252 191.008 116.294 190.979 116.34 190.96C118.156 190.177 119.842 189.122 121.34 187.83C121.417 187.772 121.512 187.744 121.608 187.754C121.704 187.764 121.793 187.809 121.856 187.882C121.92 187.954 121.953 188.048 121.95 188.144C121.947 188.24 121.908 188.332 121.84 188.4C120.282 189.737 118.533 190.832 116.65 191.65C116.595 191.681 116.533 191.698 116.47 191.7L116.49 191.68ZM87 191C86.9606 191.01 86.9194 191.01 86.88 191C84.98 190.37 83.07 189.63 81.22 188.82C81.138 188.773 81.0764 188.697 81.0472 188.608C81.0179 188.518 81.0232 188.42 81.0619 188.334C81.1006 188.248 81.17 188.18 81.2565 188.142C81.343 188.104 81.4405 188.1 81.53 188.13C83.35 188.93 85.23 189.66 87.12 190.29C87.2136 190.324 87.2901 190.393 87.3331 190.483C87.3761 190.573 87.3821 190.676 87.35 190.77C87.3217 190.839 87.2731 190.898 87.2107 190.939C87.1482 190.98 87.0747 191.001 87 191ZM76 186.14C75.9413 186.158 75.8787 186.158 75.82 186.14C74.03 185.14 72.29 184.06 70.67 182.93C70.6299 182.902 70.5958 182.866 70.5696 182.824C70.5434 182.783 70.5256 182.737 70.5173 182.689C70.5089 182.64 70.5102 182.591 70.5209 182.543C70.5317 182.495 70.5518 182.45 70.58 182.41C70.6082 182.37 70.6441 182.336 70.6855 182.31C70.7269 182.283 70.7731 182.266 70.8213 182.257C70.8696 182.249 70.9191 182.25 70.9669 182.261C71.0147 182.272 71.0599 182.292 71.1 182.32C72.7 183.43 74.41 184.5 76.19 185.49C76.2331 185.514 76.2709 185.546 76.3014 185.585C76.3318 185.624 76.3542 185.668 76.3672 185.716C76.3803 185.763 76.3837 185.813 76.3773 185.862C76.3709 185.91 76.3548 185.957 76.33 186C76.2877 186.065 76.2271 186.116 76.1559 186.146C76.0846 186.176 76.006 186.185 75.93 186.17L76 186.14ZM125.44 183.85C125.381 183.868 125.319 183.868 125.26 183.85C125.217 183.826 125.179 183.794 125.149 183.755C125.118 183.716 125.096 183.672 125.083 183.624C125.07 183.577 125.066 183.527 125.073 183.478C125.079 183.43 125.095 183.383 125.12 183.34C125.43 182.8 125.72 182.24 125.98 181.66C126.537 180.435 126.972 179.159 127.28 177.85C127.306 177.753 127.368 177.67 127.454 177.618C127.54 177.566 127.642 177.549 127.74 177.57C127.836 177.596 127.919 177.659 127.969 177.745C128.02 177.831 128.034 177.933 128.01 178.03C127.684 179.382 127.232 180.702 126.66 181.97C126.39 182.57 126.09 183.16 125.77 183.72C125.727 183.784 125.666 183.834 125.595 183.862C125.523 183.891 125.445 183.897 125.37 183.88L125.44 183.85ZM66.14 179.23C66.052 179.229 65.9672 179.197 65.9 179.14C64.3771 177.795 62.9502 176.345 61.63 174.8C61.561 174.729 61.5223 174.634 61.5223 174.535C61.5223 174.436 61.561 174.341 61.63 174.27C61.6992 174.202 61.7927 174.163 61.89 174.163C61.9873 174.163 62.0807 174.202 62.15 174.27C63.4464 175.782 64.8464 177.202 66.34 178.52C66.409 178.591 66.4476 178.686 66.4476 178.785C66.4476 178.884 66.409 178.979 66.34 179.05C66.3152 179.104 66.2777 179.151 66.2307 179.188C66.1837 179.225 66.1286 179.249 66.07 179.26L66.14 179.23ZM128.32 172.29C128.271 172.29 128.222 172.28 128.176 172.261C128.13 172.242 128.089 172.214 128.055 172.178C128.02 172.143 127.993 172.101 127.975 172.055C127.957 172.009 127.949 171.959 127.95 171.91C127.935 169.921 127.751 167.937 127.4 165.98C127.382 165.882 127.404 165.781 127.46 165.699C127.516 165.616 127.602 165.559 127.7 165.54C127.799 165.525 127.9 165.549 127.982 165.607C128.064 165.665 128.121 165.752 128.14 165.85C128.5 167.85 128.687 169.878 128.7 171.91C128.7 172.011 128.66 172.107 128.589 172.179C128.517 172.25 128.421 172.29 128.32 172.29ZM126.32 160.43C126.239 160.429 126.16 160.403 126.096 160.354C126.031 160.305 125.983 160.237 125.96 160.16C125.45 158.41 124.82 156.55 124.05 154.47C124.031 154.423 124.021 154.374 124.022 154.323C124.023 154.273 124.034 154.224 124.055 154.178C124.075 154.132 124.105 154.091 124.142 154.057C124.179 154.023 124.223 153.997 124.27 153.98C124.363 153.947 124.465 153.952 124.554 153.993C124.644 154.034 124.714 154.108 124.75 154.2C125.53 156.3 126.16 158.2 126.68 159.94C126.708 160.035 126.698 160.138 126.651 160.226C126.604 160.314 126.525 160.38 126.43 160.41L126.32 160.43ZM122.18 149.08C122.111 149.081 122.043 149.061 121.984 149.024C121.925 148.986 121.879 148.933 121.85 148.87C121.21 147.27 120.34 145.43 119.43 143.48V143.38C119.404 143.293 119.41 143.199 119.447 143.116C119.484 143.033 119.55 142.966 119.632 142.927C119.715 142.889 119.808 142.881 119.896 142.905C119.983 142.929 120.059 142.984 120.11 143.06V143.16C121.03 145.16 121.89 146.97 122.53 148.54C122.57 148.634 122.572 148.741 122.535 148.836C122.497 148.931 122.424 149.008 122.33 149.05L122.18 149.08ZM117.18 138.08C117.106 138.082 117.034 138.063 116.971 138.023C116.909 137.984 116.86 137.927 116.83 137.86C115.93 135.77 115.21 133.92 114.64 132.21C114.608 132.116 114.614 132.013 114.657 131.923C114.7 131.833 114.776 131.764 114.87 131.73C114.965 131.698 115.07 131.706 115.16 131.751C115.25 131.796 115.318 131.875 115.35 131.97C115.91 133.66 116.62 135.49 117.52 137.56C117.54 137.605 117.55 137.654 117.551 137.703C117.551 137.753 117.542 137.801 117.523 137.847C117.504 137.893 117.477 137.934 117.442 137.969C117.407 138.004 117.366 138.031 117.32 138.05C117.287 138.085 117.246 138.113 117.2 138.13L117.18 138.08ZM113.52 126.62C113.431 126.619 113.344 126.586 113.277 126.527C113.209 126.469 113.164 126.388 113.15 126.3C112.978 125.228 112.891 124.145 112.89 123.06C112.882 122.09 112.969 121.122 113.15 120.17C113.179 120.081 113.239 120.006 113.32 119.959C113.4 119.912 113.495 119.896 113.587 119.915C113.678 119.934 113.76 119.985 113.816 120.06C113.872 120.134 113.898 120.227 113.89 120.32C113.717 121.223 113.633 122.141 113.64 123.06C113.643 124.108 113.727 125.155 113.89 126.19C113.902 126.288 113.877 126.386 113.819 126.466C113.762 126.545 113.676 126.601 113.58 126.62H113.52ZM116.13 115.26C116.043 115.262 115.958 115.234 115.89 115.18C115.821 115.109 115.782 115.014 115.782 114.915C115.782 114.816 115.821 114.721 115.89 114.65C117.232 113.082 118.866 111.788 120.7 110.84C120.788 110.793 120.89 110.783 120.986 110.811C121.081 110.839 121.161 110.903 121.21 110.99C121.253 111.079 121.261 111.182 121.231 111.277C121.201 111.371 121.137 111.451 121.05 111.5C119.303 112.403 117.748 113.636 116.47 115.13C116.437 115.185 116.39 115.231 116.334 115.262C116.278 115.294 116.214 115.31 116.15 115.31L116.13 115.26ZM156.45 110.36H156.37C154.45 109.96 152.46 109.62 150.45 109.36C150.401 109.354 150.354 109.338 150.312 109.314C150.269 109.289 150.232 109.256 150.202 109.217C150.172 109.178 150.15 109.133 150.138 109.086C150.126 109.038 150.123 108.989 150.13 108.94C150.136 108.891 150.152 108.844 150.176 108.802C150.201 108.759 150.234 108.722 150.273 108.692C150.312 108.662 150.357 108.64 150.404 108.628C150.452 108.616 150.501 108.613 150.55 108.62C152.55 108.88 154.55 109.22 156.55 109.62C156.64 109.641 156.719 109.693 156.773 109.768C156.827 109.842 156.852 109.934 156.843 110.026C156.835 110.117 156.793 110.203 156.726 110.266C156.659 110.329 156.572 110.366 156.48 110.37L156.45 110.36ZM126.45 109.51C126.401 109.515 126.352 109.511 126.305 109.497C126.258 109.483 126.215 109.461 126.177 109.43C126.139 109.399 126.107 109.361 126.083 109.319C126.06 109.276 126.045 109.229 126.04 109.18C126.035 109.131 126.039 109.082 126.053 109.035C126.067 108.988 126.089 108.945 126.12 108.907C126.151 108.869 126.189 108.837 126.231 108.813C126.274 108.79 126.321 108.775 126.37 108.77C128.345 108.327 130.351 108.036 132.37 107.9C132.469 107.894 132.567 107.928 132.641 107.993C132.716 108.059 132.762 108.151 132.77 108.25C132.774 108.299 132.768 108.349 132.753 108.396C132.737 108.443 132.712 108.487 132.68 108.524C132.647 108.561 132.607 108.592 132.563 108.613C132.518 108.635 132.469 108.647 132.42 108.65C130.434 108.778 128.461 109.063 126.52 109.5L126.45 109.51ZM144.45 108.81C142.71 108.69 140.64 108.56 138.45 108.52C138.351 108.517 138.257 108.476 138.188 108.405C138.119 108.334 138.08 108.239 138.08 108.14C138.08 108.091 138.09 108.042 138.109 107.996C138.128 107.95 138.156 107.909 138.192 107.875C138.227 107.84 138.269 107.813 138.315 107.795C138.361 107.777 138.411 107.769 138.46 107.77C140.67 107.82 142.76 107.94 144.46 108.06C144.51 108.062 144.558 108.075 144.603 108.097C144.647 108.118 144.687 108.149 144.72 108.186C144.752 108.223 144.777 108.267 144.793 108.314C144.808 108.361 144.814 108.411 144.81 108.46C144.817 108.55 144.792 108.64 144.739 108.714C144.686 108.787 144.608 108.839 144.52 108.86L144.45 108.81Z" fill="#00A000"/>
<path d="M58.36 170C58.2929 170.001 58.2268 169.984 58.1687 169.951C58.1105 169.917 58.0626 169.869 58.03 169.81C57.5243 168.932 57.0734 168.024 56.68 167.09C56.6604 167.045 56.65 166.996 56.6494 166.947C56.6489 166.897 56.6582 166.849 56.6768 166.803C56.6955 166.757 56.723 166.716 56.7579 166.681C56.7928 166.646 56.8343 166.619 56.88 166.6C56.9716 166.563 57.0741 166.563 57.1655 166.601C57.257 166.638 57.3303 166.709 57.37 166.8C57.7562 167.704 58.1935 168.586 58.68 169.44C58.7174 169.496 58.7384 169.561 58.7408 169.628C58.7432 169.695 58.7269 169.761 58.6936 169.819C58.6604 169.877 58.6115 169.925 58.5526 169.957C58.4936 169.989 58.4269 170.004 58.36 170Z" fill="#00A000"/>
<path d="M179.81 249.04H141.85V256.82H179.81V249.04Z" fill="white"/>
<path opacity="0.1" d="M179.81 249.04H141.85V256.82H179.81V249.04Z" fill="black"/>
<path opacity="0.1" d="M157.84 249.04H141.85V256.82H157.84V249.04Z" fill="black"/>
<path opacity="0.1" d="M141.85 250.16H175.64L141.85 251.12V250.16Z" fill="black"/>
<path opacity="0.1" d="M179.81 251.51L150.52 252.24H179.81V251.51Z" fill="black"/>
<path opacity="0.1" d="M143.4 253.69L157.84 253.1L179.07 253.69L157.84 254.02L143.4 253.69Z" fill="black"/>
<path opacity="0.1" d="M141.85 255.34H166.87L141.85 255.93V255.34Z" fill="black"/>
<path opacity="0.1" d="M179.75 255.93L163.04 256.24H179.81L179.75 255.93Z" fill="black"/>
<path d="M174.53 241.26H136.57V249.04H174.53V241.26Z" fill="white"/>
<path opacity="0.1" d="M174.53 241.26H136.57V249.04H174.53V241.26Z" fill="black"/>
<path opacity="0.1" d="M152.56 241.26H136.57V249.04H152.56V241.26Z" fill="black"/>
<path opacity="0.1" d="M136.57 242.38H170.36L136.57 243.33V242.38Z" fill="black"/>
<path opacity="0.1" d="M174.53 243.73L145.24 244.46H174.53V243.73Z" fill="black"/>
<path opacity="0.1" d="M138.11 245.91L152.55 245.31L173.78 245.91L152.55 246.24L138.11 245.91Z" fill="black"/>
<path opacity="0.1" d="M136.57 247.55H161.59L136.57 248.15V247.55Z" fill="black"/>
<path opacity="0.1" d="M174.47 248.15L157.76 248.46H174.53L174.47 248.15Z" fill="black"/>
<path d="M178.86 233.47H140.9V241.25H178.86V233.47Z" fill="white"/>
<path opacity="0.1" d="M178.86 233.47H140.9V241.25H178.86V233.47Z" fill="black"/>
<path opacity="0.1" d="M156.89 233.47H140.9V241.25H156.89V233.47Z" fill="black"/>
<path opacity="0.1" d="M140.9 234.59H174.69L140.9 235.55V234.59Z" fill="black"/>
<path opacity="0.1" d="M178.86 235.94L149.57 236.67H178.86V235.94Z" fill="black"/>
<path opacity="0.1" d="M142.45 238.12L156.89 237.53L178.12 238.12L156.89 238.45L142.45 238.12Z" fill="black"/>
<path opacity="0.1" d="M140.9 239.77H165.92L140.9 240.36V239.77Z" fill="black"/>
<path opacity="0.1" d="M178.81 240.36L162.1 240.67H178.86L178.81 240.36Z" fill="black"/>
<path d="M204.15 256.66L205.13 252.93H245.69L264.36 254.8L265.07 256.66H204.15Z" fill="#263238"/>
<path opacity="0.4" d="M245.69 252.93V256.66H204.15L205.13 252.93H245.69Z" fill="black"/>
<path d="M237.54 235.08C237.594 235.532 237.551 235.991 237.413 236.425C237.276 236.859 237.047 237.259 236.742 237.597C236.437 237.935 236.063 238.204 235.645 238.386C235.227 238.567 234.775 238.658 234.32 238.65H172.2C171.229 238.629 170.298 238.255 169.582 237.598C168.866 236.941 168.414 236.046 168.31 235.08L164.62 195.31C164.58 194.922 164.607 194.529 164.7 194.15C164.872 193.452 165.277 192.833 165.848 192.395C166.418 191.957 167.121 191.726 167.84 191.74H230C230.971 191.761 231.902 192.135 232.618 192.792C233.334 193.449 233.786 194.344 233.89 195.31L237.54 235.08Z" fill="#263238"/>
<path opacity="0.4" d="M234.1 238.65H172.2C171.229 238.629 170.298 238.255 169.582 237.598C168.866 236.941 168.414 236.046 168.31 235.08L164.62 195.31C164.58 194.922 164.607 194.529 164.7 194.15H226.6C227.571 194.171 228.502 194.545 229.218 195.202C229.934 195.859 230.386 196.754 230.49 197.72L234.18 237.49C234.22 237.878 234.193 238.271 234.1 238.65Z" fill="black"/>
<path d="M191.42 214.26H204.27L200.85 251.05L221.17 254.1V256.66H178.37V254.1L187.14 251.05L191.42 214.26Z" fill="#263238"/>
<path opacity="0.1" d="M204.27 214.26L194.75 256.08L187.14 255.85L191.42 214.26H204.27Z" fill="white"/>
<path d="M204.21 417.07H198.09L187.08 263.82H195.21L204.21 417.07Z" fill="#263238"/>
<path opacity="0.4" d="M204.22 417.07H198.09L187.62 271.44L187.08 264.07H195.21L195.65 271.44L204.22 417.07Z" fill="white"/>
<path opacity="0.2" d="M195.65 271.07H187.62L187.08 264.07H195.21L195.65 271.07Z" fill="black"/>
<path d="M249.17 417.07H243.05L242.05 263.82H250.17L249.17 417.07Z" fill="#263238"/>
<path opacity="0.5" d="M250.18 264.07L250.02 288.8L249.18 417.07H243.05L242.21 288.8L242.05 264.07H250.18Z" fill="white"/>
<path opacity="0.2" d="M250.18 264.07L250.02 289.07H242.21L242.05 264.07H250.18Z" fill="black"/>
<path d="M314.21 417.07H308.09L297.08 263.82H305.21L314.21 417.07Z" fill="#263238"/>
<path opacity="0.5" d="M314.22 417.07H308.09L297.62 271.44L297.08 264.07H305.21L305.65 271.44L314.22 417.07Z" fill="white"/>
<path opacity="0.2" d="M305.65 271.07H297.62L297.08 264.07H305.21L305.65 271.07Z" fill="black"/>
<path d="M134.13 417.07H128.01L137.01 263.82H145.14L134.13 417.07Z" fill="#263238"/>
<path opacity="0.5" d="M145.14 264.07L144.6 271.44L134.13 417.07H128.01L136.57 271.44L137.01 264.07H145.14Z" fill="white"/>
<path opacity="0.2" d="M137.01 264.07H145.14L144.6 271.07H136.57L137.01 264.07Z" fill="black"/>
<path d="M130.57 260H311.65V265.51C311.65 265.794 311.594 266.075 311.486 266.337C311.377 266.599 311.218 266.837 311.017 267.037C310.817 267.238 310.579 267.397 310.317 267.506C310.055 267.614 309.774 267.67 309.49 267.67H132.73C132.157 267.67 131.608 267.442 131.203 267.037C130.798 266.632 130.57 266.083 130.57 265.51V260Z" fill="#00A000"/>
<path opacity="0.6" d="M130.57 260H311.65V265.51C311.65 265.794 311.594 266.075 311.486 266.337C311.377 266.599 311.218 266.837 311.017 267.037C310.817 267.238 310.579 267.397 310.317 267.506C310.055 267.614 309.774 267.67 309.49 267.67H132.73C132.157 267.67 131.608 267.442 131.203 267.037C130.798 266.632 130.57 266.083 130.57 265.51V260Z" fill="white"/>
<path opacity="0.2" d="M311.65 259.99H130.57V263.83H311.65V259.99Z" fill="black"/>
<path d="M315.45 261H126.77C126.197 261 125.648 260.772 125.243 260.367C124.838 259.962 124.61 259.413 124.61 258.84C124.61 258.266 124.837 257.716 125.242 257.309C125.647 256.902 126.196 256.673 126.77 256.67H315.45C316.024 256.673 316.573 256.902 316.978 257.309C317.383 257.716 317.61 258.266 317.61 258.84C317.61 259.413 317.382 259.962 316.977 260.367C316.572 260.772 316.023 261 315.45 261Z" fill="#00A000"/>
<path opacity="0.6" d="M315.45 261H126.77C126.197 261 125.648 260.772 125.243 260.367C124.838 259.962 124.61 259.413 124.61 258.84C124.61 258.266 124.837 257.716 125.242 257.309C125.647 256.902 126.196 256.673 126.77 256.67H315.45C316.024 256.673 316.573 256.902 316.978 257.309C317.383 257.716 317.61 258.266 317.61 258.84C317.61 259.413 317.382 259.962 316.977 260.367C316.572 260.772 316.023 261 315.45 261Z" fill="white"/>
<path d="M270.81 250L273.13 246.52C273.359 246.178 273.668 245.898 274.031 245.704C274.394 245.511 274.799 245.41 275.21 245.41H278.15C278.394 245.411 278.637 245.448 278.87 245.52L289.36 248.7C289.956 248.878 290.463 249.274 290.78 249.81L292.29 252.34L270.81 250Z" fill="#00A000"/>
<path opacity="0.2" d="M292.29 252.34L277 250.68L270.79 250L273.11 246.52C273.339 246.178 273.648 245.898 274.011 245.704C274.374 245.511 274.779 245.41 275.19 245.41H278.13C278.377 245.411 278.623 245.449 278.86 245.52L279.09 245.59L289.34 248.7C289.939 248.877 290.45 249.273 290.77 249.81L292.29 252.34Z" fill="black"/>
<path opacity="0.2" d="M292.29 252.34L277 250.68L279.09 245.59L289.34 248.7C289.939 248.877 290.45 249.273 290.77 249.81L292.29 252.34Z" fill="black"/>
<path d="M299.55 256.33V256.66H267.13L268.33 251.97C268.552 251.109 269.056 250.346 269.76 249.803C270.465 249.259 271.33 248.966 272.22 248.97H286.6C287.078 248.968 287.552 249.052 288 249.22L289.8 249.89L296.94 252.55C297.711 252.836 298.375 253.352 298.842 254.028C299.309 254.704 299.556 255.508 299.55 256.33Z" fill="#00A000"/>
<path opacity="0.2" d="M299.55 256.33V256.66H286.24L286.95 251.59C286.996 251.276 287.111 250.975 287.288 250.711C287.465 250.447 287.698 250.226 287.971 250.064C288.245 249.902 288.551 249.803 288.867 249.775C289.183 249.747 289.502 249.789 289.8 249.9L296.94 252.56C297.709 252.845 298.372 253.36 298.839 254.034C299.306 254.708 299.554 255.51 299.55 256.33Z" fill="black"/>
<path d="M288.31 253.22L292.55 240.51C292.591 240.38 292.661 240.262 292.753 240.162C292.845 240.062 292.958 239.983 293.084 239.932C293.21 239.88 293.345 239.857 293.481 239.864C293.617 239.87 293.75 239.907 293.87 239.97C294.054 240.076 294.2 240.237 294.287 240.432C294.373 240.626 294.395 240.842 294.35 241.05L290.78 254.61C290.78 254.61 288.41 255.57 288.31 253.22Z" fill="#263238"/>
<path opacity="0.2" d="M270.81 255.61H268.93L269.29 253.76H271.17L270.81 255.61Z" fill="black"/>
<path opacity="0.2" d="M273.61 255.54H271.73L272.09 253.69H273.97L273.61 255.54Z" fill="black"/>
</svg>
