<svg width="216" height="191" viewBox="0 0 216 191" fill="none" xmlns="http://www.w3.org/2000/svg">
<g clip-path="url(#clip0)">
<path d="M185.63 157.817C181.985 168.44 177.298 179.039 171.294 189.128C171.16 189.355 171.026 189.578 170.89 189.804L156.024 185.124C156.11 184.91 156.203 184.671 156.304 184.409C162.3 168.979 198.474 74.9674 196.85 56.4316C197.025 57.9489 202.684 108.16 185.63 157.817Z" fill="#E6E6E6"/>
<path d="M174.161 190.031C173.959 190.236 173.752 190.44 173.543 190.64L162.392 187.129C162.542 186.947 162.718 186.733 162.92 186.492C166.223 182.478 176.042 170.461 185.63 157.817C195.934 144.229 205.973 129.919 207.38 124.04C207.097 125.377 198.298 166.079 174.161 190.031Z" fill="#E6E6E6"/>
<path d="M179.736 33.4973C179.731 33.4973 179.728 33.4985 179.723 33.4986V9.71062C179.723 7.1352 178.695 4.66527 176.865 2.84417C175.035 1.02308 172.553 0 169.965 0H95.1252C92.5371 0 90.0551 1.02308 88.2251 2.84417C86.395 4.66527 85.3669 7.1352 85.3669 9.71062V21.9056C85.1603 21.91 84.9636 21.9947 84.819 22.1416C84.6744 22.2885 84.5933 22.4859 84.5931 22.6915V28.7318C84.5933 28.9375 84.6744 29.1349 84.819 29.2818C84.9636 29.4287 85.1603 29.5133 85.3669 29.5177V35.8455H85.3272C85.2233 35.8454 85.1204 35.8658 85.0243 35.9054C84.9283 35.945 84.841 36.003 84.7675 36.0761C84.694 36.1493 84.6357 36.2361 84.5959 36.3317C84.5562 36.4273 84.5357 36.5297 84.5357 36.6331V48.3136C84.5357 48.417 84.5562 48.5194 84.5959 48.615C84.6357 48.7106 84.694 48.7974 84.7675 48.8705C84.841 48.9437 84.9283 49.0017 85.0243 49.0413C85.1204 49.0809 85.2233 49.1012 85.3272 49.1012H85.3669V53.7403H85.3546C85.2506 53.7403 85.1477 53.7607 85.0517 53.8003C84.9556 53.8399 84.8684 53.8979 84.7949 53.971C84.7214 54.0442 84.6631 54.131 84.6233 54.2266C84.5835 54.3221 84.563 54.4246 84.563 54.528V66.3227C84.563 66.4261 84.5835 66.5286 84.6233 66.6241C84.6631 66.7197 84.7214 66.8065 84.7949 66.8797C84.8684 66.9528 84.9556 67.0108 85.0517 67.0504C85.1477 67.09 85.2506 67.1104 85.3546 67.1104H85.3669V181.12C85.3669 183.696 86.395 186.165 88.2251 187.987C90.0551 189.808 92.5371 190.831 95.1252 190.831H169.965C172.553 190.831 175.035 189.808 176.865 187.987C178.695 186.165 179.723 183.696 179.723 181.12V56.6286C179.728 56.6286 179.731 56.6298 179.736 56.6298C179.921 56.6298 180.104 56.5935 180.275 56.523C180.446 56.4525 180.601 56.3492 180.732 56.219C180.863 56.0888 180.967 55.9341 181.038 55.764C181.109 55.5938 181.145 55.4114 181.145 55.2272V34.8999C181.145 34.5279 180.997 34.1712 180.732 33.9081C180.468 33.6451 180.109 33.4973 179.736 33.4973Z" fill="#3F3D56"/>
<path d="M173.897 12.4287V178.399C173.896 180.377 173.106 182.273 171.701 183.671C170.295 185.069 168.39 185.854 166.402 185.854H98.6879C96.7007 185.854 94.7949 185.069 93.3895 183.671C91.9841 182.273 91.1942 180.377 91.1935 178.399V12.4287C91.1935 10.4508 91.9831 8.55389 93.3885 7.15528C94.794 5.75668 96.7002 4.97095 98.6879 4.97095H108.821V6.27966C108.821 7.90811 109.472 9.46966 110.629 10.6211C111.786 11.7726 113.355 12.4199 114.992 12.4206H149.442C151.077 12.417 152.643 11.7684 153.797 10.6171C154.951 9.46589 155.6 7.90598 155.6 6.27966V4.98455H166.402C168.388 4.98455 170.292 5.76841 171.697 7.16408C173.102 8.55974 173.893 10.4532 173.897 12.4287Z" fill="white"/>
<path d="M64.0921 93.129C63.6917 92.9747 63.2621 92.9096 62.8337 92.9384C62.4053 92.9672 61.9884 93.0891 61.6124 93.2955C61.2365 93.502 60.9106 93.7879 60.6577 94.1333C60.4048 94.4786 60.2311 94.875 60.1487 95.2943L36.0185 108.351L40.2611 113.103L62.6704 98.7914C63.3876 98.8823 64.1134 98.7083 64.7102 98.3023C65.307 97.8963 65.7335 97.2866 65.9087 96.5886C66.0839 95.8906 65.9958 95.1529 65.661 94.5153C65.3262 93.8777 64.768 93.3844 64.0921 93.129H64.0921Z" fill="#FFB8B8"/>
<path d="M57.938 187.071L60.9448 185.135L54.8741 172.673L50.4363 175.53L57.938 187.071Z" fill="#FFB8B8"/>
<path d="M68.5497 184.181L59.0996 190.264L56.738 186.631L62.6734 182.81C63.6055 182.21 64.739 182.003 65.8245 182.235C66.9099 182.467 67.8584 183.118 68.4614 184.045L68.5497 184.181L68.5497 184.181Z" fill="#2F2E41"/>
<path d="M24.2005 187.521H27.7814L29.4856 173.776H24.2005V187.521Z" fill="#FFB8B8"/>
<path d="M34.6878 190.83H23.4331V186.503H30.502C31.0517 186.503 31.596 186.611 32.1038 186.82C32.6117 187.029 33.0731 187.336 33.4618 187.723C33.8505 188.11 34.1588 188.569 34.3691 189.074C34.5795 189.58 34.6878 190.121 34.6878 190.668V190.83Z" fill="#2F2E41"/>
<path d="M106.359 26.9341H98.9772C98.7959 26.9341 98.6221 26.8625 98.4939 26.7349C98.3657 26.6073 98.2937 26.4343 98.2937 26.2539C98.2937 26.0735 98.3657 25.9005 98.4939 25.773C98.6221 25.6454 98.7959 25.5737 98.9772 25.5737H106.359C106.541 25.5737 106.715 25.6454 106.843 25.773C106.971 25.9005 107.043 26.0735 107.043 26.2539C107.043 26.4343 106.971 26.6073 106.843 26.7349C106.715 26.8625 106.541 26.9341 106.359 26.9341Z" fill="#3F3D56"/>
<path d="M106.359 28.8387H98.9772C98.7959 28.8387 98.6221 28.767 98.4939 28.6395C98.3657 28.5119 98.2937 28.3389 98.2937 28.1585C98.2937 27.9781 98.3657 27.8051 98.4939 27.6775C98.6221 27.5499 98.7959 27.4783 98.9772 27.4783H106.359C106.541 27.4783 106.715 27.5499 106.843 27.6775C106.971 27.8051 107.043 27.9781 107.043 28.1585C107.043 28.3389 106.971 28.5119 106.843 28.6395C106.715 28.767 106.541 28.8387 106.359 28.8387Z" fill="#3F3D56"/>
<path d="M106.359 30.7432H98.9772C98.7959 30.7432 98.6221 30.6716 98.4939 30.544C98.3657 30.4164 98.2937 30.2434 98.2937 30.063C98.2937 29.8826 98.3657 29.7096 98.4939 29.582C98.6221 29.4545 98.7959 29.3828 98.9772 29.3828H106.359C106.541 29.3828 106.715 29.4545 106.843 29.582C106.971 29.7096 107.043 29.8826 107.043 30.063C107.043 30.2434 106.971 30.4164 106.843 30.544C106.715 30.6716 106.541 30.7432 106.359 30.7432Z" fill="#3F3D56"/>
<path d="M163.584 28.8522H163.335L163.239 28.7733C163.553 28.4005 163.726 27.9294 163.726 27.4428C163.724 27.0425 163.602 26.6517 163.377 26.3201C163.151 25.9884 162.832 25.7306 162.46 25.5794C162.087 25.4282 161.678 25.3903 161.284 25.4705C160.89 25.5507 160.528 25.7454 160.245 26.0301C159.962 26.3147 159.771 26.6764 159.694 27.0695C159.618 27.4626 159.66 27.8694 159.816 28.2384C159.972 28.6075 160.235 28.9222 160.57 29.1429C160.906 29.3635 161.3 29.4801 161.702 29.478C162.19 29.4746 162.661 29.3035 163.037 28.9937L163.13 29.0726V29.3229L164.699 30.8874L165.169 30.4194L163.584 28.8522ZM161.702 28.8522C161.422 28.8533 161.148 28.7717 160.915 28.6177C160.681 28.4638 160.499 28.2443 160.391 27.9872C160.282 27.7301 160.253 27.4468 160.307 27.1732C160.36 26.8996 160.494 26.648 160.692 26.4501C160.889 26.2522 161.141 26.117 161.415 26.0616C161.69 26.0062 161.975 26.033 162.234 26.1387C162.493 26.2443 162.715 26.4241 162.872 26.6553C163.028 26.8865 163.112 27.1586 163.113 27.4374L163.113 27.4428C163.114 27.6268 163.079 27.8093 163.009 27.9797C162.939 28.1501 162.837 28.3051 162.707 28.436C162.577 28.5669 162.422 28.671 162.252 28.7424C162.081 28.8138 161.898 28.8511 161.713 28.8522C161.71 28.8522 161.706 28.8522 161.702 28.8522H161.702Z" fill="#3F3D56"/>
<path d="M121.399 51.9657H108.137C107.339 51.9657 106.574 51.6504 106.01 51.0891C105.446 50.5278 105.129 49.7665 105.129 48.9728C105.129 48.179 105.446 47.4177 106.01 46.8565C106.574 46.2952 107.339 45.9799 108.137 45.9799H121.399C122.197 45.9799 122.962 46.2952 123.526 46.8565C124.09 47.4177 124.407 48.179 124.407 48.9728C124.407 49.7665 124.09 50.5278 123.526 51.0891C122.962 51.6504 122.197 51.9657 121.399 51.9657Z" fill="#00A000"/>
<path d="M162 58.4957H106.77C106.335 58.4957 105.917 58.3237 105.61 58.0176C105.302 57.7114 105.129 57.2962 105.129 56.8632C105.129 56.4302 105.302 56.015 105.61 55.7089C105.917 55.4027 106.335 55.2307 106.77 55.2307H162C162.435 55.2307 162.852 55.4027 163.16 55.7089C163.468 56.015 163.641 56.4302 163.641 56.8632C163.641 57.2962 163.468 57.7114 163.16 58.0176C162.852 58.3237 162.435 58.4957 162 58.4957Z" fill="#E6E6E6"/>
<path d="M127.057 65.0256H106.77C106.335 65.0256 105.917 64.8536 105.61 64.5475C105.302 64.2413 105.129 63.8261 105.129 63.3931C105.129 62.9602 105.302 62.5449 105.61 62.2388C105.917 61.9326 106.335 61.7606 106.77 61.7606H127.057C127.492 61.7606 127.91 61.9326 128.217 62.2388C128.525 62.5449 128.698 62.9602 128.698 63.3931C128.698 63.8261 128.525 64.2413 128.217 64.5475C127.91 64.8536 127.492 65.0256 127.057 65.0256Z" fill="#E6E6E6"/>
<path d="M121.399 124.34H108.137C107.339 124.34 106.574 124.024 106.01 123.463C105.446 122.902 105.129 122.141 105.129 121.347C105.129 120.553 105.446 119.792 106.01 119.23C106.574 118.669 107.339 118.354 108.137 118.354H121.399C122.197 118.354 122.962 118.669 123.526 119.23C124.09 119.792 124.407 120.553 124.407 121.347C124.407 122.141 124.09 122.902 123.526 123.463C122.962 124.024 122.197 124.34 121.399 124.34Z" fill="#00A000"/>
<path d="M162 130.87H106.77C106.335 130.87 105.917 130.698 105.61 130.392C105.302 130.085 105.129 129.67 105.129 129.237C105.129 128.804 105.302 128.389 105.61 128.083C105.917 127.777 106.335 127.605 106.77 127.605H162C162.435 127.605 162.852 127.777 163.16 128.083C163.468 128.389 163.641 128.804 163.641 129.237C163.641 129.67 163.468 130.085 163.16 130.392C162.852 130.698 162.435 130.87 162 130.87Z" fill="#E6E6E6"/>
<path d="M127.057 137.4H106.77C106.335 137.4 105.917 137.228 105.61 136.921C105.302 136.615 105.129 136.2 105.129 135.767C105.129 135.334 105.302 134.919 105.61 134.613C105.917 134.307 106.335 134.135 106.77 134.135H127.057C127.492 134.135 127.91 134.307 128.217 134.613C128.525 134.919 128.698 135.334 128.698 135.767C128.698 136.2 128.525 136.615 128.217 136.921C127.91 137.228 127.492 137.4 127.057 137.4Z" fill="#E6E6E6"/>
<path d="M121.399 157.806H108.137C107.339 157.806 106.574 157.491 106.01 156.929C105.446 156.368 105.129 155.607 105.129 154.813C105.129 154.019 105.446 153.258 106.01 152.697C106.574 152.135 107.339 151.82 108.137 151.82H121.399C122.197 151.82 122.962 152.135 123.526 152.697C124.09 153.258 124.407 154.019 124.407 154.813C124.407 155.607 124.09 156.368 123.526 156.929C122.962 157.491 122.197 157.806 121.399 157.806Z" fill="#00A000"/>
<path d="M162 164.336H106.77C106.335 164.336 105.917 164.164 105.61 163.858C105.302 163.552 105.129 163.136 105.129 162.703C105.129 162.27 105.302 161.855 105.61 161.549C105.917 161.243 106.335 161.071 106.77 161.071H162C162.435 161.071 162.852 161.243 163.16 161.549C163.468 161.855 163.641 162.27 163.641 162.703C163.641 163.136 163.468 163.552 163.16 163.858C162.852 164.164 162.435 164.336 162 164.336Z" fill="#E6E6E6"/>
<path d="M127.057 170.866H106.77C106.335 170.866 105.917 170.694 105.61 170.388C105.302 170.082 105.129 169.666 105.129 169.233C105.129 168.8 105.302 168.385 105.61 168.079C105.917 167.773 106.335 167.601 106.77 167.601H127.057C127.492 167.601 127.91 167.773 128.217 168.079C128.525 168.385 128.698 168.8 128.698 169.233C128.698 169.666 128.525 170.082 128.217 170.388C127.91 170.694 127.492 170.866 127.057 170.866Z" fill="#E6E6E6"/>
<path d="M169.792 107.334H64.2532C63.637 107.334 63.0463 107.09 62.6106 106.656C62.1749 106.223 61.9298 105.635 61.9291 105.022V76.4531C61.9298 75.8399 62.1749 75.2521 62.6106 74.8185C63.0463 74.3849 63.637 74.1411 64.2532 74.1404H169.792C170.409 74.1411 170.999 74.385 171.435 74.8185C171.871 75.2521 172.116 75.8399 172.116 76.4531V105.022C172.116 105.635 171.871 106.223 171.435 106.656C170.999 107.09 170.409 107.334 169.792 107.334Z" fill="#00A000"/>
<path d="M26.3115 141.323C27.3204 148.367 21.9778 179.575 22.5711 179.572L30.2432 179.532C30.5166 179.009 34.0382 162.17 35.1429 159.468C36.6849 155.719 38.2407 151.923 38.8477 147.918C39.4191 144.158 39.1375 140.327 38.7656 136.543C38.7829 136.43 38.7731 136.315 38.7368 136.207C38.7006 136.099 38.6391 136.001 38.5574 135.921C38.4757 135.841 38.3761 135.782 38.2668 135.748C38.1576 135.714 38.0418 135.707 37.929 135.726L27.6348 135.199C25.5131 135.09 25.01 134.627 25.3326 136.7C25.5568 138.249 26.0873 139.756 26.3115 141.323Z" fill="#2F2E41"/>
<path d="M28.3347 124.196C26.2431 127.188 24.0503 130.633 24.7447 134.216C25.2724 136.937 27.3559 139.046 29.3218 141.018C37.1798 148.871 52.6744 183.518 52.6744 183.518C60.1519 178.756 52.4962 183.654 60.084 178.62C59.4114 178.569 44.1301 123.904 42.8641 123.831C37.743 123.494 33.3246 122.996 28.3347 124.196Z" fill="#2F2E41"/>
<path d="M36.6079 95.7086C35.5455 94.7658 28.0794 91.8582 28.0794 91.8582C27.9421 91.8401 27.8028 91.8443 27.6669 91.8705C27.242 91.9773 27.0481 92.5027 27.1389 92.9276C27.2296 93.3524 26.485 100.335 26.2932 103.51C25.957 109.052 29.2365 121.604 29.2076 121.988C29.0952 123.357 28.4929 124.64 27.5101 125.605C27.7655 125.92 43.9876 126.553 45.0911 126.926C45.3138 126.645 43.835 106.734 43.767 105.61C43.6535 103.902 38.0104 97.0017 36.6079 95.7086Z" fill="#E6E6E6"/>
<path d="M25.0376 138.912C25.422 138.722 25.7598 138.45 26.0272 138.115C26.2946 137.781 26.4851 137.392 26.5853 136.977C26.6854 136.561 26.6928 136.129 26.6068 135.71C26.5209 135.292 26.3438 134.897 26.088 134.554L32.9324 96.8594L26.5454 96.7756L21.7923 134.05C21.2414 134.516 20.8814 135.167 20.7806 135.88C20.6797 136.592 20.8449 137.316 21.245 137.916C21.645 138.515 22.252 138.947 22.951 139.131C23.65 139.315 24.3925 139.237 25.0376 138.912H25.0376Z" fill="#FFB8B8"/>
<path d="M24.9826 99.6564C24.7162 99.6757 24.4509 99.6068 24.228 99.4605C23.8479 99.1367 26.9485 94.1821 27.5609 94.1087C29.5542 93.8801 31.6048 93.8039 33.5378 94.3399C35.4709 94.8759 37.2891 96.0949 38.1531 97.8988C38.5141 98.6497 35.8974 102.429 34.7081 101.874C33.2836 101.21 26.8582 99.7027 24.9826 99.6564Z" fill="#E6E6E6"/>
<path d="M32.0177 91.4522C35.9799 91.4522 39.1919 88.2559 39.1919 84.3131C39.1919 80.3702 35.9799 77.174 32.0177 77.174C28.0556 77.174 24.8436 80.3702 24.8436 84.3131C24.8436 88.2559 28.0556 91.4522 32.0177 91.4522Z" fill="#FFB8B8"/>
<path d="M24.9712 96.117C25.9682 96.2208 26.9753 96.0741 27.9006 95.6905C28.8259 95.3069 29.6397 94.6984 30.2677 93.9209C30.8956 93.1434 31.3176 92.2216 31.495 91.2399C31.6724 90.2581 31.5996 89.2478 31.2832 88.3013C30.9977 87.4471 30.5205 86.6642 30.259 85.8024C29.9976 84.9407 29.9905 83.9217 30.5704 83.2309C31.7049 81.8792 33.8918 82.7294 35.641 82.4607C37.5047 82.1743 38.9346 80.3949 39.0838 78.5242C39.2329 76.6534 38.253 74.8021 36.7943 73.6126C35.3356 72.4231 33.4543 71.8375 31.5775 71.6539C29.1672 71.4183 26.7364 71.8041 24.5194 72.7743C22.3024 73.7445 20.3737 75.2664 18.919 77.1934C17.4644 79.1204 16.5328 81.3876 16.214 83.7767C15.8952 86.1659 16.1999 88.5965 17.0988 90.8345C17.8829 92.7868 19.1637 94.6052 20.9829 95.6744C22.8021 96.7437 25.2048 96.9491 27.018 95.8697" fill="#2F2E41"/>
<path d="M101.787 87.2004H83.4534C82.2891 87.2004 81.3418 85.8578 81.3418 84.2075C81.3418 82.5572 82.2891 81.2146 83.4534 81.2146H101.787C102.951 81.2146 103.899 82.5572 103.899 84.2075C103.899 85.8578 102.951 87.2004 101.787 87.2004Z" fill="white"/>
<path d="M151.063 93.7303H82.9823C82.5472 93.7303 82.1299 93.5583 81.8223 93.2522C81.5146 92.946 81.3418 92.5308 81.3418 92.0978C81.3418 91.6649 81.5146 91.2496 81.8223 90.9435C82.1299 90.6373 82.5472 90.4653 82.9823 90.4653H151.063C151.498 90.4653 151.916 90.6373 152.223 90.9435C152.531 91.2496 152.704 91.6649 152.704 92.0978C152.704 92.5308 152.531 92.946 152.223 93.2522C151.916 93.5583 151.498 93.7303 151.063 93.7303Z" fill="#E6E6E6"/>
<path d="M116.121 100.26H82.9823C82.5472 100.26 82.1299 100.088 81.8223 99.7822C81.5146 99.4761 81.3418 99.0608 81.3418 98.6279C81.3418 98.1949 81.5146 97.7797 81.8223 97.4735C82.1299 97.1674 82.5472 96.9954 82.9823 96.9954H116.121C116.556 96.9954 116.973 97.1674 117.281 97.4735C117.588 97.7797 117.761 98.1949 117.761 98.6279C117.761 99.0608 117.588 99.4761 117.281 99.7822C116.973 100.088 116.556 100.26 116.121 100.26Z" fill="#E6E6E6"/>
<path d="M216 190.456H0V191H216V190.456Z" fill="#3F3D56"/>
</g>
<defs>
<clipPath id="clip0">
<rect width="216" height="191" fill="white"/>
</clipPath>
</defs>
</svg>
