<svg width="219" height="163" viewBox="0 0 219 163" fill="none" xmlns="http://www.w3.org/2000/svg">
<g clip-path="url(#clip0)">
<path opacity="0.1" d="M22.0292 16.3222C20.6661 16.8878 19.2672 17.6139 18.5182 18.8866C17.7249 20.231 17.8198 21.9005 17.9675 23.456C19.2546 36.947 22.6453 51.2949 16.7902 63.5153C13.9481 69.444 9.19435 74.195 5.41332 79.5792C1.63229 84.9633 -1.22247 91.6856 0.533007 98.0195C2.67671 105.759 10.6776 110.05 16.0707 116.006C19.6006 119.9 22.0756 124.632 25.3692 128.729C28.6628 132.826 33.176 136.435 38.434 136.675C45.9961 137.024 52.1487 130.491 59.563 128.978C67.1589 127.429 74.8074 131.371 80.9664 136.091C87.1253 140.81 92.7272 146.528 99.9031 149.474C107.828 152.731 116.762 152.233 125.104 154.189C132.7 155.973 139.693 159.765 147.234 161.787C154.774 163.809 163.613 163.687 169.455 158.522C177.07 151.768 176.471 139.738 181.334 130.804C185.852 122.503 194.695 117.547 200.647 110.208C211.357 97.0001 211.007 76.8122 201.913 62.4474C192.819 48.0826 176.347 39.3848 159.503 37.1201C151.907 36.1007 144.085 36.24 136.783 33.9204C117.236 27.7152 105.604 5.48213 85.6483 0.855681C72.9633 -2.08017 60.6265 3.00428 49.8214 9.26222C40.4427 14.6949 31.7898 12.2719 22.0292 16.3222Z" fill="#00A000"/>
<path d="M41.0765 59.9053C41.0765 59.9053 33.8752 66.7035 26.1465 66.9062C22.901 66.9708 19.764 68.0869 17.2066 70.0868C15.9978 71.0427 14.8791 72.1074 13.8645 73.2675" stroke="#535461" stroke-width="2" stroke-miterlimit="10"/>
<path d="M8.99048 73.4344C10.0286 72.9067 13.9911 73.2571 13.9911 73.2571C13.9911 73.2571 11.936 76.6657 10.8979 77.1933C10.6493 77.3408 10.373 77.4355 10.0863 77.4718C9.79953 77.508 9.5084 77.4849 9.23095 77.4039C8.9535 77.3229 8.69564 77.1858 8.47336 77.001C8.25108 76.8162 8.06913 76.5877 7.93877 76.3297C7.80842 76.0717 7.73245 75.7896 7.71558 75.501C7.69871 75.2124 7.7413 74.9234 7.8407 74.6519C7.9401 74.3804 8.09419 74.1323 8.29343 73.9228C8.49267 73.7134 8.73279 73.5471 8.99892 73.4344H8.99048Z" fill="#00A000"/>
<path d="M13.1619 67.4085C14.3202 67.531 17.4556 69.9793 17.4556 69.9793C17.4556 69.9793 13.8687 71.7226 12.7209 71.6023C12.1839 71.5212 11.6988 71.236 11.3667 70.8061C11.0346 70.3763 10.8809 69.8349 10.9377 69.2946C10.9945 68.7543 11.2574 68.2567 11.6717 67.9054C12.086 67.5541 12.6197 67.3762 13.1619 67.4085Z" fill="#00A000"/>
<path d="M23.0533 62.552C23.9901 63.2422 25.4629 66.94 25.4629 66.94C25.4629 66.94 21.4941 66.6381 20.5572 65.9501C20.135 65.6088 19.8605 65.1179 19.7908 64.5794C19.7211 64.0409 19.8615 63.4962 20.1829 63.0586C20.5044 62.621 20.982 62.3242 21.5166 62.2299C22.0512 62.1355 22.6016 62.2509 23.0533 62.552Z" fill="#00A000"/>
<path d="M31.3644 60.566C32.4046 61.0873 34.4808 64.4832 34.4808 64.4832C34.4808 64.4832 30.5183 64.8568 29.4781 64.3355C29.2156 64.2209 28.9793 64.054 28.7834 63.845C28.5875 63.636 28.4361 63.3894 28.3386 63.12C28.2411 62.8507 28.1994 62.5643 28.2161 62.2783C28.2328 61.9923 28.3075 61.7127 28.4357 61.4565C28.5639 61.2003 28.7428 60.973 28.9617 60.7882C29.1806 60.6035 29.4348 60.4652 29.7088 60.3819C29.9828 60.2986 30.2709 60.2719 30.5555 60.3036C30.8401 60.3352 31.1154 60.4245 31.3644 60.566Z" fill="#00A000"/>
<path d="M19.6605 73.8226C20.0065 72.7103 18.9937 68.8606 18.9937 68.8606C18.9937 68.8606 15.9807 71.4609 15.6347 72.5732C15.5372 72.8416 15.4952 73.1271 15.5112 73.4123C15.5272 73.6975 15.6009 73.9764 15.7279 74.2323C15.8548 74.4881 16.0324 74.7155 16.2498 74.9007C16.4671 75.0859 16.7198 75.2251 16.9926 75.3097C17.2653 75.3944 17.5523 75.4227 17.8363 75.3932C18.1204 75.3636 18.3954 75.2766 18.6448 75.1376C18.8943 74.9986 19.1129 74.8103 19.2875 74.5843C19.4621 74.3583 19.589 74.0992 19.6605 73.8226Z" fill="#00A000"/>
<path d="M29.3515 71.368C29.3515 70.203 27.231 66.8345 27.231 66.8345C27.231 66.8345 25.1337 70.2114 25.1358 71.3807C25.1375 71.9405 25.3614 72.4766 25.7583 72.8713C26.1552 73.2659 26.6925 73.4867 27.2521 73.485C27.8117 73.4833 28.3477 73.2593 28.7422 72.8623C29.1367 72.4653 29.3574 71.9278 29.3557 71.368H29.3515Z" fill="#00A000"/>
<path d="M38.4433 67.7041C38.6374 66.5559 37.1182 62.8771 37.1182 62.8771C37.1182 62.8771 34.4787 65.8573 34.2867 67.0054C34.2218 67.5441 34.3669 68.0871 34.6916 68.5216C35.0164 68.9561 35.496 69.2489 36.0309 69.339C36.5657 69.4292 37.1147 69.3099 37.5639 69.0058C38.0132 68.7017 38.3281 68.2363 38.4433 67.7062V67.7041Z" fill="#00A000"/>
<path d="M50.4341 41.9019C50.4341 41.9019 41.7601 37.1362 39.1818 29.8356C38.1225 26.7656 36.096 24.1224 33.4068 22.3028C32.1235 21.4486 30.7647 20.7139 29.3473 20.1078" stroke="#535461" stroke-width="2" stroke-miterlimit="10"/>
<path d="M27.7015 15.5172C28.5223 16.3424 29.4063 20.2238 29.4063 20.2238C29.4063 20.2238 25.5325 19.3162 24.7117 18.4889C24.3493 18.0863 24.1555 17.5596 24.1705 17.018C24.1855 16.4764 24.4082 15.9613 24.7924 15.5794C25.1767 15.1975 25.693 14.978 26.2345 14.9664C26.7761 14.9548 27.3013 15.152 27.7015 15.5172Z" fill="#00A000"/>
<path d="M34.7171 17.6342C34.9577 18.7739 33.5925 22.5118 33.5925 22.5118C33.5925 22.5118 30.8348 19.6435 30.5943 18.5016C30.5229 18.2255 30.5082 17.9377 30.5511 17.6557C30.594 17.3738 30.6935 17.1034 30.8438 16.861C30.994 16.6186 31.1919 16.4091 31.4253 16.2453C31.6587 16.0815 31.9229 15.9667 32.2019 15.9079C32.4809 15.8491 32.769 15.8475 33.0486 15.9031C33.3283 15.9587 33.5938 16.0705 33.8291 16.2317C34.0643 16.3928 34.2645 16.6 34.4175 16.8407C34.5705 17.0814 34.6732 17.3506 34.7192 17.6321L34.7171 17.6342Z" fill="#00A000"/>
<path d="M42.3762 25.5678C42.0091 26.6717 38.9434 29.2107 38.9434 29.2107C38.9434 29.2107 38.0108 25.342 38.3779 24.236C38.5544 23.7043 38.9349 23.2644 39.4357 23.0133C39.9364 22.7621 40.5164 22.7203 41.048 22.8969C41.5796 23.0735 42.0193 23.4541 42.2704 23.955C42.5215 24.4559 42.5633 25.0361 42.3868 25.5678H42.3762Z" fill="#00A000"/>
<path d="M46.824 32.86C46.6488 34.0103 44.0557 37.0306 44.0557 37.0306C44.0557 37.0306 42.4817 33.375 42.6568 32.2247C42.686 31.9405 42.7726 31.6651 42.9113 31.4153C43.0501 31.1655 43.2381 30.9464 43.464 30.7715C43.6899 30.5965 43.9489 30.4693 44.2254 30.3975C44.5019 30.3256 44.7902 30.3107 45.0726 30.3536C45.355 30.3966 45.6258 30.4964 45.8685 30.6471C46.1113 30.7978 46.3209 30.9963 46.4846 31.2305C46.6484 31.4646 46.7629 31.7296 46.8212 32.0094C46.8796 32.2891 46.8805 32.5778 46.824 32.8579V32.86Z" fill="#00A000"/>
<path d="M30.6111 25.7937C31.7758 25.7811 35.1264 23.6325 35.1264 23.6325C35.1264 23.6325 31.7273 21.5641 30.5626 21.5767C30.003 21.5832 29.4689 21.8117 29.0777 22.2121C28.6866 22.6124 28.4705 23.1518 28.4769 23.7116C28.4834 24.2714 28.7118 24.8057 29.1121 25.1969C29.5123 25.5882 30.0515 25.8044 30.6111 25.7979V25.7937Z" fill="#00A000"/>
<path d="M35.9198 34.2657C37.0254 33.9048 39.5805 30.8529 39.5805 30.8529C39.5805 30.8529 35.7172 29.8968 34.6116 30.2577C34.3388 30.3356 34.0844 30.4677 33.8638 30.6462C33.6432 30.8246 33.4608 31.0458 33.3276 31.2964C33.1944 31.547 33.1131 31.8219 33.0886 32.1046C33.064 32.3874 33.0967 32.6722 33.1848 32.942C33.2728 33.2118 33.4143 33.4611 33.6008 33.6749C33.7874 33.8888 34.0151 34.0628 34.2705 34.1866C34.5258 34.3103 34.8035 34.3813 35.0868 34.3953C35.3702 34.4093 35.6535 34.3659 35.9198 34.2678V34.2657Z" fill="#00A000"/>
<path d="M42.2074 41.7921C43.3594 41.6232 46.3935 39.0483 46.3935 39.0483C46.3935 39.0483 42.7475 37.4527 41.5976 37.6215C41.3144 37.6507 41.04 37.737 40.791 37.875C40.542 38.0131 40.3235 38.2002 40.1487 38.4249C39.9738 38.6497 39.8463 38.9075 39.7737 39.1829C39.7011 39.4583 39.685 39.7456 39.7263 40.0273C39.7677 40.3091 39.8656 40.5796 40.0141 40.8225C40.1627 41.0655 40.3589 41.2758 40.5909 41.4409C40.8229 41.606 41.086 41.7224 41.3641 41.7831C41.6423 41.8438 41.9298 41.8476 42.2095 41.7942L42.2074 41.7921Z" fill="#00A000"/>
<path d="M110.127 157.538C152.31 157.538 186.507 123.331 186.507 81.1338C186.507 38.9371 152.31 4.72986 110.127 4.72986C67.9431 4.72986 33.7466 38.9371 33.7466 81.1338C33.7466 123.331 67.9431 157.538 110.127 157.538Z" fill="url(#paint0_linear)"/>
<path d="M110.127 156.271C151.611 156.271 185.241 122.631 185.241 81.1338C185.241 39.6365 151.611 5.99622 110.127 5.99622C68.6423 5.99622 35.0125 39.6365 35.0125 81.1338C35.0125 122.631 68.6423 156.271 110.127 156.271Z" fill="#00A000"/>
<path d="M110.127 140.864C143.104 140.864 169.838 114.122 169.838 81.1338C169.838 48.1458 143.104 21.4037 110.127 21.4037C77.1489 21.4037 50.4151 48.1458 50.4151 81.1338C50.4151 114.122 77.1489 140.864 110.127 140.864Z" fill="#DDE1EC"/>
<path opacity="0.3" d="M111.815 31.9567H108.439V84.7218H111.815V31.9567Z" fill="#535461"/>
<g opacity="0.1">
<path opacity="0.1" d="M161.398 79.8674H113.714V84.0886H161.398V79.8674Z" fill="black"/>
<path opacity="0.1" d="M80.0476 64.0747L78.0899 67.8142L108.094 83.5314L110.051 79.7919L80.0476 64.0747Z" fill="black"/>
<path opacity="0.1" d="M110.127 88.3099C113.623 88.3099 116.457 85.475 116.457 81.9781C116.457 78.4811 113.623 75.6462 110.127 75.6462C106.631 75.6462 103.797 78.4811 103.797 81.9781C103.797 85.475 106.631 88.3099 110.127 88.3099Z" fill="black"/>
</g>
<path d="M161.398 79.0232H113.714V83.2444H161.398V79.0232Z" fill="#535461"/>
<path d="M110.065 78.9524L80.0615 63.2352L78.1038 66.9747L108.108 82.6919L110.065 78.9524Z" fill="#535461"/>
<path d="M110.127 87.4657C113.623 87.4657 116.457 84.6308 116.457 81.1338C116.457 77.6369 113.623 74.802 110.127 74.802C106.631 74.802 103.797 77.6369 103.797 81.1338C103.797 84.6308 106.631 87.4657 110.127 87.4657Z" fill="#535461"/>
<g opacity="0.1">
<path opacity="0.1" d="M55.0528 88.3099C55.0528 55.3211 81.7858 28.5797 114.764 28.5797C124.021 28.5716 133.152 30.7194 141.434 34.8532C149.717 38.9869 156.923 44.9931 162.483 52.3958C152.321 33.9238 132.699 21.4037 110.122 21.4037C77.144 21.4037 50.4109 48.1451 50.4109 81.1338C50.3915 94.0933 54.605 106.704 62.4102 117.048C57.5698 108.244 55.0385 98.3572 55.0528 88.3099Z" fill="black"/>
</g>
<path d="M165.298 37.1952C164.589 36.5135 158.622 40.9943 158.622 40.9943C158.622 40.9943 156.497 41.3826 157.003 42.8411C157.51 44.2995 154.777 52.4675 154.777 52.4675L153.665 50.912C153.773 49.0863 153.271 47.7925 152.781 46.9863C152.741 46.9209 152.701 46.8575 152.661 46.7984L152.855 46.7309C152.781 45.7347 151.188 44.2172 150.342 43.4742C150.342 43.3666 150.342 43.2632 150.342 43.1534C150.395 41.9631 150.872 40.7072 150.342 39.6287C149.743 38.3982 147.99 37.7798 147.842 36.429C147.753 35.6228 148.298 34.8946 148.538 34.1179C149.112 32.2606 147.92 30.3653 146.781 28.7654C146.395 28.1656 145.925 27.624 145.386 27.1572C144.872 26.7816 144.308 26.4803 143.711 26.2623C142.042 25.5869 140.335 25.2471 138.613 24.7848C136.961 24.3458 135.438 24.1369 133.76 24.6877C133.362 24.7951 132.999 25.0038 132.705 25.2935C132.306 25.7409 132.254 26.3783 131.992 26.9123C131.57 27.7713 130.661 28.2842 129.857 28.8351C129.053 29.386 128.247 30.1415 128.243 31.0913C128.243 32.44 129.783 33.2885 130.298 34.5443C130.779 35.7135 130.298 37.0158 130.03 38.2484C129.918 38.6468 129.907 39.0668 129.998 39.4704C130.104 39.7712 130.265 40.0502 130.471 40.2936C130.789 40.7157 131.131 41.1083 131.471 41.5093L131.315 41.5705C128.483 41.2792 126.662 44.8757 126.662 44.8757C126.793 44.9031 126.918 44.9348 127.04 44.9707L126.92 45.1269C126.064 46.2384 125.365 47.462 124.841 48.7634L122.52 51.8745C122.52 51.8745 122.014 44.0948 123.229 42.3451C124.445 40.5954 122.117 39.5253 122.117 39.5253C122.117 39.5253 117.054 33.8858 116.351 34.3712C115.648 34.8566 118.071 40.9837 120.195 41.9567C120.195 41.9567 120.406 43.9006 119.984 45.1648C119.729 45.9648 118.366 54.403 118.366 54.403C118.366 54.403 117.153 61.5009 122.717 57.991C126.331 55.7158 128.667 51.7985 129.857 49.3375C129.94 49.1644 130.018 48.9991 130.091 48.8415C130.146 49.1025 130.183 49.367 130.203 49.633L130.414 57.7652C130.467 59.7766 130.028 61.7706 129.135 63.5735L126.656 68.6031L126.932 68.6875L126.766 68.9282C125.133 71.3321 122.356 76.7374 128.072 79.4917L135.668 80.4647L135.262 82.4086C135.262 82.4086 132.127 88.3394 131.216 92.4234C130.649 94.9244 129.765 97.3424 128.584 99.6185L128.819 99.743C128.77 99.7979 128.719 99.8549 128.671 99.9139C128.21 100.432 127.906 101.07 127.793 101.754L126.764 103.215C126.764 103.215 126.358 109.243 127.169 110.703C127.612 111.501 129.082 112.008 130.334 112.303C132.19 112.744 133.688 110.826 132.703 109.245L132.69 109.224H132.671C132.46 108.242 131.815 105.197 132.026 104.04C132.085 103.711 132.14 103.384 132.167 103.05C132.218 102.612 132.351 102.187 132.56 101.799C132.593 101.733 132.629 101.67 132.665 101.607L132.775 101.653C133.115 101.799 133.45 101.936 133.769 102.056C133.275 102.506 132.925 103.437 133.347 105.351C133.347 105.351 133.387 110.14 133.752 110.893C134.117 111.647 138.202 112.643 138.911 111.866C139.619 111.09 138.455 108.413 138.455 108.413L138.419 108.439C138.185 106.887 137.896 104.11 138.607 103.017C138.894 102.575 139.172 102.12 139.421 101.693L139.575 101.429C140.896 102.088 142.293 102.584 143.057 102.24C143.057 102.24 146.395 94.4601 146.192 93.4893C145.989 92.5184 151.351 81.5285 151.351 81.5285C151.351 81.5285 155.902 76.463 150.34 72.9721C148.574 71.8598 147.287 71.1126 146.352 70.6082L145.57 66.5136C145.167 64.367 145.239 62.1583 145.781 60.0425L146.625 56.8217L146.694 56.5473C146.694 56.5473 148.819 52.1721 148.718 50.129C148.71 49.9703 148.728 49.8114 148.77 49.6583C148.794 49.7554 148.819 49.8567 148.846 49.9622C149.405 52.0857 150.14 54.1586 151.045 56.159C152.659 59.8019 155.054 59.5127 156.366 58.9956C156.647 58.8869 156.897 58.71 157.092 58.4808C157.288 58.2516 157.423 57.9774 157.487 57.6828C157.959 55.4161 159.257 49.0652 159.339 47.3113C159.413 45.9399 159.582 44.5752 159.845 43.2273C163.175 41.2792 166.007 37.8769 165.298 37.1952Z" fill="url(#paint1_linear)"/>
<path d="M140.529 99.5045C140.529 99.5045 140.084 100.397 139.474 101.469C139.235 101.892 138.97 102.345 138.697 102.782C137.733 104.325 138.697 109.241 138.697 109.241L136.587 109.53L134.478 108.475L134.091 104.908V102.299L136.497 99.6079L137.552 98.4429L140.529 99.5045Z" fill="#F8BDC5"/>
<g opacity="0.1">
<path opacity="0.1" d="M140.529 99.5045C140.529 99.5045 140.084 100.397 139.474 101.469C138.542 100.972 137.642 100.418 136.777 99.8105L136.592 99.6797L136.493 99.6079L137.548 98.4429L140.529 99.5045Z" fill="black"/>
</g>
<path d="M150.844 81.4758C150.844 81.4758 145.736 92.3686 145.93 93.3331C146.124 94.2977 142.943 102.01 142.943 102.01C142.217 102.352 140.883 101.86 139.626 101.208C138.678 100.702 137.761 100.138 136.883 99.5193L136.697 99.3885L136.585 99.3083L144.97 76.0747L137.552 70.6315L137.003 70.2283L133.686 67.78L143.814 69.612C143.814 69.612 144.166 69.5677 146.03 70.6104C146.924 71.1106 148.167 71.8598 149.884 72.9869C155.178 76.4631 150.844 81.4758 150.844 81.4758Z" fill="#5E52AD"/>
<g opacity="0.03">
<path opacity="0.03" d="M150.844 81.4758C150.844 81.4758 145.736 92.3686 145.93 93.3331C146.124 94.2977 142.943 102.01 142.943 102.01C142.217 102.352 140.883 101.86 139.626 101.208C138.678 100.702 137.761 100.138 136.883 99.5193L136.697 99.3885L136.585 99.3083L144.97 76.0747L137.552 70.6315L137.003 70.2283L133.686 67.78L143.814 69.612C143.814 69.612 144.166 69.5677 146.03 70.6104C146.924 71.1106 148.167 71.8598 149.884 72.9869C155.178 76.4631 150.844 81.4758 150.844 81.4758Z" fill="black"/>
</g>
<path d="M135.326 101.432C135.326 101.432 132.819 101.045 133.688 105.096C133.688 105.096 133.726 109.844 134.075 110.583C134.423 111.322 138.316 112.318 138.989 111.548C139.662 110.777 138.554 108.126 138.554 108.126C138.554 108.126 135.712 110.199 134.94 107.981C134.167 105.762 135.326 101.432 135.326 101.432Z" fill="#5D3E53"/>
<path d="M133.589 100.661C133.316 100.922 133.093 101.231 132.933 101.573C132.734 101.96 132.607 102.381 132.56 102.814C132.534 103.143 132.482 103.47 132.427 103.795C132.186 105.169 133.108 109.241 133.108 109.241L129.445 109.819L128.097 108.373L127.808 105.193C128.168 104.102 128.363 102.964 128.386 101.816C128.386 100.986 128.808 100.245 129.23 99.705C129.516 99.3444 129.844 99.0192 130.207 98.7362C130.207 98.7362 134.362 99.9857 133.589 100.661Z" fill="#F8BDC5"/>
<g opacity="0.1">
<path opacity="0.1" d="M133.589 100.661C133.316 100.922 133.093 101.231 132.933 101.573C131.433 100.895 129.857 100.041 129.283 99.724L129.239 99.7008C129.525 99.3403 129.853 99.0151 130.215 98.7321C130.215 98.7321 134.362 99.9857 133.589 100.661Z" fill="black"/>
</g>
<path d="M145.445 78.5842C145.445 78.5842 143.038 83.1157 141.493 86.8747C140.48 89.3441 138.387 95.2243 137.062 98.9685L136.868 99.5215C136.286 101.178 135.898 102.299 135.898 102.299C135.641 102.301 135.385 102.263 135.14 102.187C134.912 102.126 134.657 102.044 134.385 101.942L134.079 101.826C133.775 101.708 133.446 101.571 133.131 101.427C131.6 100.743 129.966 99.8528 129.374 99.5278L129.15 99.4033C130.281 97.1368 131.125 94.7383 131.663 92.2631C132.53 88.2149 135.518 82.3432 135.518 82.3432L135.904 80.4141L128.675 79.4496C123.229 76.7269 125.875 71.3596 127.43 68.9767C127.696 68.5631 127.982 68.1637 128.289 67.78L134.072 69.0464C134.072 69.0464 134.984 69.3377 137.009 70.2347L137.94 70.6568C139.075 71.1781 140.472 71.8493 142.16 72.7104C147.853 75.5893 145.445 78.5842 145.445 78.5842Z" fill="#5E52AD"/>
<path d="M133.072 108.952C133.279 109.299 133.377 109.7 133.356 110.104C133.335 110.507 133.195 110.896 132.954 111.22C132.712 111.544 132.38 111.789 132 111.925C131.619 112.061 131.207 112.081 130.815 111.982C129.631 111.689 128.228 111.187 127.806 110.395C127.036 108.949 127.42 102.972 127.42 102.972L128.433 101.478C128.433 101.478 127.903 108.082 129.156 108.654C130.41 109.226 133.06 108.922 133.06 108.922L133.072 108.952Z" fill="#5D3E53"/>
<path d="M134.098 25.1161C133.713 25.2233 133.363 25.4309 133.085 25.7177C132.705 26.1609 132.663 26.7941 132.406 27.3238C132.005 28.1681 131.14 28.6852 130.372 29.2234C129.604 29.7616 128.838 30.5193 128.833 31.4606C128.833 32.7987 130.31 33.6388 130.791 34.8819C131.249 36.0427 130.791 37.3323 130.536 38.5544C130.43 38.95 130.42 39.3655 130.507 39.7659C130.607 40.0629 130.76 40.3395 130.958 40.5827C131.889 41.849 133.045 42.9719 133.667 44.4134C134.14 45.5088 134.271 46.7182 134.395 47.9065C134.575 49.6161 134.754 51.3573 134.429 53.0458C134.397 53.1468 134.397 53.2551 134.429 53.3561C134.484 53.4529 134.572 53.5275 134.676 53.5671C135.29 53.8655 135.958 54.0367 136.64 54.0703C137.321 54.1039 138.003 53.9992 138.643 53.7626C139.284 53.5261 139.87 53.1624 140.366 52.6936C140.862 52.2247 141.258 51.6604 141.531 51.0344C141.953 50.0783 142.116 48.9238 142.951 48.3033C143.049 48.2226 143.166 48.1694 143.291 48.1492C143.488 48.1546 143.679 48.2185 143.839 48.3328C144.924 48.9196 146.238 48.9364 147.447 48.6958C148.177 48.5502 148.924 48.2906 149.408 47.7207C150.359 46.5894 149.83 44.8989 149.893 43.4235C149.943 42.2437 150.397 40.9985 149.893 39.9305C149.323 38.7106 147.65 38.0985 147.511 36.7646C147.426 35.9668 147.945 35.2428 148.175 34.4746C148.722 32.632 147.587 30.7536 146.502 29.1685C146.137 28.5772 145.691 28.0407 145.175 27.575C144.689 27.2045 144.151 26.9059 143.58 26.6885C141.991 26.0195 140.371 25.6818 138.727 25.2259C137.153 24.7763 135.703 24.5674 134.098 25.1161Z" fill="#85555C"/>
<path d="M142.168 52.6511H136.577V43.5882C136.743 42.7178 136.84 41.8356 136.868 40.9499C136.868 40.6523 136.868 40.3484 136.868 40.0424C136.815 38.9617 136.592 37.8832 136.005 37.2247C134.463 35.4898 141.016 35.7789 141.016 35.7789C141.217 36.5756 141.478 37.3559 141.797 38.1133C142.272 39.295 142.903 40.4074 143.675 41.4206C144.354 42.3221 145.223 43.0623 146.222 43.5882C150.07 45.5173 142.168 52.6511 142.168 52.6511Z" fill="#F8BDC5"/>
<g opacity="0.1">
<path opacity="0.1" d="M141.791 38.1133C141.223 38.8537 140.464 39.4248 139.595 39.7648C138.726 40.1048 137.781 40.2008 136.862 40.0424C136.809 38.9617 136.585 37.8832 135.999 37.2247C134.456 35.4898 141.01 35.7789 141.01 35.7789C141.211 36.5756 141.472 37.3559 141.791 38.1133Z" fill="black"/>
</g>
<path d="M137.733 39.8314C140.554 39.8314 142.841 37.5436 142.841 34.7216C142.841 31.8995 140.554 29.6118 137.733 29.6118C134.912 29.6118 132.625 31.8995 132.625 34.7216C132.625 37.5436 134.912 39.8314 137.733 39.8314Z" fill="#F8BDC5"/>
<path d="M158.936 43.4933C158.685 44.8303 158.525 46.1828 158.455 47.5414C158.377 49.2784 157.141 55.5765 156.689 57.8243C156.632 58.1125 156.505 58.3822 156.319 58.6094C156.132 58.8366 155.893 59.0142 155.621 59.1265C154.368 59.6394 152.089 59.9264 150.557 56.3152C149.694 54.3281 148.993 52.274 148.462 50.1733C148.275 49.4672 148.134 48.7494 148.04 48.0247L151.416 46.1927C151.734 46.4901 152.003 46.8355 152.214 47.2164C152.68 48.0163 153.159 49.2995 153.058 51.1083L154.113 52.6512C154.113 52.6512 156.714 44.5528 156.223 43.107C155.731 41.6613 157.765 41.275 157.765 41.275C157.765 41.275 163.451 36.8427 164.127 37.516C164.802 38.1893 162.116 41.5642 158.936 43.4933Z" fill="#F8BDC5"/>
<path d="M131.277 47.3494C131.013 48.1035 130.711 48.8432 130.37 49.5655C129.234 52.0075 127.01 55.8973 123.567 58.1472C118.267 61.6171 119.423 54.5803 119.423 54.5803C119.423 54.5803 120.721 46.2139 120.965 45.4224C121.352 44.1687 121.157 42.2417 121.157 42.2417C119.134 41.2772 116.822 35.205 117.495 34.7216C118.168 34.2383 122.98 39.8314 122.98 39.8314C122.98 39.8314 125.198 40.8867 124.035 42.628C122.873 44.3692 123.36 52.075 123.36 52.075L125.59 48.9957C126.087 47.7107 126.753 46.4983 127.572 45.3907C127.994 44.8145 128.289 44.4663 128.289 44.4663L131.277 47.3494Z" fill="#F8BDC5"/>
<g opacity="0.1">
<path opacity="0.1" d="M152.216 47.2164C151.507 47.4781 148.762 48.5862 148.458 50.1713C148.27 49.4651 148.129 48.7474 148.036 48.0227L151.412 46.1907C151.732 46.4882 152.003 46.8344 152.216 47.2164Z" fill="black"/>
</g>
<g opacity="0.1">
<path opacity="0.1" d="M131.277 47.3494C131.013 48.1035 130.711 48.8432 130.37 49.5655C130.239 48.6115 129.701 46.1717 127.572 45.3844C127.994 44.8082 128.289 44.46 128.289 44.46L131.277 47.3494Z" fill="black"/>
</g>
<g opacity="0.1">
<path opacity="0.1" d="M142.168 52.6511H136.577V43.5882C136.743 42.7178 136.84 41.8357 136.868 40.95C138.018 42.0601 137.733 43.7803 137.733 43.7803L140.721 50.5342L142.168 44.5633L141.687 43.7929L143.671 41.4333C144.349 42.3348 145.219 43.075 146.217 43.6009C150.07 45.5173 142.168 52.6511 142.168 52.6511Z" fill="black"/>
</g>
<g opacity="0.1">
<path opacity="0.1" d="M146.118 71.157C146.118 71.157 141.738 70.8087 137.938 70.6441L137.556 70.6272C137.016 70.6061 136.501 70.5892 135.997 70.5766C132.309 70.4879 128.137 69.1984 127.428 68.9725C127.694 68.5603 127.982 68.1622 128.289 67.78L134.072 69.0464C134.072 69.0464 134.984 69.3377 137.01 70.2347L133.686 67.78L143.814 69.612C143.814 69.612 144.166 69.5677 146.03 70.6103L146.118 71.157Z" fill="black"/>
</g>
<path d="M142.168 44.939L141.687 44.1687L143.827 41.6085C143.827 41.6085 148.239 43.7719 149.395 43.297C149.395 43.297 152.191 45.6186 152.286 46.961C152.286 46.961 148.239 48.3097 148.334 50.338C148.429 52.3663 146.414 56.6993 146.414 56.6993L145.57 60.1649C145.05 62.2652 144.978 64.4513 145.359 66.5812L146.129 70.872C146.129 70.872 140.056 70.3908 136.001 70.2937C131.946 70.1966 127.327 68.6559 127.327 68.6559L129.692 63.677C130.545 61.8802 130.963 59.9077 130.912 57.9193L130.701 49.8589C130.701 49.8589 130.509 45.8107 127.325 45.1353C127.325 45.1353 129.059 41.5684 131.756 41.8575C131.756 41.8575 135.684 40.2176 136.851 41.3257C138.018 42.4337 137.731 44.1708 137.731 44.1708L140.719 50.9247L142.168 44.939Z" fill="#ED677B"/>
<g opacity="0.1">
<path opacity="0.1" d="M134.047 33.6685C134.821 33.6685 135.429 32.8474 136.203 32.8896C136.604 32.9108 136.948 33.1661 137.28 33.3962C138.531 34.2633 139.924 34.906 141.396 35.2957C141.968 35.4477 142.573 35.5617 143.147 35.4224C143.721 35.2831 144.259 34.8314 144.325 34.2425C144.341 33.983 144.306 33.7228 144.223 33.4764C143.574 31.2122 142.104 29.2715 140.101 28.0331C139.299 27.5414 138.32 27.1657 137.431 27.4738C136.63 27.7503 136.113 28.5017 135.533 29.1201C135.095 29.5831 134.599 29.9863 134.056 30.3189C133.634 30.5743 133.001 30.741 132.758 31.2096C132.3 32.0834 133.02 33.66 134.047 33.6685Z" fill="black"/>
</g>
<path d="M134.047 33.4763C134.821 33.4763 135.429 32.6553 136.203 32.6975C136.604 32.7186 136.948 32.974 137.28 33.2041C138.531 34.0711 139.924 34.7139 141.396 35.1036C141.968 35.2556 142.573 35.3695 143.147 35.2302C143.721 35.0909 144.259 34.6393 144.325 34.0504C144.341 33.7909 144.306 33.5307 144.223 33.2843C143.574 31.0201 142.104 29.0794 140.101 27.841C139.299 27.3492 138.32 26.9735 137.431 27.2817C136.63 27.5582 136.113 28.3096 135.533 28.928C135.095 29.391 134.599 29.7941 134.056 30.1268C133.634 30.3822 133.001 30.5489 132.758 31.0175C132.3 31.8997 133.02 33.4658 134.047 33.4763Z" fill="#85555C"/>
<path opacity="0.05" d="M131.711 55.4941C131.711 55.4941 136.433 57.2291 139.518 55.8804L141.061 55.9775C141.061 55.9775 143.624 57.7757 146.335 56.9716" fill="black"/>
<path opacity="0.05" d="M154.071 52.6027C154.071 52.6027 153.3 54.4347 153.684 55.013L154.071 52.6027Z" fill="black"/>
<path opacity="0.05" d="M123.327 52.0243C123.327 52.0243 123.713 53.8563 123.327 54.4346V52.0243Z" fill="black"/>
<path d="M203.256 93.77C203.256 93.77 194.428 102.601 199.411 115.703C204.395 128.806 190.87 150.596 190.87 150.596C190.87 150.596 191.016 150.575 191.292 150.528C209.423 147.327 218.43 126.586 208.349 111.176C204.591 105.446 201.515 98.7257 203.256 93.77Z" fill="#00A000"/>
<path opacity="0.1" d="M203.256 93.9177C203.256 93.9177 194.428 102.749 199.411 115.851C204.395 128.954 190.87 150.742 190.87 150.742C190.87 150.742 191.016 150.72 191.292 150.674C209.423 147.472 218.43 126.731 208.349 111.322C204.591 105.594 201.515 98.8734 203.256 93.9177Z" fill="black"/>
<path d="M203.256 93.77C203.256 93.77 198.272 104.593 203.256 113.424C208.239 122.255 204.1 147.035 190.868 150.596" stroke="#535461" stroke-miterlimit="10"/>
<path d="M218.979 129.486C218.979 129.486 208.906 127.882 207.988 136.911C207.07 145.94 188.613 147.192 188.613 147.192L188.959 147.422C204.192 157.426 218.757 153.794 216.561 140.509C215.751 135.573 215.818 130.613 218.979 129.486Z" fill="#00A000"/>
<path d="M218.979 129.486C218.979 129.486 211.159 131.202 211.805 138.314C212.451 145.427 200.2 153.952 188.621 147.194" stroke="#535461" stroke-miterlimit="10"/>
<path d="M210.117 147.521C210.117 147.521 202.184 145.934 200.067 143.817C197.951 141.7 188.431 137.998 187.374 140.651C186.317 143.304 173.094 152.291 182.084 153.878C191.075 155.465 203.241 155.989 205.885 154.933C208.528 153.878 210.117 147.521 210.117 147.521Z" fill="#A8A8A8"/>
<path opacity="0.2" d="M182.084 152.888C191.077 154.475 203.241 154.999 205.885 153.943C207.9 153.137 209.298 149.266 209.851 147.464L210.115 147.519C210.115 147.519 208.528 153.867 205.885 154.925C203.241 155.982 191.075 155.455 182.084 153.87C179.489 153.412 178.746 152.335 179.027 150.974C179.246 151.862 180.152 152.546 182.084 152.888Z" fill="black"/>
</g>
<defs>
<linearGradient id="paint0_linear" x1="110.127" y1="157.538" x2="110.127" y2="4.72986" gradientUnits="userSpaceOnUse">
<stop stop-color="#808080" stop-opacity="0.25"/>
<stop offset="0.54" stop-color="#808080" stop-opacity="0.12"/>
<stop offset="1" stop-color="#808080" stop-opacity="0.1"/>
</linearGradient>
<linearGradient id="paint1_linear" x1="36924.6" y1="52503.6" x2="36924.6" y2="15801.2" gradientUnits="userSpaceOnUse">
<stop stop-color="#808080" stop-opacity="0.25"/>
<stop offset="0.54" stop-color="#808080" stop-opacity="0.12"/>
<stop offset="1" stop-color="#808080" stop-opacity="0.1"/>
</linearGradient>
<clipPath id="clip0">
<rect width="219" height="163" fill="white"/>
</clipPath>
</defs>
</svg>
