<svg width="217" height="159" viewBox="0 0 217 159" fill="none" xmlns="http://www.w3.org/2000/svg">
<g clip-path="url(#clip0)">
<path opacity="0.2" d="M28.718 80.5547C25.864 81.4159 23.1927 83.501 22.4798 86.3939C21.6643 89.7184 23.5447 93.0697 23.8165 96.4832C24.6943 107.667 8.76465 115.558 11.0371 126.544C11.9394 130.913 15.5866 134.126 19.1802 136.781C24.9372 141.02 31.3246 144.765 38.3983 145.822C49.1347 147.429 60.3523 142.707 70.7879 145.691C79.205 148.098 85.6459 155.155 94.0051 157.758C100.368 159.741 107.223 158.96 113.834 158.157C117.398 157.725 121.132 157.226 124.009 155.09C129.356 151.114 129.692 143.261 133.272 137.633C138.802 128.954 150.926 127.25 161.092 128.937C171.258 130.623 181.13 134.776 191.43 134.437C193.631 134.364 195.886 134.066 197.806 132.987C200.141 131.676 201.719 129.366 203.113 127.081C211.83 112.743 216.615 96.3658 216.987 79.5956C217.047 76.7139 216.944 73.7076 215.588 71.1641C213.872 67.9464 210.443 66.0215 207.03 64.7264C198.833 61.611 189.779 61.1014 181.748 57.5877C174.001 54.1986 167.727 48.2549 160.981 43.1613C147.537 33.0302 131.955 26.0988 115.422 22.8958C111.548 22.1481 107.526 21.614 103.677 22.4774C99.2407 23.4721 95.4176 26.2337 91.9799 29.2066C82.8343 37.1152 75.5044 46.8731 67.0762 55.5405C61.262 61.5178 54.9309 66.9709 48.1566 71.8361C45.0375 74.0814 41.7224 76.7473 38.2468 78.4074C35.0653 79.925 32.0821 79.5422 28.718 80.5547Z" fill="#00A000"/>
<path d="M69.4845 10.2675C69.4845 10.2675 60.8736 21.6898 67.0338 35.0036C73.194 48.3173 56.2975 69.7089 56.2975 69.7089" stroke="#535461" stroke-width="2" stroke-miterlimit="10"/>
<path d="M73.3455 5.99267C72.6616 8.93225 69.3887 10.6835 69.3887 10.6835C69.3887 10.6835 67.2276 7.6683 67.9116 4.72872C68.5956 1.78913 70.3623 -0.31152 71.8684 0.0378477C73.3745 0.387215 74.0295 3.05309 73.3455 5.99267Z" fill="#8ED16F"/>
<path d="M71.1473 5.48047C71.3623 4.55758 71.2558 3.74417 70.9095 3.66367C70.5631 3.58317 70.1081 4.26606 69.8931 5.18895C69.678 6.11183 69.7845 6.92524 70.1308 7.00575C70.4772 7.08625 70.9323 6.40335 71.1473 5.48047Z" fill="#8ED16F"/>
<path opacity="0.3" d="M71.1473 5.48047C71.3623 4.55758 71.2558 3.74417 70.9095 3.66367C70.5631 3.58317 70.1081 4.26606 69.8931 5.18895C69.678 6.11183 69.7845 6.92524 70.1308 7.00575C70.4772 7.08625 70.9323 6.40335 71.1473 5.48047Z" fill="black"/>
<path d="M71.8573 19.0528C69.0145 20.0764 65.7639 18.2829 65.7639 18.2829C65.7639 18.2829 67.1229 14.8315 69.968 13.8101C72.8131 12.7887 75.5378 13.1425 76.0614 14.58C76.5849 16.0175 74.7001 18.0292 71.8573 19.0528Z" fill="#8ED16F"/>
<path d="M71.0587 16.7863C71.9505 16.4642 72.5754 15.9324 72.4545 15.5985C72.3336 15.2646 71.5127 15.2551 70.6209 15.5773C69.7291 15.8995 69.1042 16.4313 69.2251 16.7652C69.346 17.099 70.167 17.1085 71.0587 16.7863Z" fill="#8ED16F"/>
<path opacity="0.3" d="M71.0587 16.7863C71.9505 16.4642 72.5754 15.9324 72.4545 15.5985C72.3336 15.2646 71.5127 15.2551 70.6209 15.5773C69.7291 15.8995 69.1042 16.4313 69.2251 16.7652C69.346 17.099 70.167 17.1085 71.0587 16.7863Z" fill="black"/>
<path d="M71.1956 29.4604C68.3528 30.484 65.1022 28.6904 65.1022 28.6904C65.1022 28.6904 66.4613 25.2391 69.3063 24.2177C72.1514 23.1963 74.8761 23.5501 75.3997 24.9876C75.9233 26.4251 74.0384 28.439 71.1956 29.4604Z" fill="#8ED16F"/>
<path d="M70.4302 27.3512C71.3228 27.0302 71.9487 26.4991 71.8283 26.1649C71.7078 25.8307 70.8866 25.82 69.994 26.141C69.1014 26.462 68.4755 26.9931 68.5959 27.3273C68.7164 27.6614 69.5376 27.6721 70.4302 27.3512Z" fill="#8ED16F"/>
<path opacity="0.3" d="M70.4302 27.3512C71.3228 27.0302 71.9487 26.4991 71.8283 26.1649C71.7078 25.8307 70.8866 25.82 69.994 26.141C69.1014 26.462 68.4755 26.9931 68.5959 27.3273C68.7164 27.6614 69.5376 27.6721 70.4302 27.3512Z" fill="black"/>
<path d="M74.5174 41.6704C71.6746 42.694 68.4241 40.9004 68.4241 40.9004C68.4241 40.9004 69.7831 37.449 72.6282 36.4276C75.4732 35.4062 78.198 35.76 78.7215 37.1976C79.2451 38.6351 77.3603 40.6534 74.5174 41.6704Z" fill="#8ED16F"/>
<path d="M73.7524 39.5667C74.645 39.2458 75.271 38.7147 75.1505 38.3805C75.03 38.0463 74.2088 38.0356 73.3162 38.3566C72.4236 38.6775 71.7977 39.2087 71.9181 39.5428C72.0386 39.877 72.8598 39.8877 73.7524 39.5667Z" fill="#8ED16F"/>
<path opacity="0.3" d="M73.7524 39.5667C74.645 39.2458 75.271 38.7147 75.1505 38.3805C75.03 38.0463 74.2088 38.0356 73.3162 38.3566C72.4236 38.6775 71.7977 39.2087 71.9181 39.5428C72.0386 39.877 72.8598 39.8877 73.7524 39.5667Z" fill="black"/>
<path d="M72.3563 52.8367C69.5135 53.8604 66.263 52.0668 66.263 52.0668C66.263 52.0668 67.622 48.6154 70.4671 47.594C73.3121 46.5726 76.0369 46.9264 76.5604 48.3639C77.084 49.8015 75.2014 51.8153 72.3563 52.8367Z" fill="#8ED16F"/>
<path d="M71.5974 50.5434C72.4891 50.2213 73.114 49.6894 72.9931 49.3556C72.8722 49.0217 72.0513 49.0122 71.1596 49.3344C70.2678 49.6566 69.6429 50.1884 69.7638 50.5222C69.8847 50.8561 70.7056 50.8656 71.5974 50.5434Z" fill="#8ED16F"/>
<path opacity="0.3" d="M71.5974 50.5434C72.4891 50.2213 73.114 49.6894 72.9931 49.3556C72.8722 49.0217 72.0513 49.0122 71.1596 49.3344C70.2678 49.6566 69.6429 50.1884 69.7638 50.5222C69.8847 50.8561 70.7056 50.8656 71.5974 50.5434Z" fill="black"/>
<path d="M59.0222 22.0102C61.1209 24.182 64.8304 24.0129 64.8304 24.0129C64.8304 24.0129 65.1356 20.3167 63.0369 18.1449C60.9382 15.973 58.3382 15.0785 57.2287 16.1421C56.1192 17.2058 56.9235 19.8383 59.0222 22.0102Z" fill="#8ED16F"/>
<path d="M62.3025 21.2394C62.5583 20.9927 62.2316 20.2401 61.5727 19.5583C60.9138 18.8766 60.1723 18.524 59.9164 18.7706C59.6606 19.0173 59.9873 19.7699 60.6462 20.4517C61.3051 21.1334 62.0466 21.486 62.3025 21.2394Z" fill="#8ED16F"/>
<path opacity="0.3" d="M62.3025 21.2394C62.5583 20.9927 62.2316 20.2401 61.5727 19.5583C60.9138 18.8766 60.1723 18.524 59.9164 18.7706C59.6606 19.0173 59.9873 19.7699 60.6462 20.4517C61.3051 21.1334 62.0466 21.486 62.3025 21.2394Z" fill="black"/>
<path d="M57.8169 56.4996C59.9156 58.6714 63.6251 58.5023 63.6251 58.5023C63.6251 58.5023 63.9303 54.8061 61.8316 52.6343C59.7329 50.4624 57.1329 49.5678 56.0234 50.6315C54.9139 51.6952 55.7182 54.3277 57.8169 56.4996Z" fill="#8ED16F"/>
<path d="M61.094 55.7319C61.3499 55.4852 61.0231 54.7326 60.3643 54.0509C59.7054 53.3692 58.9638 53.0165 58.708 53.2632C58.4521 53.5099 58.7789 54.2625 59.4378 54.9442C60.0967 55.6259 60.8382 55.9786 61.094 55.7319Z" fill="#8ED16F"/>
<path opacity="0.3" d="M61.094 55.7319C61.3499 55.4852 61.0231 54.7326 60.3643 54.0509C59.7054 53.3692 58.9638 53.0165 58.708 53.2632C58.4521 53.5099 58.7789 54.2625 59.4378 54.9442C60.0967 55.6259 60.8382 55.9786 61.094 55.7319Z" fill="black"/>
<path d="M60.5996 34.2002C63.3043 35.5487 66.742 34.1468 66.742 34.1468C66.742 34.1468 65.7951 30.5619 63.0926 29.2134C60.3902 27.8648 57.6387 27.8782 56.9502 29.2668C56.2618 30.6553 57.8949 32.8517 60.5996 34.2002Z" fill="#8ED16F"/>
<path d="M63.4266 32.3741C63.5854 32.0563 63.026 31.4556 62.1771 31.0326C61.3282 30.6095 60.5114 30.5241 60.3526 30.8419C60.1938 31.1597 60.7533 31.7603 61.6021 32.1834C62.451 32.6065 63.2678 32.6919 63.4266 32.3741Z" fill="#8ED16F"/>
<path opacity="0.3" d="M63.4266 32.3741C63.5854 32.0563 63.026 31.4556 62.1771 31.0326C61.3282 30.6095 60.5114 30.5241 60.3526 30.8419C60.1938 31.1597 60.7533 31.7603 61.6021 32.1834C62.451 32.6065 63.2678 32.6919 63.4266 32.3741Z" fill="black"/>
<path d="M61.7336 46.3435C64.4383 47.692 67.876 46.2901 67.876 46.2901C67.876 46.2901 66.9291 42.7052 64.2267 41.3567C61.5242 40.0082 58.7727 40.0215 58.0843 41.4101C57.3958 42.7986 59.0401 45.0083 61.7336 46.3435Z" fill="#8ED16F"/>
<path d="M64.5615 44.519C64.7203 44.2012 64.1609 43.6005 63.312 43.1775C62.4632 42.7544 61.6463 42.669 61.4876 42.9868C61.3288 43.3046 61.8882 43.9052 62.7371 44.3283C63.5859 44.7514 64.4028 44.8368 64.5615 44.519Z" fill="#8ED16F"/>
<path opacity="0.3" d="M64.5615 44.519C64.7203 44.2012 64.1609 43.6005 63.312 43.1775C62.4632 42.7544 61.6463 42.669 61.4876 42.9868C61.3288 43.3046 61.8882 43.9052 62.7371 44.3283C63.5859 44.7514 64.4028 44.8368 64.5615 44.519Z" fill="black"/>
<path d="M28.0117 34.8188C28.0117 34.8188 43.7387 50.527 34.8604 73.8367C25.9821 97.1464 50.0793 135.908 50.0793 135.908C50.0793 135.908 49.8209 135.871 49.3419 135.786C17.037 130.092 0.995899 93.1921 18.953 65.7813C25.6212 55.5895 31.113 43.6354 28.0117 34.8188Z" fill="#8ED16F"/>
<path d="M0 98.3525C0 98.3525 17.9459 95.4975 19.5812 111.562C21.2165 127.626 54.0896 129.853 54.0896 129.853C54.0896 129.853 53.8668 130 53.4725 130.263C26.3296 148.065 0.383204 141.598 4.29321 117.968C5.75028 109.181 5.62997 100.357 0 98.3525Z" fill="#8ED16F"/>
<g opacity="0.3">
<path opacity="0.3" d="M0 98.3525C0 98.3525 17.9459 95.4975 19.5812 111.562C21.2165 127.626 54.0896 129.853 54.0896 129.853C54.0896 129.853 53.8668 130 53.4725 130.263C26.3296 148.065 0.383204 141.598 4.29321 117.968C5.75028 109.181 5.62997 100.357 0 98.3525Z" fill="white"/>
</g>
<path d="M23.469 98.1545C26.1944 98.1545 28.4038 92.3969 28.4038 85.2946C28.4038 78.1923 26.1944 72.4348 23.469 72.4348C20.7435 72.4348 18.5341 78.1923 18.5341 85.2946C18.5341 92.3969 20.7435 98.1545 23.469 98.1545Z" fill="#8ED16F"/>
<path opacity="0.3" d="M23.469 98.1545C26.1944 98.1545 28.4038 92.3969 28.4038 85.2946C28.4038 78.1923 26.1944 72.4348 23.469 72.4348C20.7435 72.4348 18.5341 78.1923 18.5341 85.2946C18.5341 92.3969 20.7435 98.1545 23.469 98.1545Z" fill="black"/>
<path d="M23.0181 131.999C24.3171 130.701 23.0263 127.309 20.1351 124.421C17.2439 121.533 13.8471 120.244 12.5481 121.541C11.2491 122.839 12.5398 126.232 15.431 129.119C18.3222 132.007 21.7191 133.296 23.0181 131.999Z" fill="#8ED16F"/>
<path opacity="0.3" d="M23.0181 131.999C24.3171 130.701 23.0263 127.309 20.1351 124.421C17.2439 121.533 13.8471 120.244 12.5481 121.541C11.2491 122.839 12.5398 126.232 15.431 129.119C18.3222 132.007 21.7191 133.296 23.0181 131.999Z" fill="black"/>
<path d="M161.277 59.072H44.4583C43.0466 59.072 41.6928 59.6321 40.6947 60.6291C39.6965 61.6261 39.1357 62.9783 39.1357 64.3882V132.777C39.1357 134.187 39.6965 135.54 40.6947 136.537C41.6928 137.534 43.0466 138.094 44.4583 138.094H161.277C162.689 138.094 164.043 137.534 165.041 136.537C166.039 135.54 166.6 134.187 166.6 132.777V64.3882C166.6 62.9783 166.039 61.6261 165.041 60.6291C164.043 59.6321 162.689 59.072 161.277 59.072Z" fill="url(#paint0_linear)"/>
<path d="M159.571 60.0022H46.1626C43.1099 60.0022 40.6351 62.474 40.6351 65.5231V131.643C40.6351 134.692 43.1099 137.163 46.1626 137.163H159.571C162.623 137.163 165.098 134.692 165.098 131.643V65.5231C165.098 62.474 162.623 60.0022 159.571 60.0022Z" fill="#00A000"/>
<path d="M165.098 73.5051H40.6351V87.6512H165.098V73.5051Z" fill="#00A000"/>
<path opacity="0.3" d="M165.098 73.5051H40.6351V87.6512H165.098V73.5051Z" fill="black"/>
<path d="M153.297 98.1544H52.4387V105.013H153.297V98.1544Z" fill="#D6D6E3"/>
<path d="M60.8068 132.021C66.2589 132.021 70.6787 127.606 70.6787 122.161C70.6787 116.715 66.2589 112.301 60.8068 112.301C55.3547 112.301 50.9348 116.715 50.9348 122.161C50.9348 127.606 55.3547 132.021 60.8068 132.021Z" fill="#00A000"/>
<path opacity="0.3" d="M60.8068 132.021C66.2589 132.021 70.6787 127.606 70.6787 122.161C70.6787 116.715 66.2589 112.301 60.8068 112.301C55.3547 112.301 50.9348 116.715 50.9348 122.161C50.9348 127.606 55.3547 132.021 60.8068 132.021Z" fill="black"/>
<path d="M158.022 40.9762C158.182 41.4794 158.52 41.9069 158.974 42.1778C161.021 43.5285 165.473 43.2415 166.007 43.2415C166.121 43.2415 166.27 43.444 166.435 43.7845C167.221 45.4044 168.44 50.1532 168.523 51.2213C168.632 52.5142 169.835 58.5647 171.804 60.8189C171.864 60.8879 171.925 60.9524 171.983 61.0125C173.914 62.9507 176.18 60.8189 176.18 60.8189L176.505 59.6907C176.414 60.1357 176.311 60.6542 176.209 61.235C176.158 61.5265 176.106 61.8358 176.057 62.154C175.764 63.9471 175.61 65.7602 175.596 67.577C175.591 68.2367 175.62 68.8962 175.681 69.5531C175.699 69.7355 175.719 69.9158 175.743 70.0916C175.844 70.8917 175.893 71.6974 175.89 72.5038C175.872 77.2926 174.649 83.2496 174.649 83.2496L174.696 83.234C174.667 83.3831 174.649 83.4566 174.649 83.4566L174.721 83.4343C174.686 83.6554 174.654 83.8816 174.623 84.113C174.208 87.1171 173.97 90.8556 173.856 93.0141C173.797 94.1527 173.848 95.2943 174.008 96.4232L176.182 111.713V118.834C176.175 119.913 176.307 120.988 176.574 122.034C177.283 124.724 176.699 134.115 176.372 138.57C176.28 139.785 176.209 140.635 176.189 140.88V140.953L176.251 140.929C176.251 140.98 176.251 141.007 176.251 141.007C176.344 140.967 176.441 140.938 176.541 140.922C175.679 142.257 174.117 144.465 172.916 144.836C172.208 145.052 171.579 145.468 171.105 146.036L171.074 146.078L171.029 146.14C170.881 146.339 170.79 146.574 170.768 146.821C170.751 146.779 170.738 146.735 170.728 146.69C170.637 147.186 170.935 147.64 171.873 147.86C172.42 147.965 172.977 148.009 173.533 147.994C176.786 147.994 182.559 146.995 183.196 145.92V142.213L183.3 142.246V142.279L183.699 142.411L184.793 138.743C186.105 137.773 185.016 120.409 184.793 116.419C184.593 112.783 186.845 98.3191 187.244 95.7712L187.19 95.7067L187.251 95.3351C187.331 95.3932 187.405 95.4588 187.473 95.5309C187.604 95.6862 187.718 95.8547 187.814 96.0338C188.003 96.3522 188.164 96.6857 188.298 97.0307C190.499 102.514 191.49 118.193 191.49 119.599V134.344C191.486 135.799 191.688 137.247 192.092 138.645C192.294 139.381 192.45 140.129 192.56 140.884C192.606 141.18 192.647 141.474 192.684 141.754C192.722 142.035 192.76 142.355 192.789 142.618C192.789 142.687 192.805 142.753 192.811 142.816C192.818 142.878 192.811 142.876 192.811 142.907C192.872 143.488 192.903 143.868 192.903 143.868C192.911 143.836 192.926 143.807 192.947 143.781L192.958 143.922C192.974 143.868 193.004 143.821 193.045 143.784C193.136 143.695 193.234 143.614 193.339 143.543V145.417L193.286 145.377V145.7C195.554 147.409 199.246 147.925 202.08 147.905C203.918 147.905 205.406 147.682 205.923 147.424C206.662 147.061 206.257 146.216 205.584 145.568C205.063 145.065 204.383 144.678 203.953 144.727C203.236 144.805 200.783 142.03 199.497 140.51L199.642 140.446L199.847 140.357V115.772C199.847 115.772 200.177 106.065 201.159 96.4655C201.626 91.6264 201.052 86.7436 199.477 82.1437L199.446 82.0524L199.745 82.0991C200.061 82.1481 200.23 82.177 200.23 82.177C200.23 82.177 200.23 82.1014 200.21 81.9545H200.23C200.23 81.9545 199.847 77.791 199.843 72.5616C199.843 66.6335 200.344 59.4058 202.418 55.3158C203.612 52.9615 204.011 51.0878 203.978 49.6102C204.03 48.3101 203.655 47.0285 202.911 45.9608C202.598 45.5309 202.174 45.1953 201.683 44.9905L201.641 44.9661H201.618C201.26 44.8213 200.878 44.7458 200.491 44.7435H196.011C195.492 44.744 194.982 44.6098 194.531 44.3541L192.778 43.3617C192.194 42.0866 192.11 40.5066 192.234 39.0246C192.234 38.9067 192.257 38.7887 192.268 38.673L192.395 38.5395C192.493 38.4349 192.584 38.317 192.673 38.2168C192.671 38.3046 192.665 38.3923 192.653 38.4794C192.631 38.6196 192.593 38.7019 192.533 38.7197C193.491 38.5951 194.56 38.406 195.149 37.6672C195.173 37.6383 195.195 37.6071 195.218 37.5759C195.391 37.2949 195.535 36.9966 195.648 36.6858C195.73 36.4735 195.84 36.273 195.975 36.0895C196.122 35.8981 196.314 35.7423 196.472 35.5598L196.499 35.5287C197.062 34.8611 197.093 33.9042 197.1 33.0319C197.111 30.9135 197.049 28.5814 195.63 26.9926C194.451 25.6707 192.571 25.1701 190.786 25.1122C189.002 25.0544 187.222 25.3748 185.439 25.3837C184.227 25.3837 182.766 25.3637 182.097 26.365C181.77 26.8568 181.73 27.4999 181.373 27.9717C181.168 28.2432 180.854 28.4768 180.836 28.8151C180.834 28.9711 180.874 29.1249 180.952 29.2601V29.2757C181.384 30.1257 182.302 30.6554 183.26 30.8223C183.098 31.0169 182.95 31.2221 182.815 31.4364C182.23 32.3703 181.921 33.4502 181.924 34.5518C181.924 34.6809 181.924 34.8077 181.937 34.9345C182.036 36.4307 182.704 37.8325 183.804 38.8533C183.786 38.9779 183.768 39.1025 183.748 39.2249L183.788 39.2605C183.915 39.3747 184.046 39.483 184.183 39.5854L184.232 39.6232C184.232 39.7011 184.232 39.779 184.232 39.8457C184.232 39.9748 184.232 40.1061 184.218 40.2329C184.205 40.3598 184.218 40.4376 184.205 40.54L184.176 40.5155L181.999 38.6997L178.499 35.4642C178.499 35.4642 169.748 29.1021 169.309 32.1263C169.256 32.6634 169.404 33.201 169.726 33.635C171.332 36.0828 176.855 38.1656 176.855 38.1656C176.855 38.1656 180.148 41.6437 182.351 45.3933C182.273 45.4356 182.195 45.4757 182.113 45.5135C180.152 46.4236 177.292 46.0387 177.292 46.0387C173.988 46.5527 173.689 50.1688 173.707 51.6308C173.707 51.6997 173.707 51.7665 173.707 51.8266C173.707 51.8867 173.707 51.9 173.707 51.9334L169.322 41.6504L169.309 41.6193C169.166 41.2845 168.941 40.9911 168.654 40.7663C168.368 40.5415 168.029 40.3925 167.669 40.3331C164.737 39.8413 157.41 38.8154 158.022 40.9762ZM176.378 140.891C176.442 140.876 176.507 140.864 176.572 140.855L176.552 140.886L176.378 140.891Z" fill="url(#paint1_linear)"/>
<path d="M198.285 138.788C198.285 138.788 202.438 144.002 203.398 143.895C204.359 143.788 206.593 145.915 205.317 146.565C204.04 147.215 196.69 147.629 193.063 144.863V140.695L198.285 138.788Z" fill="#ACA9C9"/>
<path d="M177.301 139.106C177.301 139.106 174.85 143.468 173.148 144.002C171.446 144.536 169.953 146.449 172.19 146.981C174.427 147.513 182.416 146.343 183.16 145.065V139.424L177.301 139.106Z" fill="#ACA9C9"/>
<path d="M174.224 96.2585L176.34 111.341V118.353C176.334 119.417 176.463 120.477 176.724 121.509C177.414 124.163 176.846 133.425 176.525 137.82C176.421 139.253 176.34 140.17 176.34 140.17C177.724 139.531 183.583 141.552 183.583 141.552L184.176 139.538L184.648 137.936C185.927 136.979 184.871 119.851 184.648 115.905C184.503 113.211 185.707 104.474 186.477 99.2381C186.7 97.7583 186.881 96.5678 186.99 95.8512C187.059 95.4062 187.097 95.1592 187.097 95.1592C187.332 95.3504 187.527 95.5855 187.672 95.8512C187.855 96.1657 188.012 96.4947 188.142 96.8348C190.285 102.244 191.261 117.71 191.261 119.088V133.632C191.256 135.067 191.454 136.495 191.847 137.875C192.111 138.882 192.303 139.906 192.424 140.94C192.575 142.095 192.647 143.025 192.647 143.025C192.753 142.386 199.357 139.513 199.357 139.513V115.258C199.357 115.258 199.676 105.689 200.636 96.214C201.049 91.904 200.633 87.5549 199.41 83.4009C199.145 82.4952 198.88 81.7274 198.651 81.12C198.261 80.0852 197.982 79.5133 197.982 79.5133H176.229C175.864 79.5823 175.561 80.3166 175.287 81.4315C175.108 82.1792 174.952 83.096 174.816 84.1018C174.413 87.0636 174.181 90.7509 174.07 92.8827C174.014 94.0103 174.065 95.1406 174.224 96.2585Z" fill="#618FD8"/>
<g opacity="0.1">
<path opacity="0.1" d="M198.974 139.582V115.327C198.974 115.327 199.292 105.758 200.253 96.283C201.213 86.8078 197.579 79.5801 197.579 79.5801H198.005C198.005 79.5801 201.625 86.8144 200.678 96.283C199.731 105.751 199.399 115.327 199.399 115.327V139.582C199.399 139.582 192.796 142.455 192.689 143.094C192.689 143.094 192.689 142.951 192.655 142.707C194.095 141.707 198.974 139.582 198.974 139.582Z" fill="black"/>
<path opacity="0.1" d="M176.98 140.103C176.779 140.107 176.58 140.148 176.394 140.223V140.116C176.589 140.097 176.784 140.092 176.98 140.103Z" fill="black"/>
<path opacity="0.1" d="M184.276 137.989C185.555 137.032 184.499 119.904 184.276 115.959C184.053 112.014 186.727 95.215 186.727 95.215C186.867 95.323 186.991 95.4503 187.095 95.5933C186.702 98.1034 184.51 112.374 184.704 115.959C184.927 119.895 185.983 137.023 184.704 137.989L183.639 141.605L183.251 141.476L184.276 137.989Z" fill="black"/>
</g>
<path d="M178.577 53.2529L176.349 61.1259C176.349 61.1259 174.006 63.3512 172.089 61.1259C170.173 58.9007 168.993 52.9347 168.877 51.6574C168.761 50.3801 167.066 43.7844 166.426 43.7844C165.787 43.7844 159.397 44.2094 158.651 41.5591C158.054 39.4273 165.187 40.4465 168.044 40.9249C168.395 40.9848 168.726 41.1324 169.005 41.3542C169.285 41.5759 169.503 41.8646 169.641 42.1934L174.021 52.641C174.021 52.641 176.34 49.9551 178.577 53.2529Z" fill="#F7C4A7"/>
<path d="M192.956 34.9546C192.956 34.9546 190.187 42.7208 193.703 45.4868C197.218 48.2528 181.13 48.9983 181.13 48.9983L183.314 46.9243C183.314 46.9243 184.858 40.807 183.793 35.7001L192.956 34.9546Z" fill="#F7C4A7"/>
<path opacity="0.1" d="M189.547 45.4868C189.547 45.4868 192.37 44.7948 192.37 44.0515L194.872 45.4868H201.157C201.157 45.4868 205.738 48.0392 201.904 55.7008C198.069 63.3624 199.774 82.1815 199.774 82.1815C199.774 82.1815 186.141 79.7337 174.85 83.4588C174.85 83.4588 176.554 75.054 175.915 70.2674C175.275 65.4809 176.98 58.7783 176.98 58.7783L177.938 54.735C177.938 54.735 177.884 50.9521 173.943 52.8725C173.943 52.8725 173.357 47.3939 177.405 46.7552C177.405 46.7552 182.084 47.3939 183.476 45.0529C183.476 45.0618 186.567 46.8709 189.547 45.4868Z" fill="black"/>
<path d="M189.547 45.2754C189.547 45.2754 192.37 44.5833 192.37 43.8401L194.204 44.8926C194.642 45.1434 195.138 45.2753 195.643 45.2754H200.039C200.498 45.2741 200.951 45.3819 201.361 45.5901C201.77 45.7983 202.124 46.1008 202.394 46.4726C203.403 47.8901 204.307 50.685 201.904 55.4894C198.069 63.1488 199.774 81.9701 199.774 81.9701C199.774 81.9701 186.141 79.5223 174.85 83.2474C174.85 83.2474 176.554 74.8425 175.915 70.056C175.275 65.2694 176.98 58.5825 176.98 58.5825L177.938 54.5392C177.938 54.5392 177.884 50.7562 173.943 52.6766C173.943 52.6766 173.373 47.3493 177.238 46.5883C177.346 46.5644 177.456 46.5569 177.566 46.566C178.392 46.6528 182.244 46.931 183.479 44.8459C183.476 44.8481 186.567 46.6573 189.547 45.2754Z" fill="#E14B5A"/>
<path opacity="0.1" d="M200.306 54.9553C200.306 54.9553 196.897 57.0827 191.359 54.9553C191.359 54.9553 185.288 52.73 183.369 48.3596C181.451 43.9892 193.061 49.1051 193.061 49.1051C193.061 49.1051 195.512 49.1051 196.256 48.5732C197 48.0414 202.222 52.6143 200.306 54.9553Z" fill="black"/>
<path d="M200.306 54.5303C200.306 54.5303 196.897 56.6576 191.359 54.5303C191.359 54.5303 185.288 52.305 183.369 47.9346C181.451 43.5641 176.98 38.7776 176.98 38.7776C176.98 38.7776 169.204 35.798 169.628 32.8205C170.051 29.8431 178.575 36.1184 178.575 36.1184L181.984 39.3094L193.061 48.6711C193.061 48.6711 195.512 48.6711 196.256 48.1393C197 47.6075 202.222 52.1893 200.306 54.5303Z" fill="#F7C4A7"/>
<path opacity="0.1" d="M183.69 36.0182L192.849 35.2727C192.378 36.6791 192.058 38.1314 191.894 39.6053C190.829 40.7081 189.373 41.3493 187.84 41.3909C186.306 41.4325 184.818 40.8712 183.695 39.8278C183.928 38.5685 183.927 37.2769 183.69 36.0182Z" fill="black"/>
<path d="M187.792 41.0718C191.027 41.0718 193.649 38.4526 193.649 35.2216C193.649 31.9906 191.027 29.3713 187.792 29.3713C184.557 29.3713 181.935 31.9906 181.935 35.2216C181.935 38.4526 184.557 41.0718 187.792 41.0718Z" fill="#F7C4A7"/>
<path opacity="0.1" d="M191.007 36.4922C190.664 35.927 191.361 35.1904 191.132 34.5718C190.92 34.0021 190.078 33.9042 189.795 33.3723C189.572 32.9429 189.795 32.4155 189.706 31.9415C189.579 31.3295 188.919 30.949 188.293 30.9179C187.667 30.8867 187.063 31.1204 186.468 31.3206C185.499 31.6478 184.479 31.8992 183.463 31.7835C182.447 31.6678 181.433 31.1159 180.981 30.2102C180.907 30.0783 180.868 29.9297 180.867 29.7785C180.885 29.4447 181.193 29.2155 181.391 28.9485C181.739 28.4834 181.779 27.8492 182.095 27.3641C182.741 26.3761 184.16 26.4006 185.341 26.3961C187.079 26.3961 188.808 26.0712 190.546 26.1291C192.283 26.187 194.11 26.6787 195.262 27.9827C196.643 29.5516 196.706 31.848 196.695 33.9398C196.695 34.801 196.659 35.7378 196.109 36.4032C195.948 36.5968 195.752 36.757 195.598 36.955C195.264 37.4001 195.175 37.9697 194.861 38.4215C194.304 39.2248 193.217 39.4206 192.248 39.5497C192.533 39.5119 192.297 37.6048 192.248 37.429C192.061 36.5523 191.858 36.5701 191.007 36.4922Z" fill="black"/>
<path d="M191.007 36.2807C190.664 35.7155 191.361 34.979 191.132 34.3603C190.92 33.7907 190.078 33.6928 189.795 33.1609C189.572 32.7314 189.795 32.2041 189.706 31.7301C189.579 31.1181 188.919 30.7376 188.293 30.7064C187.667 30.6753 187.063 30.9089 186.468 31.1092C185.499 31.4363 184.479 31.6878 183.463 31.5721C182.447 31.4564 181.433 30.9045 180.981 29.9988C180.907 29.8669 180.868 29.7183 180.867 29.5671C180.885 29.2333 181.193 29.0041 181.391 28.7371C181.739 28.272 181.779 27.6378 182.095 27.1527C182.741 26.1647 184.16 26.1892 185.341 26.1847C187.079 26.1847 188.808 25.8598 190.546 25.9177C192.283 25.9755 194.11 26.4673 195.262 27.7713C196.643 29.3401 196.706 31.6366 196.695 33.7284C196.695 34.5895 196.659 35.5264 196.109 36.1917C195.948 36.3853 195.752 36.5456 195.598 36.7436C195.264 37.1887 195.175 37.7583 194.861 38.2101C194.304 39.0134 193.217 39.2092 192.248 39.3383C192.533 39.3004 192.297 37.3934 192.248 37.2176C192.061 36.3297 191.858 36.3564 191.007 36.2807Z" fill="#281C1C"/>
<path opacity="0.1" d="M200.253 55.2223C200.253 55.2223 197.376 47.7744 195.14 47.563C192.903 47.3515 199.399 47.563 199.399 47.563L201.529 51.3926L200.253 55.2223Z" fill="black"/>
<path d="M200.467 55.2223C200.467 55.2223 197.59 47.7744 195.353 47.563C193.117 47.3515 199.613 47.563 199.613 47.563L201.743 51.3926L200.467 55.2223Z" fill="#E14B5A"/>
<path d="M192.415 140.958C192.566 142.112 192.638 143.043 192.638 143.043C192.745 142.404 199.348 139.531 199.348 139.531V137.802C199.18 137.796 199.011 137.804 198.845 137.827C197.564 137.998 196.376 138.619 195.28 139.282C194.354 139.889 193.398 140.448 192.415 140.958Z" fill="#618FD8"/>
<path opacity="0.3" d="M192.415 140.958C192.566 142.112 192.638 143.043 192.638 143.043C192.745 142.404 199.348 139.531 199.348 139.531V137.802C199.18 137.796 199.011 137.804 198.845 137.827C197.564 137.998 196.376 138.619 195.28 139.282C194.354 139.889 193.398 140.448 192.415 140.958Z" fill="black"/>
<path d="M176.34 140.17C177.724 139.531 183.583 141.552 183.583 141.552L184.176 139.538C183.153 139.331 182.137 139.073 181.139 138.766C180.673 138.631 180.218 138.463 179.776 138.263C179.481 138.105 179.177 137.964 178.867 137.84C178.103 137.577 177.307 137.689 176.523 137.82C176.421 139.253 176.34 140.17 176.34 140.17Z" fill="#618FD8"/>
<path opacity="0.3" d="M176.34 140.17C177.724 139.531 183.583 141.552 183.583 141.552L184.176 139.538C183.153 139.331 182.137 139.073 181.139 138.766C180.673 138.631 180.218 138.463 179.776 138.263C179.481 138.105 179.177 137.964 178.867 137.84C178.103 137.577 177.307 137.689 176.523 137.82C176.421 139.253 176.34 140.17 176.34 140.17Z" fill="black"/>
<path opacity="0.4" d="M205.259 146.234C205.348 146.196 205.427 146.138 205.49 146.064C205.554 145.991 205.599 145.904 205.624 145.811C205.664 145.958 205.649 146.114 205.581 146.25C205.514 146.387 205.399 146.494 205.259 146.552C203.98 147.19 196.632 147.615 193.005 144.849V144.531C196.632 147.297 203.98 146.872 205.259 146.234Z" fill="white"/>
<path opacity="0.4" d="M172.134 146.659C174.362 147.19 182.36 146.02 183.104 144.743V145.061C182.358 146.338 174.371 147.509 172.134 146.977C171.221 146.754 170.929 146.309 171.02 145.822C171.091 146.182 171.426 146.481 172.134 146.659Z" fill="white"/>
<path opacity="0.1" d="M185.127 69.1592C185.127 69.1592 182.784 68.4137 182.144 69.1592C181.505 69.9047 176.04 71.6515 176.04 71.6515" fill="black"/>
<path d="M158.608 39.928H170.004V39.6877H158.608V39.928Z" fill="#8ED16F"/>
<path d="M158.608 40.1683H170.004V39.928H158.608V40.1683Z" fill="#8ED16F"/>
<path opacity="0.1" d="M158.608 40.1683H170.004V39.928H158.608V40.1683Z" fill="black"/>
<path d="M158.608 40.4087H170.004V40.1684H158.608V40.4087Z" fill="#8ED16F"/>
<path d="M158.608 40.6469H170.004V40.4065H158.608V40.6469Z" fill="#8ED16F"/>
<path opacity="0.1" d="M158.608 40.6469H170.004V40.4065H158.608V40.6469Z" fill="black"/>
<path d="M158.608 40.8871H170.004V40.6467H158.608V40.8871Z" fill="#8ED16F"/>
<path d="M158.608 41.1252H170.004V40.8849H158.608V41.1252Z" fill="#8ED16F"/>
<path opacity="0.1" d="M158.608 41.1252H170.004V40.8849H158.608V41.1252Z" fill="black"/>
<path d="M158.608 41.3656H170.004V41.1253H158.608V41.3656Z" fill="#8ED16F"/>
<path d="M158.608 41.6036H170.004V41.3633H158.608V41.6036Z" fill="#8ED16F"/>
<path opacity="0.1" d="M158.608 41.6036H170.004V41.3633H158.608V41.6036Z" fill="black"/>
<path d="M158.608 38.0143H170.004V37.774H158.608V38.0143Z" fill="#8ED16F"/>
<path d="M166.669 32.3244L175.431 39.6027L175.584 39.4179L166.823 32.1396L166.669 32.3244Z" fill="#8ED16F"/>
<path d="M158.681 28.4952L167.442 35.7734L167.596 35.5887L158.835 28.3104L158.681 28.4952Z" fill="#8ED16F"/>
<path d="M158.608 38.2523H170.004V38.012H158.608V38.2523Z" fill="#8ED16F"/>
<path opacity="0.1" d="M158.608 38.2523H170.004V38.012H158.608V38.2523Z" fill="black"/>
<path d="M158.608 38.495H170.004V38.2547H158.608V38.495Z" fill="#8ED16F"/>
<path d="M158.608 38.733H170.004V38.4927H158.608V38.733Z" fill="#8ED16F"/>
<path opacity="0.1" d="M158.608 38.733H170.004V38.4927H158.608V38.733Z" fill="black"/>
<path d="M158.608 38.9712H170.004V38.7309H158.608V38.9712Z" fill="#8ED16F"/>
<path d="M158.608 39.2115H170.004V38.9712H158.608V39.2115Z" fill="#8ED16F"/>
<path opacity="0.1" d="M158.608 39.2115H170.004V38.9712H158.608V39.2115Z" fill="black"/>
<path d="M158.608 39.4496H170.004V39.2093H158.608V39.4496Z" fill="#8ED16F"/>
<path d="M158.608 39.6899H170.004V39.4496H158.608V39.6899Z" fill="#8ED16F"/>
<path opacity="0.1" d="M158.608 39.6899H170.004V39.4496H158.608V39.6899Z" fill="black"/>
<path d="M157.164 49.0211L161.247 49.7784L162.725 41.8299L158.642 41.0726L157.164 49.0211Z" fill="#8ED16F"/>
<path d="M160.838 45.6059C161.01 44.6816 160.774 43.8627 160.312 43.777C159.85 43.6913 159.336 44.3712 159.164 45.2955C158.992 46.2199 159.228 47.0387 159.69 47.1244C160.152 47.2102 160.666 46.5303 160.838 45.6059Z" fill="#8ED16F"/>
<path opacity="0.1" d="M160.838 45.6059C161.01 44.6816 160.774 43.8627 160.312 43.777C159.85 43.6913 159.336 44.3712 159.164 45.2955C158.992 46.2199 159.228 47.0387 159.69 47.1244C160.152 47.2102 160.666 46.5303 160.838 45.6059Z" fill="black"/>
<path d="M157.862 65.7982L161.945 66.5555L163.423 58.607L159.34 57.8497L157.862 65.7982Z" fill="#8ED16F"/>
<path d="M161.534 62.3814C161.706 61.4571 161.471 60.6382 161.009 60.5525C160.547 60.4668 160.033 61.1467 159.861 62.071C159.689 62.9954 159.924 63.8142 160.386 63.9C160.848 63.9857 161.362 63.3058 161.534 62.3814Z" fill="#8ED16F"/>
<path opacity="0.1" d="M161.534 62.3814C161.706 61.4571 161.471 60.6382 161.009 60.5525C160.547 60.4668 160.033 61.1467 159.861 62.071C159.689 62.9954 159.924 63.8142 160.386 63.9C160.848 63.9857 161.362 63.3058 161.534 62.3814Z" fill="black"/>
<path d="M143.094 24.5605L141.118 28.2085L148.237 32.0561L150.213 28.4081L143.094 24.5605Z" fill="#8ED16F"/>
<path d="M147.859 29.2818C148.084 28.8687 147.596 28.1679 146.767 27.7167C145.939 27.2654 145.085 27.2345 144.859 27.6476C144.633 28.0607 145.122 28.7615 145.95 29.2127C146.779 29.664 147.633 29.695 147.859 29.2818Z" fill="#8ED16F"/>
<path opacity="0.1" d="M147.859 29.2818C148.084 28.8687 147.596 28.1679 146.767 27.7167C145.939 27.2654 145.085 27.2345 144.859 27.6476C144.633 28.0607 145.122 28.7615 145.95 29.2127C146.779 29.664 147.633 29.695 147.859 29.2818Z" fill="black"/>
<path d="M127.464 96.5533L125.487 100.201L132.606 104.049L134.582 100.401L127.464 96.5533Z" fill="#8ED16F"/>
<path d="M131.511 101.16C131.735 100.747 131.245 100.05 130.417 99.6022C129.589 99.1548 128.737 99.1267 128.513 99.5396C128.289 99.9525 128.779 100.65 129.607 101.097C130.435 101.545 131.287 101.573 131.511 101.16Z" fill="#8ED16F"/>
<path opacity="0.1" d="M131.511 101.16C131.735 100.747 131.245 100.05 130.417 99.6022C129.589 99.1548 128.737 99.1267 128.513 99.5396C128.289 99.9525 128.779 100.65 129.607 101.097C130.435 101.545 131.287 101.573 131.511 101.16Z" fill="black"/>
<path d="M117.901 37.1424L115.924 40.7904L123.043 44.638L125.019 40.99L117.901 37.1424Z" fill="#8ED16F"/>
<path d="M121.946 41.7458C122.169 41.3329 121.68 40.6355 120.852 40.188C120.024 39.7406 119.171 39.7125 118.948 40.1254C118.724 40.5383 119.214 41.2358 120.042 41.6832C120.869 42.1307 121.722 42.1587 121.946 41.7458Z" fill="#8ED16F"/>
<path opacity="0.1" d="M121.946 41.7458C122.169 41.3329 121.68 40.6355 120.852 40.188C120.024 39.7406 119.171 39.7125 118.948 40.1254C118.724 40.5383 119.214 41.2358 120.042 41.6832C120.869 42.1307 121.722 42.1587 121.946 41.7458Z" fill="black"/>
<path d="M129.887 24.5595L127.91 28.2075L135.029 32.0551L137.005 28.4071L129.887 24.5595Z" fill="#8ED16F"/>
<path d="M133.932 29.1629C134.155 28.75 133.666 28.0526 132.838 27.6051C132.01 27.1577 131.157 27.1297 130.934 27.5426C130.71 27.9554 131.2 28.6529 132.028 29.1004C132.855 29.5478 133.708 29.5758 133.932 29.1629Z" fill="#8ED16F"/>
<path opacity="0.1" d="M133.932 29.1629C134.155 28.75 133.666 28.0526 132.838 27.6051C132.01 27.1577 131.157 27.1297 130.934 27.5426C130.71 27.9554 131.2 28.6529 132.028 29.1004C132.855 29.5478 133.708 29.5758 133.932 29.1629Z" fill="black"/>
<path d="M141.853 39.4064L137.725 39.8573L138.605 47.8938L142.733 47.443L141.853 39.4064Z" fill="#8ED16F"/>
<path d="M140.36 45.3492C140.827 45.2982 141.123 44.4992 141.021 43.5646C140.918 42.63 140.457 41.9137 139.989 41.9647C139.522 42.0158 139.226 42.8148 139.329 43.7494C139.431 44.684 139.893 45.4002 140.36 45.3492Z" fill="#8ED16F"/>
<path opacity="0.1" d="M140.36 45.3492C140.827 45.2982 141.123 44.4992 141.021 43.5646C140.918 42.63 140.457 41.9137 139.989 41.9647C139.522 42.0158 139.226 42.8148 139.329 43.7494C139.431 44.684 139.893 45.4002 140.36 45.3492Z" fill="black"/>
<path d="M170.157 83.4129L166.029 83.8638L166.909 91.9003L171.037 91.4494L170.157 83.4129Z" fill="#8ED16F"/>
<path d="M168.666 89.3557C169.133 89.3047 169.429 88.5057 169.327 87.5711C169.224 86.6365 168.763 85.9202 168.295 85.9712C167.828 86.0222 167.532 86.8212 167.634 87.7558C167.737 88.6905 168.199 89.4067 168.666 89.3557Z" fill="#8ED16F"/>
<path opacity="0.1" d="M168.666 89.3557C169.133 89.3047 169.429 88.5057 169.327 87.5711C169.224 86.6365 168.763 85.9202 168.295 85.9712C167.828 86.0222 167.532 86.8212 167.634 87.7558C167.737 88.6905 168.199 89.4067 168.666 89.3557Z" fill="black"/>
<path d="M125.688 56.4781L123.712 60.1261L130.831 63.9737L132.807 60.3257L125.688 56.4781Z" fill="#8ED16F"/>
<path d="M129.732 61.0846C129.956 60.6717 129.466 59.9742 128.638 59.5268C127.81 59.0793 126.958 59.0513 126.734 59.4642C126.511 59.8771 127 60.5745 127.828 61.022C128.656 61.4694 129.508 61.4975 129.732 61.0846Z" fill="#8ED16F"/>
<path opacity="0.1" d="M129.732 61.0846C129.956 60.6717 129.466 59.9742 128.638 59.5268C127.81 59.0793 126.958 59.0513 126.734 59.4642C126.511 59.8771 127 60.5745 127.828 61.022C128.656 61.4694 129.508 61.4975 129.732 61.0846Z" fill="black"/>
<path d="M107.725 51.3537L105.748 55.0017L112.867 58.8493L114.843 55.2013L107.725 51.3537Z" fill="#8ED16F"/>
<path d="M112.361 56.2025C112.587 55.7893 112.098 55.0886 111.27 54.6373C110.441 54.186 109.587 54.1551 109.361 54.5682C109.136 54.9814 109.624 55.6821 110.453 56.1334C111.281 56.5847 112.136 56.6156 112.361 56.2025Z" fill="#8ED16F"/>
<path opacity="0.1" d="M112.361 56.2025C112.587 55.7893 112.098 55.0886 111.27 54.6373C110.441 54.186 109.587 54.1551 109.361 54.5682C109.136 54.9814 109.624 55.6821 110.453 56.1334C111.281 56.5847 112.136 56.6156 112.361 56.2025Z" fill="black"/>
<path d="M101.972 137.629L99.9952 141.277L107.114 145.125L109.09 141.477L101.972 137.629Z" fill="#8ED16F"/>
<path d="M106.016 142.234C106.24 141.821 105.75 141.123 104.923 140.676C104.095 140.228 103.242 140.2 103.019 140.613C102.795 141.026 103.285 141.724 104.112 142.171C104.94 142.618 105.793 142.647 106.016 142.234Z" fill="#8ED16F"/>
<path opacity="0.1" d="M106.016 142.234C106.24 141.821 105.75 141.123 104.923 140.676C104.095 140.228 103.242 140.2 103.019 140.613C102.795 141.026 103.285 141.724 104.112 142.171C104.94 142.618 105.793 142.647 106.016 142.234Z" fill="black"/>
<path d="M96.7925 139.035L96.0349 143.113L103.993 144.588L104.751 140.51L96.7925 139.035Z" fill="#8ED16F"/>
<path opacity="0.05" d="M96.7925 139.035L96.0349 143.113L103.993 144.588L104.751 140.51L96.7925 139.035Z" fill="black"/>
<path d="M102.06 142.174C102.146 141.712 101.465 141.199 100.54 141.027C99.6145 140.856 98.7947 141.091 98.709 141.553C98.6232 142.014 99.304 142.528 100.229 142.699C101.155 142.871 101.975 142.635 102.06 142.174Z" fill="#8ED16F"/>
<path opacity="0.1" d="M102.06 142.174C102.146 141.712 101.465 141.199 100.54 141.027C99.6145 140.856 98.7947 141.091 98.709 141.553C98.6232 142.014 99.304 142.528 100.229 142.699C101.155 142.871 101.975 142.635 102.06 142.174Z" fill="black"/>
<path d="M97.5381 141.481L96.7806 145.559L104.739 147.034L105.496 142.955L97.5381 141.481Z" fill="#8ED16F"/>
<path d="M102.804 144.62C102.89 144.158 102.209 143.645 101.283 143.473C100.358 143.302 99.5381 143.537 99.4524 143.999C99.3666 144.46 100.047 144.973 100.973 145.145C101.898 145.316 102.718 145.081 102.804 144.62Z" fill="#8ED16F"/>
<path opacity="0.1" d="M102.804 144.62C102.89 144.158 102.209 143.645 101.283 143.473C100.358 143.302 99.5381 143.537 99.4524 143.999C99.3666 144.46 100.047 144.973 100.973 145.145C101.898 145.316 102.718 145.081 102.804 144.62Z" fill="black"/>
<path d="M110.369 148.114L108.392 151.762L115.511 155.61L117.487 151.962L110.369 148.114Z" fill="#8ED16F"/>
<path d="M114.416 152.719C114.639 152.306 114.149 151.608 113.322 151.161C112.494 150.713 111.641 150.685 111.418 151.098C111.194 151.511 111.684 152.209 112.512 152.656C113.339 153.103 114.192 153.131 114.416 152.719Z" fill="#8ED16F"/>
<path opacity="0.1" d="M114.416 152.719C114.639 152.306 114.149 151.608 113.322 151.161C112.494 150.713 111.641 150.685 111.418 151.098C111.194 151.511 111.684 152.209 112.512 152.656C113.339 153.103 114.192 153.131 114.416 152.719Z" fill="black"/>
<path d="M105.191 149.517L104.433 153.596L112.392 155.07L113.149 150.992L105.191 149.517Z" fill="#8ED16F"/>
<path opacity="0.05" d="M105.191 149.517L104.433 153.596L112.392 155.07L113.149 150.992L105.191 149.517Z" fill="black"/>
<path d="M110.457 152.656C110.542 152.194 109.862 151.681 108.936 151.51C108.011 151.338 107.191 151.573 107.105 152.035C107.019 152.497 107.7 153.01 108.626 153.181C109.551 153.353 110.371 153.118 110.457 152.656Z" fill="#8ED16F"/>
<path opacity="0.1" d="M110.457 152.656C110.542 152.194 109.862 151.681 108.936 151.51C108.011 151.338 107.191 151.573 107.105 152.035C107.019 152.497 107.7 153.01 108.626 153.181C109.551 153.353 110.371 153.118 110.457 152.656Z" fill="black"/>
<path d="M105.936 151.966L105.179 156.044L113.137 157.519L113.894 153.44L105.936 151.966Z" fill="#8ED16F"/>
<path d="M111.204 155.104C111.29 154.643 110.609 154.13 109.684 153.958C108.758 153.787 107.938 154.022 107.853 154.483C107.767 154.945 108.448 155.458 109.373 155.63C110.299 155.801 111.118 155.566 111.204 155.104Z" fill="#8ED16F"/>
<path opacity="0.1" d="M111.204 155.104C111.29 154.643 110.609 154.13 109.684 153.958C108.758 153.787 107.938 154.022 107.853 154.483C107.767 154.945 108.448 155.458 109.373 155.63C110.299 155.801 111.118 155.566 111.204 155.104Z" fill="black"/>
<path d="M122.967 141.357L120.991 145.005L128.109 148.853L130.086 145.205L122.967 141.357Z" fill="#8ED16F"/>
<path d="M127.01 145.96C127.234 145.548 126.744 144.85 125.916 144.403C125.088 143.955 124.236 143.927 124.012 144.34C123.788 144.753 124.278 145.45 125.106 145.898C125.934 146.345 126.786 146.373 127.01 145.96Z" fill="#8ED16F"/>
<path opacity="0.1" d="M127.01 145.96C127.234 145.548 126.744 144.85 125.916 144.403C125.088 143.955 124.236 143.927 124.012 144.34C123.788 144.753 124.278 145.45 125.106 145.898C125.934 146.345 126.786 146.373 127.01 145.96Z" fill="black"/>
<path d="M117.788 142.762L117.031 146.84L124.989 148.314L125.746 144.236L117.788 142.762Z" fill="#8ED16F"/>
<path opacity="0.05" d="M117.788 142.762L117.031 146.84L124.989 148.314L125.746 144.236L117.788 142.762Z" fill="black"/>
<path d="M123.054 145.9C123.14 145.439 122.459 144.925 121.534 144.754C120.608 144.582 119.788 144.818 119.703 145.279C119.617 145.741 120.298 146.254 121.223 146.426C122.149 146.597 122.968 146.362 123.054 145.9Z" fill="#8ED16F"/>
<path opacity="0.1" d="M123.054 145.9C123.14 145.439 122.459 144.925 121.534 144.754C120.608 144.582 119.788 144.818 119.703 145.279C119.617 145.741 120.298 146.254 121.223 146.426C122.149 146.597 122.968 146.362 123.054 145.9Z" fill="black"/>
<path d="M118.533 145.209L117.776 149.288L125.734 150.763L126.492 146.684L118.533 145.209Z" fill="#8ED16F"/>
<path d="M123.801 148.349C123.887 147.887 123.206 147.374 122.281 147.202C121.355 147.031 120.536 147.266 120.45 147.728C120.364 148.189 121.045 148.702 121.97 148.874C122.896 149.045 123.716 148.81 123.801 148.349Z" fill="#8ED16F"/>
<path opacity="0.1" d="M123.801 148.349C123.887 147.887 123.206 147.374 122.281 147.202C121.355 147.031 120.536 147.266 120.45 147.728C120.364 148.189 121.045 148.702 121.97 148.874C122.896 149.045 123.716 148.81 123.801 148.349Z" fill="black"/>
</g>
<defs>
<linearGradient id="paint0_linear" x1="102.868" y1="138.094" x2="102.868" y2="59.072" gradientUnits="userSpaceOnUse">
<stop stop-color="#808080" stop-opacity="0.25"/>
<stop offset="0.54" stop-color="#808080" stop-opacity="0.12"/>
<stop offset="1" stop-color="#808080" stop-opacity="0.1"/>
</linearGradient>
<linearGradient id="paint1_linear" x1="-143144" y1="93149.9" x2="-143144" y2="25291.6" gradientUnits="userSpaceOnUse">
<stop stop-color="#808080" stop-opacity="0.25"/>
<stop offset="0.54" stop-color="#808080" stop-opacity="0.12"/>
<stop offset="1" stop-color="#808080" stop-opacity="0.1"/>
</linearGradient>
<clipPath id="clip0">
<rect width="217" height="159" fill="white"/>
</clipPath>
</defs>
</svg>
